{
.appVersion = "3436";
.formatVersion = 3;
DisplayStrings = (
"loclBGR — Local Bulgarian
ДЛьыъюгдбвк/ka-cy.loclBGR ж/zhe-cy.ss04 зийлпцшщ
/De-cy.loclBGR/El-cy.loclBGR/softsign-cy.loclBGR/yeru-cy.loclBGR/hardsign-cy.loclBGR/yu-cy.loclBGR/ge-cy.loclBGR/de-cy.loclBGR/be-cy.loclSRB/ve-cy.loclBGR/ka-cy.loclBGR/ka-cy.ss04.loclBGR/zhe-cy.loclBGR/zhe-cy.ss04.loclBGR/ze-cy.loclBGR/ii-cy.loclBGR/iishort-cy.loclBGR/el-cy.loclBGR/pe-cy.loclBGR/tse-cy.loclBGR/sha-cy.loclBGR/shcha-cy.loclBGR 

ss01 — Flat-tailed
(l) aáăǎâäȧạàāąåǻãẩẳảẫậằẵặ 
(l) /a.ss01/aacute.ss01/abreve.ss01/acaron.ss01/acircumflex.ss01/adieresis.ss01/adotaccent.ss01/adotbelow.ss01/agrave.ss01/amacron.ss01/aogonek.ss01/aring.ss01/aringacute.ss01/atilde.ss01/acircumflexhookabove.ss01/abrevehookabove.ss01/ahookabove.ss01/acircumflextilde.ss01/acircumflexdotbelow.ss01/abrevegrave.ss01/abrevetilde.ss01/abrevedotbelow.ss01  
(c) аӑӓ /a-cy.ss01/abreve-cy.ss01/adieresis-cy.ss01 
(c) /a-cy.cv01/abreve-cy.cv01/adieresis-cy.cv01  /a-cy.ss01.cv01/abreve-cy.ss01.cv01/adieresis-cy.ss01.cv01 
(l) /a.ss01.cv01/aacute.ss01.cv01/abreve.ss01.cv01/acaron.ss01.cv01/acircumflex.ss01.cv01/adieresis.ss01.cv01/adotaccent.ss01.cv01/agrave.ss01.cv01/amacron.ss01.cv01/adotbelow.ss01.cv01/aogonek.ss01.cv01/aring.ss01.cv01/atilde.ss01.cv01/ahookabove.ss01.cv01/aringacute.ss01.cv01/acircumflexhookabove.ss01.cv01/abrevehookabove.ss01.cv01/acircumflextilde.ss01.cv01/abrevegrave.ss01.cv01/abrevetilde.ss01.cv01/acircumflexdotbelow.ss01.cv01/abrevedotbelow.ss01.cv01 
(g) αά /alpha.ss01/alphatonos.ss01 
(l) /R.ss01/Racute.ss01/Rcaron.ss01/Rcommaaccent.ss01 
(c) /Ya-cy.ss01 

ss02 — Tailed
(l) aáăǎâäȧạàāąåǻãẩẳảẫậằẵặ

glyphs = (
{
glyphname = A;
kernLeft = A;
kernRight = A;
lastChange = "2025-11-12 08:00:37 +0000";
layers = (
{
anchors = (
{
name = bottom;
pos = (340,0);
},
{
name = ogonek;
pos = (642,0);
},
{
name = top;
pos = (340,700);
}
);
layerId = m01;
shapes = (
{
closed = 1;
nodes = (
(560,210,l),
(552,230,l),
(148,230,l),
(140,210,l)
);
},
{
angle = 180;
pos = (700,700);
ref = V;
}
);
width = 700;
},
{
anchors = (
{
name = bottom;
pos = (340,0);
},
{
name = ogonek;
pos = (566,0);
},
{
name = top;
pos = (340,700);
}
);
layerId = "CCD41F9B-A064-4484-B59C-AEE566599C6A";
shapes = (
{
closed = 1;
nodes = (
(550,152,l),
(510,288,l),
(190,288,l),
(150,152,l)
);
},
{
angle = 180;
pos = (700,700);
ref = V;
}
);
width = 700;
},
{
anchors = (
{
name = bottom;
pos = (340,0);
},
{
name = ogonek;
pos = (555,0);
},
{
name = top;
pos = (340,700);
}
);
layerId = m003;
shapes = (
{
closed = 1;
nodes = (
(550,131,l),
(510,283,l),
(190,283,l),
(150,131,l)
);
},
{
angle = 180;
pos = (700,700);
ref = V;
}
);
width = 700;
},
{
anchors = (
{
name = bottom;
pos = (340,0);
},
{
name = ogonek;
pos = (599,0);
},
{
name = top;
pos = (340,700);
}
);
layerId = m004;
shapes = (
{
closed = 1;
nodes = (
(554,177,l),
(528,263,l),
(172,263,l),
(146,177,l)
);
},
{
angle = 180;
pos = (700,700);
ref = V;
}
);
width = 700;
},
{
anchors = (
{
name = bottom;
pos = (340,0);
},
{
name = ogonek;
pos = (550,0);
},
{
name = top;
pos = (340,700);
}
);
layerId = m006;
shapes = (
{
closed = 1;
nodes = (
(550,120,l),
(510,280,l),
(190,280,l),
(150,120,l)
);
},
{
angle = 180;
pos = (700,700);
ref = V;
}
);
width = 700;
},
{
anchors = (
{
name = bottom;
pos = (340,0);
},
{
name = ogonek;
pos = (631,0);
},
{
name = top;
pos = (340,700);
}
);
layerId = m007;
shapes = (
{
closed = 1;
nodes = (
(559,202,l),
(546,238,l),
(154,238,l),
(142,202,l)
);
},
{
angle = 180;
pos = (700,700);
ref = V;
}
);
width = 700;
}
);
metricLeft = X;
metricRight = X;
unicode = 65;
userData = {
KernOnName = A;
};
},
{
glyphname = AE;
kernLeft = A;
kernRight = E;
lastChange = "2025-11-12 08:00:40 +0000";
layers = (
{
anchors = (
{
name = top;
pos = (500,700);
}
);
layerId = m01;
shapes = (
{
closed = 1;
nodes = (
(64,0,l),
(318,680,l),
(478,680,l),
(478,700,l),
(304,700,l),
(40,0,l)
);
},
{
closed = 1;
nodes = (
(474,250,l),
(474,270,l),
(162,270,l),
(162,250,l)
);
},
{
alignment = -1;
pos = (360,0);
ref = E;
}
);
width = 960;
},
{
anchors = (
{
name = top;
pos = (500,700);
}
);
layerId = "CCD41F9B-A064-4484-B59C-AEE566599C6A";
shapes = (
{
closed = 1;
nodes = (
(186,0,l),
(354,564,l),
(512,564,l),
(512,700,l),
(236,700,l),
(20,0,l)
);
},
{
closed = 1;
nodes = (
(512,182,l),
(512,318,l),
(194,318,l),
(194,182,l)
);
},
{
alignment = -1;
pos = (360,0);
ref = E;
}
);
width = 960;
},
{
anchors = (
{
name = top;
pos = (500,700);
}
);
layerId = m003;
shapes = (
{
closed = 1;
nodes = (
(206,0,l),
(355,548,l),
(491,548,l),
(491,700,l),
(209,700,l),
(13,0,l)
);
},
{
closed = 1;
nodes = (
(495,167,l),
(495,319,l),
(194,319,l),
(194,167,l)
);
},
{
alignment = -1;
pos = (360,0);
ref = E;
}
);
width = 960;
},
{
anchors = (
{
name = top;
pos = (500,700);
}
);
layerId = m004;
shapes = (
{
closed = 1;
nodes = (
(134,0,l),
(339,614,l),
(497,614,l),
(497,700,l),
(265,700,l),
(29,0,l)
);
},
{
closed = 1;
nodes = (
(496,211,l),
(496,297,l),
(180,297,l),
(180,211,l)
);
},
{
alignment = -1;
pos = (360,0);
ref = E;
}
);
width = 960;
},
{
anchors = (
{
name = top;
pos = (500,700);
}
);
layerId = m006;
shapes = (
{
closed = 1;
nodes = (
(216,0,l),
(356,540,l),
(480,540,l),
(480,700,l),
(196,700,l),
(10,0,l)
);
},
{
closed = 1;
nodes = (
(486,160,l),
(486,320,l),
(194,320,l),
(194,160,l)
);
},
{
alignment = -1;
pos = (360,0);
ref = E;
}
);
width = 960;
},
{
anchors = (
{
name = top;
pos = (500,700);
}
);
layerId = m007;
shapes = (
{
closed = 1;
nodes = (
(82,0,l),
(324,664,l),
(484,664,l),
(484,700,l),
(294,700,l),
(38,0,l)
);
},
{
closed = 1;
nodes = (
(480,240,l),
(480,278,l),
(168,278,l),
(168,240,l)
);
},
{
alignment = -1;
pos = (360,0);
ref = E;
}
);
width = 960;
}
);
metricLeft = X;
metricRight = E;
unicode = 198;
},
{
glyphname = B;
kernLeft = I;
kernRight = S;
lastChange = "2025-11-12 08:00:40 +0000";
layers = (
{
anchors = (
{
name = bottom;
pos = (320,0);
},
{
name = top;
pos = (320,700);
}
);
layerId = m01;
shapes = (
{
closed = 1;
nodes = (
(390,0,ls),
(454,0,o),
(544,40,o),
(592,122,o),
(592,180,qs),
(592,226,o),
(560,298,o),
(496,346,o),
(456,350,q),
(490,358,o),
(552,406,o),
(582,472,o),
(582,520,qs),
(582,572,o),
(538,652,o),
(454,700,o),
(378,700,qs),
(104,700,l),
(104,0,l)
);
},
{
closed = 1;
nodes = (
(124,340,l),
(390,340,ls),
(446,340,o),
(526,308,o),
(572,228,o),
(572,180,qs),
(572,134,o),
(530,56,o),
(446,20,o),
(390,20,qs),
(124,20,l)
);
},
{
closed = 1;
nodes = (
(124,680,l),
(378,680,ls),
(446,680,o),
(524,636,o),
(562,566,o),
(562,520,qs),
(562,478,o),
(532,412,o),
(454,360,o),
(390,360,qs),
(124,360,l)
);
}
);
width = 660;
},
{
anchors = (
{
name = bottom;
pos = (320,0);
},
{
name = top;
pos = (320,700);
}
);
layerId = "CCD41F9B-A064-4484-B59C-AEE566599C6A";
shapes = (
{
closed = 1;
nodes = (
(374,0,ls),
(474,0,o),
(574,48,o),
(626,140,o),
(626,200,qs),
(626,240,o),
(598,310,o),
(544,356,o),
(510,364,q),
(540,372,o),
(592,412,o),
(618,470,o),
(618,516,qs),
(618,566,o),
(574,648,o),
(476,700,o),
(380,700,qs),
(68,700,l),
(68,0,l)
);
},
{
closed = 1;
nodes = (
(224,284,l),
(356,284,ls),
(394,284,o),
(436,272,o),
(462,236,o),
(462,208,qs),
(462,180,o),
(436,144,o),
(394,132,o),
(356,132,qs),
(224,132,l)
);
},
{
closed = 1;
nodes = (
(224,568,l),
(356,568,ls),
(396,568,o),
(432,552,o),
(454,518,o),
(454,492,qs),
(454,466,o),
(432,432,o),
(396,416,o),
(356,416,qs),
(224,416,l)
);
}
);
width = 660;
},
{
anchors = (
{
name = bottom;
pos = (320,0);
},
{
name = top;
pos = (320,700);
}
);
layerId = m003;
shapes = (
{
closed = 1;
nodes = (
(383,0,ls),
(483,0,o),
(582,48,o),
(635,137,o),
(635,199,qs),
(635,247,o),
(604.667,314,o),
(550,358,o),
(517,367,q),
(549,376,o),
(601.333,420,o),
(626,477,o),
(626,519,qs),
(626,567,o),
(580.667,650.667,o),
(484,700,o),
(388,700,qs),
(52,700,l),
(52,0,l)
);
},
{
closed = 1;
nodes = (
(240,276,l),
(357,276,ls),
(383,276,o),
(416,265.333,o),
(437,236,o),
(437,212,qs),
(437,188,o),
(416,158.667,o),
(383,148,o),
(357,148,qs),
(240,148,l)
);
},
{
closed = 1;
nodes = (
(240,552,l),
(355,552,ls),
(384,552,o),
(413.333,538.667,o),
(431,510,o),
(431,488,qs),
(431,466,o),
(413.333,437.333,o),
(384,424,o),
(355,424,qs),
(240,424,l)
);
}
);
width = 660;
},
{
anchors = (
{
name = bottom;
pos = (320,0);
},
{
name = top;
pos = (320,700);
}
);
layerId = m004;
shapes = (
{
closed = 1;
nodes = (
(381,0,ls),
(465,0,o),
(561.143,44.571,o),
(611,132,o),
(611,191,qs),
(611,234,o),
(581.714,304.857,o),
(523,352,o),
(487,358,q),
(519,366,o),
(574.857,409.429,o),
(603,471,o),
(603,518,qs),
(603,569,o),
(558.571,649.714,o),
(467,700,o),
(379,700,qs),
(83,700,l),
(83,0,l)
);
},
{
closed = 1;
nodes = (
(181,308,l),
(371,308,ls),
(416,308,o),
(474.571,287.429,o),
(509,233,o),
(509,196,qs),
(509,160,o),
(476.286,106.286,o),
(416,84,o),
(371,84,qs),
(181,84,l)
);
},
{
closed = 1;
nodes = (
(181,616,l),
(365,616,ls),
(417,616,o),
(471.429,588,o),
(500,539,o),
(500,504,qs),
(500,471,o),
(474.857,423.429,o),
(421,392,o),
(371,392,qs),
(181,392,l)
);
}
);
width = 660;
},
{
anchors = (
{
name = bottom;
pos = (320,0);
},
{
name = top;
pos = (320,700);
}
);
layerId = m006;
shapes = (
{
closed = 1;
nodes = (
(388,0,ls),
(488,0,o),
(586,48,o),
(640,136,o),
(640,198,qs),
(640,250,o),
(608,316,o),
(554,358,o),
(520,368,q),
(554,378,o),
(606,424,o),
(630,480,o),
(630,520,qs),
(630,568,o),
(584,652,o),
(488,700,o),
(392,700,qs),
(44,700,l),
(44,0,l)
);
},
{
closed = 1;
nodes = (
(248,272,l),
(358,272,ls),
(378,272,o),
(406,262,o),
(424,236,o),
(424,214,qs),
(424,192,o),
(406,166,o),
(378,156,o),
(358,156,qs),
(248,156,l)
);
},
{
closed = 1;
nodes = (
(248,544,l),
(354,544,ls),
(378,544,o),
(404,532,o),
(420,506,o),
(420,486,qs),
(420,466,o),
(404,440,o),
(378,428,o),
(354,428,qs),
(248,428,l)
);
}
);
width = 660;
},
{
anchors = (
{
name = bottom;
pos = (320,0);
},
{
name = top;
pos = (320,700);
}
);
layerId = m007;
shapes = (
{
closed = 1;
nodes = (
(388,0,ls),
(457,0,o),
(548.286,41.143,o),
(597,125,o),
(598,184,qs),
(597,228,o),
(565.428,299.714,o),
(504,347,o),
(464,352,q),
(497,360,o),
(557.714,406.857,o),
(587,472,o),
(588,520,qs),
(587,571,o),
(543.143,651.428,o),
(457,700,o),
(378,700,qs),
(100,700,l),
(100,0,l)
);
},
{
closed = 1;
nodes = (
(138,332,l),
(386,332,ls),
(439,332,o),
(513.143,302.857,o),
(556,229,o),
(556,184,qs),
(556,141,o),
(516.572,68.572,o),
(439,36,o),
(386,36,qs),
(138,36,l)
);
},
{
closed = 1;
nodes = (
(138,664,l),
(376,664,ls),
(439,664,o),
(510.857,624,o),
(547,559,o),
(548,516,qs),
(547,476,o),
(517.714,414.857,o),
(446,368,o),
(386,368,qs),
(138,368,l)
);
}
);
width = 660;
}
);
metricLeft = N;
unicode = 66;
userData = {
KernOnName = B;
};
},
{
glyphname = C;
kernLeft = O;
kernRight = C;
lastChange = "2025-11-12 08:00:40 +0000";
layers = (
{
anchors = (
{
name = bottom;
pos = (352,0);
},
{
name = top;
pos = (352,700);
}
);
layerId = m01;
shapes = (
{
closed = 1;
nodes = (
(442,-12,o),
(546,44,o),
(602,132,o),
(604,170,q),
(584,170,l),
(582,138,o),
(532,60,o),
(436,8,o),
(362,8,qs),
(284,8,o),
(166,74,o),
(84,224,o),
(84,350,qs),
(84,476,o),
(166,626,o),
(284,692,o),
(362,692,qs),
(436,692,o),
(532,640,o),
(582,562,o),
(584,530,q),
(604,530,l),
(602,568,o),
(546,656,o),
(442,712,o),
(362,712,qs),
(278,712,o),
(150,640,o),
(64,482,o),
(64,350,qs),
(64,218,o),
(150,60,o),
(278,-12,o),
(362,-12,qs)
);
}
);
width = 660;
},
{
anchors = (
{
name = bottom;
pos = (360,0);
},
{
name = top;
pos = (360,700);
}
);
layerId = "CCD41F9B-A064-4484-B59C-AEE566599C6A";
shapes = (
{
closed = 1;
nodes = (
(442,-12,o),
(558,46,o),
(626,150,o),
(628,210,q),
(474,210,l),
(472,186,o),
(444,146,o),
(396,122,o),
(356,122,qs),
(304,122,o),
(236,172,o),
(204,272,o),
(204,350,qs),
(204,428,o),
(236,530,o),
(304,578,o),
(356,578,qs),
(396,578,o),
(444,554,o),
(472,514,o),
(474,490,q),
(628,490,l),
(626,550,o),
(558,654,o),
(442,712,o),
(356,712,qs),
(252,712,o),
(112,622,o),
(44,464,o),
(44,350,qs),
(44,236,o),
(112,80,o),
(252,-12,o),
(356,-12,qs)
);
}
);
width = 660;
},
{
anchors = (
{
name = bottom;
pos = (360,0);
},
{
name = top;
pos = (360,700);
}
);
layerId = m003;
shapes = (
{
closed = 1;
nodes = (
(447,-12,o),
(568.667,48.667,o),
(637,152,o),
(639,217,q),
(454,217,l),
(452,193,o),
(426.667,158,o),
(388,141,o),
(355,141,qs),
(313,141,o),
(253.333,188,o),
(224,276,o),
(224,350,qs),
(224,424,o),
(253.333,514,o),
(313,559,o),
(355,559,qs),
(388,559,o),
(426.667,542,o),
(452,507,o),
(454,483,q),
(639,483,l),
(637,548,o),
(568.667,651.333,o),
(447,712,o),
(355,712,qs),
(252,712,o),
(108,630,o),
(28,473,o),
(28,350,qs),
(28,227,o),
(108,70.667,o),
(252,-12,o),
(355,-12,qs)
);
}
);
width = 660;
},
{
anchors = (
{
name = bottom;
pos = (357,0);
},
{
name = top;
pos = (357,700);
}
);
layerId = m004;
shapes = (
{
closed = 1;
nodes = (
(442,-12,o),
(552.857,45.143,o),
(616,142,o),
(618,193,q),
(521,193,l),
(519,166,o),
(481.714,109.143,o),
(413,73,o),
(359,73,qs),
(295,73,o),
(206,130,o),
(153,251,o),
(153,350,qs),
(153,449,o),
(206,571.143,o),
(295,627,o),
(359,627,qs),
(413,627,o),
(481.714,590.857,o),
(519,534,o),
(521,507,q),
(618,507,l),
(616,558,o),
(552.857,654.857,o),
(442,712,o),
(359,712,qs),
(263,712,o),
(128.286,629.714,o),
(53,472,o),
(53,350,qs),
(53,228,o),
(128.286,71.429,o),
(263,-12,o),
(359,-12,qs)
);
}
);
width = 660;
},
{
anchors = (
{
name = bottom;
pos = (360,0);
},
{
name = top;
pos = (360,700);
}
);
layerId = m006;
shapes = (
{
closed = 1;
nodes = (
(450,-12,o),
(574,50,o),
(642,152,o),
(644,220,q),
(444,220,l),
(442,196,o),
(418,164,o),
(384,150,o),
(354,150,qs),
(318,150,o),
(262,196,o),
(234,278,o),
(234,350,qs),
(234,422,o),
(262,506,o),
(318,550,o),
(354,550,qs),
(384,550,o),
(418,536,o),
(442,504,o),
(444,480,q),
(644,480,l),
(642,548,o),
(574,650,o),
(450,712,o),
(354,712,qs),
(252,712,o),
(106,634,o),
(20,478,o),
(20,350,qs),
(20,222,o),
(106,66,o),
(252,-12,o),
(354,-12,qs)
);
}
);
width = 660;
},
{
anchors = (
{
name = bottom;
pos = (353,0);
},
{
name = top;
pos = (353,700);
}
);
layerId = m007;
shapes = (
{
closed = 1;
nodes = (
(442,-12,o),
(547.714,44.286,o),
(606,135,o),
(608,176,q),
(568,176,l),
(566,145,o),
(519.428,72.286,o),
(430,24,o),
(362,24,qs),
(287,24,o),
(176,88,o),
(101,231,o),
(102,350,qs),
(101,469,o),
(176,612.286,o),
(287,676,o),
(362,676,qs),
(430,676,o),
(519.428,627.714,o),
(566,555,o),
(568,524,q),
(608,524,l),
(606,565,o),
(547.714,655.714,o),
(442,712,o),
(362,712,qs),
(274,712,o),
(144.572,637.428,o),
(61,480,o),
(62,350,qs),
(61,221,o),
(144.572,62.857,o),
(274,-12,o),
(362,-12,qs)
);
}
);
width = 660;
}
);
metricLeft = O;
unicode = 67;
},
{
glyphname = D;
kernLeft = I;
kernRight = O;
lastChange = "2025-11-12 08:00:40 +0000";
layers = (
{
anchors = (
{
name = top;
pos = (320,700);
}
);
layerId = m01;
shapes = (
{
closed = 1;
nodes = (
(248,0,ls),
(402,0,o),
(544,86,o),
(616,244,o),
(616,350,qs),
(616,456,o),
(544,614,o),
(402,700,o),
(248,700,qs),
(104,700,l),
(104,0,l)
);
},
{
closed = 1;
nodes = (
(124,680,l),
(248,680,ls),
(396,680,o),
(528,600,o),
(596,450,o),
(596,350,qs),
(596,250,o),
(528,100,o),
(396,20,o),
(248,20,qs),
(124,20,l)
);
}
);
width = 680;
},
{
anchors = (
{
name = top;
pos = (320,700);
}
);
layerId = "CCD41F9B-A064-4484-B59C-AEE566599C6A";
shapes = (
{
closed = 1;
nodes = (
(268,0,ls),
(384,0,o),
(546,74,o),
(636,230,o),
(636,350,qs),
(636,470,o),
(546,626,o),
(384,700,o),
(268,700,qs),
(68,700,l),
(68,0,l)
);
},
{
closed = 1;
nodes = (
(228,564,l),
(260,564,ls),
(344,564,o),
(432,518,o),
(476,430,o),
(476,350,qs),
(476,270,o),
(432,182,o),
(344,136,o),
(260,136,qs),
(228,136,l)
);
}
);
width = 680;
},
{
anchors = (
{
name = top;
pos = (320,700);
}
);
layerId = m003;
shapes = (
{
closed = 1;
nodes = (
(281,0,ls),
(395,0,o),
(554,71.333,o),
(652,230,o),
(652,350,qs),
(652,470,o),
(554,628.667,o),
(395,700,o),
(281,700,qs),
(52,700,l),
(52,0,l)
);
},
{
closed = 1;
nodes = (
(245,548,l),
(265,548,ls),
(336,548,o),
(413.333,510,o),
(456,425,o),
(456,350,qs),
(456,275,o),
(413.333,190,o),
(336,152,o),
(265,152,qs),
(245,152,l)
);
}
);
width = 680;
},
{
anchors = (
{
name = top;
pos = (320,700);
}
);
layerId = m004;
shapes = (
{
closed = 1;
nodes = (
(259,0,ls),
(392,0,o),
(545.143,79.143,o),
(627,236,o),
(627,350,qs),
(627,464,o),
(545.143,620.857,o),
(392,700,o),
(259,700,qs),
(83,700,l),
(83,0,l)
);
},
{
closed = 1;
nodes = (
(183,614,l),
(255,614,ls),
(366,614,o),
(473.143,553.143,o),
(527,439,o),
(527,350,qs),
(527,261,o),
(473.143,146.857,o),
(366,86,o),
(255,86,qs),
(183,86,l)
);
}
);
width = 680;
},
{
anchors = (
{
name = top;
pos = (320,700);
}
);
layerId = m006;
shapes = (
{
closed = 1;
nodes = (
(288,0,ls),
(400,0,o),
(558,70,o),
(660,230,o),
(660,350,qs),
(660,470,o),
(558,630,o),
(400,700,o),
(288,700,qs),
(44,700,l),
(44,0,l)
);
},
{
closed = 1;
nodes = (
(254,540,l),
(268,540,ls),
(332,540,o),
(404,506,o),
(446,422,o),
(446,350,qs),
(446,278,o),
(404,194,o),
(332,160,o),
(268,160,qs),
(254,160,l)
);
}
);
width = 680;
},
{
anchors = (
{
name = top;
pos = (320,700);
}
);
layerId = m007;
shapes = (
{
closed = 1;
nodes = (
(252,0,ls),
(400,0,o),
(544.286,84.286,o),
(619,242,o),
(620,350,qs),
(619,458,o),
(544.286,615.714,o),
(400,700,o),
(252,700,qs),
(100,700,l),
(100,0,l)
);
},
{
closed = 1;
nodes = (
(140,664,l),
(250,664,ls),
(389,664,o),
(514.286,588.286,o),
(579,447,o),
(580,350,qs),
(579,253,o),
(514.286,111.714,o),
(389,37,o),
(250,38,qs),
(140,38,l)
);
}
);
width = 680;
}
);
metricLeft = N;
metricRight = O;
unicode = 68;
},
{
glyphname = E;
kernLeft = I;
kernRight = E;
lastChange = "2025-11-12 08:00:40 +0000";
layers = (
{
anchors = (
{
name = bottom;
pos = (320,0);
},
{
name = ogonek;
pos = (512,0);
},
{
name = top;
pos = (320,700);
}
);
layerId = m01;
shapes = (
{
closed = 1;
nodes = (
(530,0,l),
(530,20,l),
(124,20,l),
(124,340,l),
(510,340,l),
(510,360,l),
(124,360,l),
(124,680,l),
(530,680,l),
(530,700,l),
(104,700,l),
(104,0,l)
);
}
);
width = 600;
},
{
anchors = (
{
name = bottom;
pos = (320,0);
},
{
name = ogonek;
pos = (436,0);
},
{
name = top;
pos = (320,700);
}
);
layerId = "CCD41F9B-A064-4484-B59C-AEE566599C6A";
shapes = (
{
closed = 1;
nodes = (
(550,0,l),
(550,132,l),
(228,132,l),
(228,284,l),
(518,284,l),
(518,416,l),
(228,416,l),
(228,568,l),
(550,568,l),
(550,700,l),
(68,700,l),
(68,0,l)
);
}
);
width = 600;
},
{
anchors = (
{
name = bottom;
pos = (320,0);
},
{
name = ogonek;
pos = (432,0);
},
{
name = top;
pos = (320,700);
}
);
layerId = m003;
shapes = (
{
closed = 1;
nodes = (
(563,0,l),
(563,148,l),
(245,148,l),
(245,276,l),
(538,276,l),
(538,424,l),
(245,424,l),
(245,552,l),
(563,552,l),
(563,700,l),
(52,700,l),
(52,0,l)
);
}
);
width = 600;
},
{
anchors = (
{
name = bottom;
pos = (320,0);
},
{
name = ogonek;
pos = (469,0);
},
{
name = top;
pos = (320,700);
}
);
layerId = m004;
shapes = (
{
closed = 1;
nodes = (
(541,0,l),
(541,84,l),
(183,84,l),
(183,308,l),
(515,308,l),
(515,392,l),
(183,392,l),
(183,616,l),
(541,616,l),
(541,700,l),
(83,700,l),
(83,0,l)
);
}
);
width = 600;
},
{
anchors = (
{
name = bottom;
pos = (320,0);
},
{
name = ogonek;
pos = (430,0);
},
{
name = top;
pos = (320,700);
}
);
layerId = m006;
shapes = (
{
closed = 1;
nodes = (
(570,0,l),
(570,156,l),
(254,156,l),
(254,272,l),
(548,272,l),
(548,428,l),
(254,428,l),
(254,544,l),
(570,544,l),
(570,700,l),
(44,700,l),
(44,0,l)
);
}
);
width = 600;
},
{
anchors = (
{
name = bottom;
pos = (320,0);
},
{
name = ogonek;
pos = (501,0);
},
{
name = top;
pos = (320,700);
}
);
layerId = m007;
shapes = (
{
closed = 1;
nodes = (
(534,0,l),
(534,36,l),
(140,36,l),
(140,332,l),
(512,332,l),
(512,368,l),
(140,368,l),
(140,664,l),
(534,664,l),
(534,700,l),
(100,700,l),
(100,0,l)
);
}
);
width = 600;
}
);
metricLeft = N;
unicode = 69;
userData = {
KernOnName = E;
};
},
{
glyphname = Schwa;
kernLeft = O;
kernRight = O;
lastChange = "2025-11-12 08:00:40 +0000";
layers = (
{
anchors = (
{
name = bottom;
pos = (340,0);
},
{
name = top;
pos = (340,700);
}
);
layerId = m01;
shapes = (
{
closed = 1;
nodes = (
(446,-12,o),
(574,92,o),
(636,244,o),
(636,350,qs),
(636,456,o),
(562,622,o),
(430,712,o),
(338,712,qs),
(258,712,o),
(152,658,o),
(86,568,o),
(84,530,q),
(104,530,l),
(106,562,o),
(166,642,o),
(264,692,o),
(338,692,qs),
(424,692,o),
(546,608,o),
(616,450,o),
(616,350,qs),
(616,250,o),
(558,106,o),
(440,8,o),
(346,8,qs),
(252,8,o),
(144,88,o),
(84,224,o),
(84,340,q),
(626,340,l),
(626,360,l),
(64,360,l),
(64,340,ls),
(64,218,o),
(128,74,o),
(246,-12,o),
(346,-12,qs)
);
}
);
width = 700;
},
{
anchors = (
{
name = bottom;
pos = (340,0);
},
{
name = top;
pos = (340,700);
}
);
layerId = "CCD41F9B-A064-4484-B59C-AEE566599C6A";
shapes = (
{
closed = 1;
nodes = (
(442,-12,o),
(582,72,o),
(656,232,o),
(656,360,qs),
(656,488,o),
(568,644,o),
(430,712,o),
(346,712,qs),
(252,712,o),
(126,654,o),
(56,546,o),
(52,490,q),
(212,490,l),
(216,516,o),
(242,554,o),
(296,580,o),
(346,580,qs),
(392,580,o),
(456,542,o),
(498,456,o),
(498,360,qs),
(498,260,o),
(460,164,o),
(392,120,o),
(344,120,qs),
(300,120,o),
(236,160,o),
(208,234,o),
(208,284,q),
(552,284,l),
(552,416,l),
(44,416,l),
(44,352,ls),
(44,232,o),
(112,76,o),
(250,-12,o),
(344,-12,qs)
);
}
);
width = 700;
},
{
anchors = (
{
name = bottom;
pos = (340,0);
},
{
name = top;
pos = (340,700);
}
);
layerId = m003;
shapes = (
{
closed = 1;
nodes = (
(446,-12,o),
(592.667,76,o),
(672,235,o),
(672,353,qs),
(672,472,o),
(590.667,629.333,o),
(441,712,o),
(339,712,qs),
(249,712,o),
(119.333,652.667,o),
(44,543,o),
(40,483,q),
(229,483,l),
(232,506,o),
(258,543.333,o),
(304,564,o),
(342,564,qs),
(391,564,o),
(449.333,523.333,o),
(482,445,o),
(482,353,qs),
(482,261,o),
(450.667,177.333,o),
(392,136,o),
(343,136,qs),
(296,136,o),
(244,172,o),
(220,235,o),
(220,276,q),
(555,276,l),
(555,424,l),
(28,424,l),
(28,337,ls),
(28,232,o),
(102.667,73.333,o),
(245,-12,o),
(343,-12,qs)
);
}
);
width = 700;
},
{
anchors = (
{
name = bottom;
pos = (340,0);
},
{
name = top;
pos = (340,700);
}
);
layerId = m004;
shapes = (
{
closed = 1;
nodes = (
(444,-12,o),
(578.571,80.571,o),
(647,237,o),
(647,356,qs),
(647,474,o),
(565.429,634.571,o),
(430,712,o),
(343,712,qs),
(255,712,o),
(137.143,655.714,o),
(69,555,o),
(66,507,q),
(166,507,l),
(169,535,o),
(209.429,591.714,o),
(282,628,o),
(343,628,qs),
(406,628,o),
(494.571,570.286,o),
(549,453,o),
(549,356,qs),
(549,256,o),
(502,139.143,o),
(413,72,o),
(345,72,qs),
(279,72,o),
(196.571,129.143,o),
(155,230,o),
(155,308,q),
(584,308,l),
(584,392,l),
(53,392,l),
(53,347,ls),
(53,226,o),
(118.857,75.143,o),
(248,-12,o),
(345,-12,qs)
);
}
);
width = 700;
},
{
anchors = (
{
name = bottom;
pos = (340,0);
},
{
name = top;
pos = (340,700);
}
);
layerId = m006;
shapes = (
{
closed = 1;
nodes = (
(448,-12,o),
(598,78,o),
(680,236,o),
(680,350,qs),
(680,464,o),
(602,622,o),
(446,712,o),
(336,712,qs),
(248,712,o),
(116,652,o),
(38,542,o),
(34,480,q),
(238,480,l),
(240,500,o),
(266,538,o),
(308,556,o),
(340,556,qs),
(390,556,o),
(446,514,o),
(474,440,o),
(474,350,qs),
(474,262,o),
(446,184,o),
(392,144,o),
(342,144,qs),
(294,144,o),
(248,178,o),
(226,236,o),
(226,272,q),
(556,272,l),
(556,428,l),
(20,428,l),
(20,330,ls),
(20,232,o),
(98,72,o),
(242,-12,o),
(342,-12,qs)
);
}
);
width = 700;
},
{
anchors = (
{
name = bottom;
pos = (340,0);
},
{
name = top;
pos = (340,700);
}
);
layerId = m007;
shapes = (
{
closed = 1;
nodes = (
(446,-12,o),
(575.143,89.143,o),
(639,242,o),
(640,352,qs),
(639,461,o),
(562.857,625.143,o),
(430,712,o),
(340,712,qs),
(257,712,o),
(148.286,657.428,o),
(82,564,o),
(80,524,q),
(120,524,l),
(122,554,o),
(176.857,629.428,o),
(269,676,o),
(340,676,qs),
(420,676,o),
(533.143,598.572,o),
(599,451,o),
(600,352,qs),
(599,252,o),
(544,114.286,o),
(433,24,o),
(346,24,qs),
(259,24,o),
(157.143,98.286,o),
(102,226,o),
(102,332,q),
(616,332,l),
(616,368,l),
(62,368,l),
(62,342,ls),
(61,220,o),
(125.714,74.286,o),
(247,-12,o),
(346,-12,qs)
);
}
);
width = 700;
}
);
metricLeft = O;
metricRight = O;
unicode = 399;
},
{
glyphname = Ezh;
kernLeft = C;
kernRight = U;
lastChange = "2025-11-12 08:00:40 +0000";
layers = (
{
anchors = (
{
name = bottom;
pos = (310,0);
},
{
name = top;
pos = (310,700);
}
);
layerId = m01;
shapes = (
{
closed = 1;
nodes = (
(380,-8,o),
(482,32,o),
(552,124,o),
(552,190,qs),
(552,258,o),
(482,352,o),
(366,390,o),
(260,390,q),
(538,684,l),
(538,700,l),
(76,700,l),
(76,680,l),
(508,680,l),
(230,384,l),
(230,370,l),
(258,370,ls),
(362,370,o),
(468,336,o),
(532,252,o),
(532,190,qs),
(532,130,o),
(468,48,o),
(374,12,o),
(304,12,qs),
(234,12,o),
(136,46,o),
(78,122,o),
(76,170,q),
(56,170,l),
(58,114,o),
(124,30,o),
(228,-8,o),
(304,-8,qs)
);
}
);
width = 620;
},
{
anchors = (
{
name = bottom;
pos = (310,0);
},
{
name = top;
pos = (310,700);
}
);
layerId = "CCD41F9B-A064-4484-B59C-AEE566599C6A";
shapes = (
{
closed = 1;
nodes = (
(410,-12,o),
(522,44,o),
(586,144,o),
(586,214,qs),
(586,288,o),
(526,380,o),
(434,426,o),
(378,430,q),
(570,602,l),
(570,700,l),
(48,700,l),
(48,568,l),
(360,568,l),
(170,398,l),
(170,308,l),
(266,308,ls),
(336,308,o),
(398,290,o),
(426,246,o),
(426,214,qs),
(426,184,o),
(402,142,o),
(352,120,o),
(316,120,qs),
(276,120,o),
(222,134,o),
(186,174,o),
(184,210,q),
(32,210,l),
(34,146,o),
(98,44,o),
(220,-12,o),
(316,-12,qs)
);
}
);
width = 620;
},
{
anchors = (
{
name = bottom;
pos = (310,0);
},
{
name = top;
pos = (310,700);
}
);
layerId = m003;
shapes = (
{
closed = 1;
nodes = (
(407,-12,o),
(524.667,38.667,o),
(595,143,o),
(595,217,qs),
(595,281,o),
(546,373.333,o),
(458,426,o),
(397,433,q),
(581,583,l),
(581,700,l),
(39,700,l),
(39,549,l),
(349,549,l),
(170,398,l),
(170,299,l),
(266,299,ls),
(320,299,o),
(374,283.333,o),
(402,246,o),
(402,217,qs),
(402,187,o),
(380.667,152.667,o),
(343,136,o),
(315,136,qs),
(281,136,o),
(240.667,150,o),
(211,185,o),
(209,217,q),
(21,217,l),
(23,156,o),
(88.667,46.667,o),
(219,-12,o),
(313,-12,qs)
);
}
);
width = 620;
},
{
anchors = (
{
name = bottom;
pos = (310,0);
},
{
name = top;
pos = (310,700);
}
);
layerId = m004;
shapes = (
{
closed = 1;
nodes = (
(397,-10,o),
(504.857,38.857,o),
(571,135,o),
(571,204,qs),
(571,275,o),
(507.143,368,o),
(404,411,o),
(327,413,q),
(556,637,l),
(556,700,l),
(60,700,l),
(60,616,l),
(423,616,l),
(196,392,l),
(196,335,l),
(263,335,ls),
(347,335,o),
(428,309.714,o),
(471,249,o),
(471,204,qs),
(471,161,o),
(430.286,101.714,o),
(361,74,o),
(311,74,qs),
(258,74,o),
(185.143,96.286,o),
(142,152,o),
(140,194,q),
(44,194,l),
(46,132,o),
(109.143,38,o),
(223,-10,o),
(311,-10,qs)
);
}
);
width = 620;
},
{
anchors = (
{
name = bottom;
pos = (310,0);
},
{
name = top;
pos = (310,700);
}
);
layerId = m006;
shapes = (
{
closed = 1;
nodes = (
(406,-12,o),
(526,36,o),
(600,142,o),
(600,218,qs),
(600,278,o),
(556,370,o),
(470,426,o),
(406,434,q),
(586,574,l),
(586,700,l),
(34,700,l),
(34,540,l),
(344,540,l),
(170,398,l),
(170,294,l),
(266,294,ls),
(312,294,o),
(362,280,o),
(390,246,o),
(390,218,qs),
(390,188,o),
(370,158,o),
(338,144,o),
(314,144,qs),
(284,144,o),
(250,158,o),
(224,190,o),
(222,220,q),
(16,220,l),
(18,160,o),
(84,48,o),
(218,-12,o),
(312,-12,qs)
);
}
);
width = 620;
},
{
anchors = (
{
name = bottom;
pos = (310,0);
},
{
name = top;
pos = (310,700);
}
);
layerId = m007;
shapes = (
{
closed = 1;
nodes = (
(384,-8,o),
(487.714,33.714,o),
(557,127,o),
(558,194,qs),
(557,262,o),
(488.286,356,o),
(376,395,o),
(278,396,q),
(544,672,l),
(544,700,l),
(72,700,l),
(72,664,l),
(488,664,l),
(222,386,l),
(222,362,l),
(260,362,ls),
(358,361,o),
(458,329.428,o),
(517,251,o),
(518,194,qs),
(517,138,o),
(458.572,61.428,o),
(371,28,o),
(306,28,qs),
(240,28,o),
(148.286,58.572,o),
(94,130,o),
(92,176,q),
(53,176,l),
(55,119,o),
(120.286,32,o),
(227,-8,o),
(306,-8,qs)
);
}
);
width = 620;
}
);
metricLeft = "Ereversed-cy";
metricRight = B;
unicode = 439;
},
{
glyphname = F;
kernLeft = I;
kernRight = Psi;
lastChange = "2025-11-12 08:00:40 +0000";
layers = (
{
anchors = (
{
name = top;
pos = (290,700);
}
);
layerId = m01;
shapes = (
{
closed = 1;
nodes = (
(124,0,l),
(124,680,l),
(520,680,l),
(520,700,l),
(104,700,l),
(104,0,l)
);
},
{
closed = 1;
nodes = (
(480,340,l),
(480,360,l),
(124,360,l),
(124,340,l)
);
}
);
width = 580;
},
{
anchors = (
{
name = top;
pos = (290,700);
}
);
layerId = "CCD41F9B-A064-4484-B59C-AEE566599C6A";
shapes = (
{
closed = 1;
nodes = (
(228,0,l),
(228,568,l),
(540,568,l),
(540,700,l),
(68,700,l),
(68,0,l)
);
},
{
closed = 1;
nodes = (
(500,284,l),
(500,416,l),
(158,416,l),
(158,284,l)
);
}
);
width = 580;
},
{
anchors = (
{
name = top;
pos = (290,700);
}
);
layerId = m003;
shapes = (
{
closed = 1;
nodes = (
(245,0,l),
(245,552,l),
(549,552,l),
(549,700,l),
(52,700,l),
(52,0,l)
);
},
{
closed = 1;
nodes = (
(529,276,l),
(529,424,l),
(189,424,l),
(189,276,l)
);
}
);
width = 580;
},
{
anchors = (
{
name = top;
pos = (290,700);
}
);
layerId = m004;
shapes = (
{
closed = 1;
nodes = (
(183,0,l),
(183,616,l),
(531,616,l),
(531,700,l),
(83,700,l),
(83,0,l)
);
},
{
closed = 1;
nodes = (
(491,308,l),
(491,392,l),
(143,392,l),
(143,308,l)
);
}
);
width = 580;
},
{
anchors = (
{
name = top;
pos = (290,700);
}
);
layerId = m006;
shapes = (
{
closed = 1;
nodes = (
(254,0,l),
(254,544,l),
(554,544,l),
(554,700,l),
(44,700,l),
(44,0,l)
);
},
{
closed = 1;
nodes = (
(544,272,l),
(544,428,l),
(204,428,l),
(204,272,l)
);
}
);
width = 580;
},
{
anchors = (
{
name = top;
pos = (290,700);
}
);
layerId = m007;
shapes = (
{
closed = 1;
nodes = (
(140,0,l),
(140,664,l),
(524,664,l),
(524,700,l),
(100,700,l),
(100,0,l)
);
},
{
closed = 1;
nodes = (
(484,332,l),
(484,368,l),
(130,368,l),
(130,332,l)
);
}
);
width = 580;
}
);
metricLeft = N;
unicode = 70;
userData = {
KernOnName = F;
};
},
{
glyphname = G;
kernLeft = O;
kernRight = O;
lastChange = "2025-11-12 08:00:40 +0000";
layers = (
{
anchors = (
{
name = bottom;
pos = (360,0);
},
{
name = top;
pos = (360,700);
}
);
layerId = m01;
shapes = (
{
closed = 1;
nodes = (
(460,-12,o),
(584,80,o),
(636,242,o),
(636,344,q),
(636,354,o),
(636,362,q),
(350,362,l),
(350,342,l),
(616,342,l),
(616,248,o),
(568,94,o),
(454,8,o),
(362,8,qs),
(276,8,o),
(164,76,o),
(84,224,o),
(84,350,qs),
(84,476,o),
(166,626,o),
(280,692,o),
(362,692,qs),
(430,692,o),
(528,644,o),
(588,562,o),
(590,530,q),
(610,530,l),
(608,568,o),
(542,660,o),
(436,712,o),
(362,712,qs),
(274,712,o),
(150,640,o),
(64,482,o),
(64,350,qs),
(64,218,o),
(148,60,o),
(270,-12,o),
(362,-12,qs)
);
}
);
width = 700;
},
{
anchors = (
{
name = bottom;
pos = (360,0);
},
{
name = top;
pos = (360,700);
}
);
layerId = "CCD41F9B-A064-4484-B59C-AEE566599C6A";
shapes = (
{
closed = 1;
nodes = (
(462,-12,o),
(594,66,o),
(656,220,o),
(656,330,qs),
(656,366,o),
(652,396,q),
(350,396,l),
(350,264,l),
(504,264,l),
(504,232,o),
(476,158,o),
(418,122,o),
(370,122,qs),
(318,122,o),
(246,166,o),
(204,268,o),
(204,350,qs),
(204,432,o),
(246,534,o),
(320,578,o),
(372,578,qs),
(408,578,o),
(454,560,o),
(488,514,o),
(488,490,q),
(642,490,l),
(642,546,o),
(570,656,o),
(454,712,o),
(368,712,qs),
(266,712,o),
(128,634,o),
(44,470,o),
(44,350,qs),
(44,230,o),
(122,66,o),
(264,-12,o),
(366,-12,qs)
);
}
);
width = 700;
},
{
anchors = (
{
name = bottom;
pos = (360,0);
},
{
name = top;
pos = (360,700);
}
);
layerId = m003;
shapes = (
{
closed = 1;
nodes = (
(474,-12,o),
(610,74,o),
(672,224,o),
(672,343,qs),
(672,375,o),
(668,399,q),
(350,399,l),
(350,261,l),
(491,261,l),
(491,232,o),
(468,175.333,o),
(415,141,o),
(370,141,qs),
(326,141,o),
(258,184.667,o),
(224,277,o),
(224,350,qs),
(224,423,o),
(258,515.333,o),
(324,559,o),
(372,559,qs),
(405,559,o),
(446,540,o),
(472,504,o),
(473,483,q),
(658,483,l),
(655,547,o),
(582,654.667,o),
(458,712,o),
(368,712,qs),
(263,712,o),
(112,628.667,o),
(28,466,o),
(28,350,qs),
(28,234,o),
(110,71.333,o),
(261,-12,o),
(366,-12,qs)
);
}
);
width = 700;
},
{
anchors = (
{
name = bottom;
pos = (360,0);
},
{
name = top;
pos = (360,700);
}
);
layerId = m004;
shapes = (
{
closed = 1;
nodes = (
(461,-12,o),
(589.714,72,o),
(647,229,o),
(647,336,q),
(647,361,o),
(645,381,q),
(350,381,l),
(350,297,l),
(552,297,l),
(552,239,o),
(515.429,130.571,o),
(433,73,o),
(367,73,qs),
(300,73,o),
(210.857,127.429,o),
(153,249,o),
(153,350,qs),
(153,451,o),
(211.714,573.429,o),
(303,627,o),
(368,627,qs),
(417,627,o),
(485.714,596,o),
(531,535,o),
(532,507,q),
(628,507,l),
(627,556,o),
(558,657.714,o),
(446,712,o),
(365,712,qs),
(269,712,o),
(137.429,636.571,o),
(53,475,o),
(53,350,qs),
(53,225,o),
(133.143,63.429,o),
(267,-12,o),
(364,-12,qs)
);
}
);
width = 700;
},
{
anchors = (
{
name = bottom;
pos = (360,0);
},
{
name = top;
pos = (360,700);
}
);
layerId = m006;
shapes = (
{
closed = 1;
nodes = (
(480,-12,o),
(618,78,o),
(680,226,o),
(680,350,q),
(680,380,o),
(676,400,q),
(350,400,l),
(350,260,l),
(484,260,l),
(484,232,o),
(464,184,o),
(414,150,o),
(370,150,qs),
(330,150,o),
(264,194,o),
(234,282,o),
(234,350,qs),
(234,418,o),
(264,506,o),
(326,550,o),
(372,550,qs),
(404,550,o),
(442,530,o),
(464,500,o),
(466,480,q),
(666,480,l),
(662,546,o),
(588,654,o),
(460,712,o),
(368,712,qs),
(262,712,o),
(104,626,o),
(20,464,o),
(20,350,qs),
(20,236,o),
(104,74,o),
(260,-12,o),
(366,-12,qs)
);
}
);
width = 700;
},
{
anchors = (
{
name = bottom;
pos = (360,0);
},
{
name = top;
pos = (360,700);
}
);
layerId = m007;
shapes = (
{
closed = 1;
nodes = (
(460,-12,o),
(585.428,78,o),
(639,239,o),
(640,342,q),
(639,356,o),
(638,368,q),
(350,368,l),
(350,332,l),
(600,332,l),
(600,246,o),
(554.857,103.143,o),
(449,24,o),
(364,24,qs),
(282,24,o),
(175.714,88.857,o),
(101,230,o),
(102,350,qs),
(101,470,o),
(177.428,612.857,o),
(286,676,o),
(364,676,qs),
(427,676,o),
(517.428,632,o),
(574,556,o),
(576,524,q),
(616,524,l),
(613,566,o),
(546,659.428,o),
(439,712,o),
(364,712,qs),
(273,712,o),
(146.857,639.143,o),
(61,480,o),
(62,350,qs),
(61,220,o),
(144.286,60.857,o),
(269,-12,o),
(364,-12,qs)
);
}
);
width = 700;
}
);
metricLeft = O;
metricRight = O;
unicode = 71;
},
{
glyphname = G.cv06;
kernLeft = O;
kernRight = Omega;
lastChange = "2025-11-12 08:00:40 +0000";
layers = (
{
anchors = (
{
name = bottom;
pos = (360,0);
},
{
name = top;
pos = (360,700);
}
);
layerId = m01;
shapes = (
{
closed = 1;
nodes = (
(442,-12,o),
(540,34,o),
(600,112,o),
(604,158,q),
(604,0,l),
(624,0,l),
(624,362,l),
(350,362,l),
(350,342,l),
(604,342,l),
(604,248,o),
(580,98,o),
(462,8,o),
(362,8,qs),
(282,8,o),
(164,76,o),
(84,224,o),
(84,350,qs),
(84,476,o),
(164,626,o),
(280,692,o),
(362,692,qs),
(430,692,o),
(528,644,o),
(588,562,o),
(590,530,q),
(610,530,l),
(608,568,o),
(542,660,o),
(436,712,o),
(362,712,qs),
(274,712,o),
(148,640,o),
(64,482,o),
(64,350,qs),
(64,218,o),
(148,60,o),
(276,-12,o),
(362,-12,qs)
);
}
);
width = 720;
},
{
anchors = (
{
name = bottom;
pos = (360,0);
},
{
name = top;
pos = (360,700);
}
);
layerId = "CCD41F9B-A064-4484-B59C-AEE566599C6A";
shapes = (
{
closed = 1;
nodes = (
(400,-12,o),
(466,10,o),
(508,44,o),
(520,64,q),
(520,0,l),
(656,0,l),
(656,396,l),
(350,396,l),
(350,264,l),
(512,264,l),
(512,232,o),
(476,160,o),
(414,122,o),
(366,122,qs),
(314,122,o),
(242,166,o),
(204,268,o),
(204,350,qs),
(204,432,o),
(246,534,o),
(320,578,o),
(372,578,qs),
(408,578,o),
(454,560,o),
(488,514,o),
(488,490,q),
(642,490,l),
(642,546,o),
(570,656,o),
(454,712,o),
(368,712,qs),
(266,712,o),
(128,634,o),
(44,470,o),
(44,350,qs),
(44,230,o),
(126,66,o),
(258,-12,o),
(346,-12,qs)
);
}
);
width = 720;
},
{
anchors = (
{
name = bottom;
pos = (360,0);
},
{
name = top;
pos = (360,700);
}
);
layerId = m003;
shapes = (
{
closed = 1;
nodes = (
(391,-12,o),
(455.333,10,o),
(496,42,o),
(507,61,q),
(507,0,l),
(672,0,l),
(672,399,l),
(350,399,l),
(350,261,l),
(493,261,l),
(493,232,o),
(466.667,174.667,o),
(414,141,o),
(369,141,qs),
(322,141,o),
(258,184.667,o),
(224,277,o),
(224,350,qs),
(224,423,o),
(259.333,515.333,o),
(324,559,o),
(372,559,qs),
(405,559,o),
(446,540,o),
(472,504,o),
(473,483,q),
(658,483,l),
(655,547,o),
(582,654.667,o),
(458,712,o),
(368,712,qs),
(263,712,o),
(114.667,628.667,o),
(28,466,o),
(28,350,qs),
(28,233,o),
(108.667,71.333,o),
(242,-12,o),
(339,-12,qs)
);
}
);
width = 720;
},
{
anchors = (
{
name = bottom;
pos = (360,0);
},
{
name = top;
pos = (360,700);
}
);
layerId = m004;
shapes = (
{
closed = 1;
nodes = (
(418,-12,o),
(497.714,20.286,o),
(547,72,o),
(556,104,q),
(556,0,l),
(642,0,l),
(642,381,l),
(350,381,l),
(350,297,l),
(551,297,l),
(551,239,o),
(520.571,133.429,o),
(435,73,o),
(364,73,qs),
(300,73,o),
(208.571,127.429,o),
(153,249,o),
(153,350,qs),
(153,451,o),
(210.857,573.429,o),
(303,627,o),
(368,627,qs),
(417,627,o),
(485.714,596,o),
(531,535,o),
(532,507,q),
(628,507,l),
(627,556,o),
(558,657.714,o),
(446,712,o),
(365,712,qs),
(269,712,o),
(136.571,636.571,o),
(53,475,o),
(53,350,qs),
(53,225,o),
(135.429,63.429,o),
(266,-12,o),
(353,-12,qs)
);
}
);
width = 720;
},
{
anchors = (
{
name = bottom;
pos = (360,0);
},
{
name = top;
pos = (360,700);
}
);
layerId = m006;
shapes = (
{
closed = 1;
nodes = (
(386,-12,o),
(450,10,o),
(490,42,o),
(500,60,q),
(500,0,l),
(680,0,l),
(680,400,l),
(350,400,l),
(350,260,l),
(484,260,l),
(484,232,o),
(462,182,o),
(414,150,o),
(370,150,qs),
(326,150,o),
(266,194,o),
(234,282,o),
(234,350,qs),
(234,418,o),
(266,506,o),
(326,550,o),
(372,550,qs),
(404,550,o),
(442,530,o),
(464,500,o),
(466,480,q),
(666,480,l),
(662,546,o),
(588,654,o),
(460,712,o),
(368,712,qs),
(262,712,o),
(108,626,o),
(20,464,o),
(20,350,qs),
(20,234,o),
(100,74,o),
(234,-12,o),
(336,-12,qs)
);
}
);
width = 720;
},
{
anchors = (
{
name = bottom;
pos = (360,0);
},
{
name = top;
pos = (360,700);
}
);
layerId = m007;
shapes = (
{
closed = 1;
nodes = (
(436,-12,o),
(529.428,30.572,o),
(587,103,o),
(592,146,q),
(592,0,l),
(630,0,l),
(630,368,l),
(350,368,l),
(350,332,l),
(592,332,l),
(591,246,o),
(565.143,106.857,o),
(455,24,o),
(364,24,qs),
(287,24,o),
(175.143,88.857,o),
(101,230,o),
(102,350,qs),
(101,470,o),
(175.714,612.857,o),
(286,676,o),
(364,676,qs),
(427,676,o),
(517.428,632,o),
(574,556,o),
(576,524,q),
(616,524,l),
(613,566,o),
(546,659.428,o),
(439,712,o),
(364,712,qs),
(273,712,o),
(145.143,639.143,o),
(61,480,o),
(62,350,qs),
(61,220,o),
(144.857,60.857,o),
(274,-12,o),
(360,-12,qs)
);
}
);
width = 720;
}
);
metricLeft = O;
metricRight = U;
},
{
glyphname = Gstroke;
kernLeft = O;
kernRight = O;
lastChange = "2025-11-12 08:00:40 +0000";
layers = (
{
layerId = m01;
shapes = (
{
ref = G;
},
{
closed = 1;
nodes = (
(700,190,l),
(700,210,l),
(350,210,l),
(350,190,l)
);
}
);
width = 700;
},
{
layerId = "CCD41F9B-A064-4484-B59C-AEE566599C6A";
shapes = (
{
ref = G;
},
{
closed = 1;
nodes = (
(700,156,l),
(700,236,l),
(350,236,l),
(350,156,l)
);
}
);
width = 700;
},
{
layerId = m003;
shapes = (
{
ref = G;
},
{
closed = 1;
nodes = (
(700,167,l),
(700,236,l),
(350,236,l),
(350,167,l)
);
}
);
width = 700;
},
{
layerId = m004;
shapes = (
{
ref = G;
},
{
closed = 1;
nodes = (
(700,171,l),
(700,225,l),
(350,225,l),
(350,171,l)
);
}
);
width = 700;
},
{
layerId = m006;
shapes = (
{
ref = G;
},
{
closed = 1;
nodes = (
(700,172,l),
(700,236,l),
(350,236,l),
(350,172,l)
);
}
);
width = 700;
},
{
layerId = m007;
shapes = (
{
ref = G;
},
{
closed = 1;
nodes = (
(700,186,l),
(700,214,l),
(350,214,l),
(350,186,l)
);
}
);
width = 700;
}
);
metricLeft = O;
unicode = 484;
},
{
glyphname = Gstroke.cv06;
kernLeft = O;
kernRight = Omega;
lastChange = "2025-11-12 08:00:40 +0000";
layers = (
{
layerId = m01;
shapes = (
{
ref = G.cv06;
},
{
closed = 1;
nodes = (
(720,190,l),
(720,210,l),
(350,210,l),
(350,190,l)
);
}
);
width = 720;
},
{
layerId = "CCD41F9B-A064-4484-B59C-AEE566599C6A";
shapes = (
{
ref = G.cv06;
},
{
closed = 1;
nodes = (
(720,156,l),
(720,236,l),
(350,236,l),
(350,156,l)
);
}
);
width = 720;
},
{
layerId = m003;
shapes = (
{
ref = G.cv06;
},
{
closed = 1;
nodes = (
(720,167,l),
(720,236,l),
(350,236,l),
(350,167,l)
);
}
);
width = 720;
},
{
layerId = m004;
shapes = (
{
ref = G.cv06;
},
{
closed = 1;
nodes = (
(720,171,l),
(720,225,l),
(350,225,l),
(350,171,l)
);
}
);
width = 720;
},
{
layerId = m006;
shapes = (
{
ref = G.cv06;
},
{
closed = 1;
nodes = (
(720,172,l),
(720,236,l),
(350,236,l),
(350,172,l)
);
}
);
width = 720;
},
{
layerId = m007;
shapes = (
{
ref = G.cv06;
},
{
closed = 1;
nodes = (
(720,186,l),
(720,214,l),
(350,214,l),
(350,186,l)
);
}
);
width = 720;
}
);
metricLeft = O;
metricWidth = G.cv06;
},
{
glyphname = H;
kernLeft = I;
kernRight = I;
lastChange = "2025-11-12 08:00:40 +0000";
layers = (
{
anchors = (
{
name = bottom;
pos = (360,0);
},
{
name = top;
pos = (360,700);
}
);
layerId = m01;
shapes = (
{
closed = 1;
nodes = (
(124,0,l),
(124,340,l),
(596,340,l),
(596,0,l),
(616,0,l),
(616,700,l),
(596,700,l),
(596,360,l),
(124,360,l),
(124,700,l),
(104,700,l),
(104,0,l)
);
}
);
width = 720;
},
{
anchors = (
{
name = bottom;
pos = (360,0);
},
{
name = top;
pos = (360,700);
}
);
layerId = "CCD41F9B-A064-4484-B59C-AEE566599C6A";
shapes = (
{
closed = 1;
nodes = (
(228,0,l),
(228,280,l),
(492,280,l),
(492,0,l),
(652,0,l),
(652,700,l),
(492,700,l),
(492,420,l),
(228,420,l),
(228,700,l),
(68,700,l),
(68,0,l)
);
}
);
width = 720;
},
{
anchors = (
{
name = bottom;
pos = (360,0);
},
{
name = top;
pos = (360,700);
}
);
layerId = m003;
shapes = (
{
closed = 1;
nodes = (
(245,0,l),
(245,272,l),
(475,272,l),
(475,0,l),
(668,0,l),
(668,700,l),
(475,700,l),
(475,428,l),
(245,428,l),
(245,700,l),
(52,700,l),
(52,0,l)
);
}
);
width = 720;
},
{
anchors = (
{
name = bottom;
pos = (360,0);
},
{
name = top;
pos = (360,700);
}
);
layerId = m004;
shapes = (
{
closed = 1;
nodes = (
(183,0,l),
(183,306,l),
(537,306,l),
(537,0,l),
(637,0,l),
(637,700,l),
(537,700,l),
(537,394,l),
(183,394,l),
(183,700,l),
(83,700,l),
(83,0,l)
);
}
);
width = 720;
},
{
anchors = (
{
name = bottom;
pos = (360,0);
},
{
name = top;
pos = (360,700);
}
);
layerId = m006;
shapes = (
{
closed = 1;
nodes = (
(254,0,l),
(254,268,l),
(466,268,l),
(466,0,l),
(676,0,l),
(676,700,l),
(466,700,l),
(466,432,l),
(254,432,l),
(254,700,l),
(44,700,l),
(44,0,l)
);
}
);
width = 720;
},
{
anchors = (
{
name = bottom;
pos = (360,0);
},
{
name = top;
pos = (360,700);
}
);
layerId = m007;
shapes = (
{
closed = 1;
nodes = (
(140,0,l),
(140,332,l),
(582,332,l),
(582,0,l),
(622,0,l),
(622,700,l),
(582,700,l),
(582,370,l),
(140,370,l),
(140,700,l),
(100,700,l),
(100,0,l)
);
}
);
width = 720;
}
);
metricLeft = N;
metricRight = N;
unicode = 72;
userData = {
KernOnName = H;
};
},
{
glyphname = Hbar;
kernLeft = I;
kernRight = I;
lastChange = "2025-11-12 08:00:40 +0000";
layers = (
{
layerId = m01;
shapes = (
{
ref = H;
},
{
closed = 1;
nodes = (
(720,570,l),
(720,590,l),
(0,590,l),
(0,570,l)
);
}
);
width = 720;
},
{
layerId = "CCD41F9B-A064-4484-B59C-AEE566599C6A";
shapes = (
{
ref = H;
},
{
closed = 1;
nodes = (
(720,540,l),
(720,620,l),
(0,620,l),
(0,540,l)
);
}
);
width = 720;
},
{
layerId = m003;
shapes = (
{
ref = H;
},
{
closed = 1;
nodes = (
(720,533,l),
(720,627,l),
(0,627,l),
(0,533,l)
);
}
);
width = 720;
},
{
layerId = m004;
shapes = (
{
ref = H;
},
{
closed = 1;
nodes = (
(720,553,l),
(720,607,l),
(0,607,l),
(0,553,l)
);
}
);
width = 720;
},
{
layerId = m006;
shapes = (
{
ref = H;
},
{
closed = 1;
nodes = (
(720,530,l),
(720,630,l),
(0,630,l),
(0,530,l)
);
}
);
width = 720;
},
{
layerId = m007;
shapes = (
{
ref = H;
},
{
closed = 1;
nodes = (
(720,566,l),
(720,594,l),
(0,594,l),
(0,566,l)
);
}
);
width = 720;
}
);
unicode = 294;
},
{
glyphname = Hhook;
kernLeft = T;
kernRight = I;
lastChange = "2025-11-12 08:00:40 +0000";
layers = (
{
layerId = m01;
shapes = (
{
pos = (160,0);
ref = "En-cy";
},
{
closed = 1;
nodes = (
(60,530,l),
(60,600,ls),
(60,640,o),
(100,680,o),
(140,680,qs),
(274,680,l),
(284,700,l),
(140,700,ls),
(90,700,o),
(40,650,o),
(40,600,qs),
(40,530,l)
);
}
);
width = 880;
},
{
layerId = "CCD41F9B-A064-4484-B59C-AEE566599C6A";
shapes = (
{
pos = (160,0);
ref = "En-cy";
},
{
closed = 1;
nodes = (
(160,490,l),
(160,560,ls),
(160,570,o),
(170,580,o),
(180,580,qs),
(360,580,l),
(388,700,l),
(120,700,ls),
(70,700,o),
(20,650,o),
(20,600,qs),
(20,490,l)
);
}
);
width = 880;
},
{
layerId = m003;
shapes = (
{
pos = (160,0);
ref = "En-cy";
},
{
closed = 1;
nodes = (
(160,483,l),
(160,547,ls),
(160,557,o),
(170,567,o),
(180,567,qs),
(360,567,l),
(405,700,l),
(113,700,ls),
(63,700,o),
(13,650,o),
(13,600,qs),
(13,483,l)
);
}
);
width = 880;
},
{
layerId = m004;
shapes = (
{
pos = (160,0);
ref = "En-cy";
},
{
closed = 1;
nodes = (
(117,507,l),
(117,577,ls),
(117,600,o),
(140,623,o),
(163,623,qs),
(323,623,l),
(343,700,l),
(129,700,ls),
(79,700,o),
(29,650,o),
(29,600,qs),
(29,507,l)
);
}
);
width = 880;
},
{
layerId = m006;
shapes = (
{
pos = (160,0);
ref = "En-cy";
},
{
closed = 1;
nodes = (
(160,480,l),
(160,540,ls),
(160,550,o),
(170,560,o),
(180,560,qs),
(360,560,l),
(414,700,l),
(110,700,ls),
(60,700,o),
(10,650,o),
(10,600,qs),
(10,480,l)
);
}
);
width = 880;
},
{
layerId = m007;
shapes = (
{
pos = (160,0);
ref = "En-cy";
},
{
closed = 1;
nodes = (
(74,524,l),
(74,594,ls),
(74,630,o),
(110,666,o),
(146,666,qs),
(286,666,l),
(300,700,l),
(138,700,ls),
(87,700,o),
(37,650,o),
(38,600,qs),
(38,524,l)
);
}
);
width = 880;
}
);
metricRight = H;
unicode = 42922;
},
{
glyphname = I;
kernLeft = I;
kernRight = I;
lastChange = "2025-11-12 08:00:40 +0000";
layers = (
{
anchors = (
{
name = bottom;
pos = (140,0);
},
{
name = ogonek;
pos = (132,0);
},
{
name = top;
pos = (140,700);
}
);
layerId = m01;
shapes = (
{
closed = 1;
nodes = (
(150,0,l),
(150,700,l),
(130,700,l),
(130,0,l)
);
}
);
width = 280;
},
{
anchors = (
{
name = bottom;
pos = (140,0);
},
{
name = ogonek;
pos = (106,0);
},
{
name = top;
pos = (140,700);
}
);
layerId = "CCD41F9B-A064-4484-B59C-AEE566599C6A";
shapes = (
{
closed = 1;
nodes = (
(220,0,l),
(220,700,l),
(60,700,l),
(60,0,l)
);
}
);
width = 280;
},
{
anchors = (
{
name = bottom;
pos = (140,0);
},
{
name = ogonek;
pos = (106,0);
},
{
name = top;
pos = (140,700);
}
);
layerId = m003;
shapes = (
{
closed = 1;
nodes = (
(237,0,l),
(237,700,l),
(43,700,l),
(43,0,l)
);
}
);
width = 280;
},
{
anchors = (
{
name = bottom;
pos = (140,0);
},
{
name = ogonek;
pos = (117,0);
},
{
name = top;
pos = (140,700);
}
);
layerId = m004;
shapes = (
{
closed = 1;
nodes = (
(190,0,l),
(190,700,l),
(90,700,l),
(90,0,l)
);
}
);
width = 280;
},
{
anchors = (
{
name = bottom;
pos = (140,0);
},
{
name = ogonek;
pos = (106,0);
},
{
name = top;
pos = (140,700);
}
);
layerId = m006;
shapes = (
{
closed = 1;
nodes = (
(246,0,l),
(246,700,l),
(34,700,l),
(34,0,l)
);
}
);
width = 280;
},
{
anchors = (
{
name = bottom;
pos = (140,0);
},
{
name = ogonek;
pos = (128,0);
},
{
name = top;
pos = (140,700);
}
);
layerId = m007;
shapes = (
{
closed = 1;
nodes = (
(160,0,l),
(160,700,l),
(120,700,l),
(120,0,l)
);
}
);
width = 280;
}
);
unicode = 73;
},
{
glyphname = I.cv05;
kernLeft = "Zhe-royal";
kernRight = "Zhe-royal";
lastChange = "2025-11-12 08:00:40 +0000";
layers = (
{
anchors = (
{
name = bottom;
pos = (240,0);
},
{
name = ogonek;
pos = (422,0);
},
{
name = top;
pos = (240,700);
}
);
layerId = m01;
shapes = (
{
pos = (100,0);
ref = I;
},
{
closed = 1;
nodes = (
(40,680,l),
(440,680,l),
(440,700,l),
(40,700,l)
);
},
{
closed = 1;
nodes = (
(40,0,l),
(440,0,l),
(440,20,l),
(40,20,l)
);
}
);
width = 480;
},
{
anchors = (
{
name = bottom;
pos = (240,0);
},
{
name = ogonek;
pos = (336,0);
},
{
name = top;
pos = (240,700);
}
);
layerId = "CCD41F9B-A064-4484-B59C-AEE566599C6A";
shapes = (
{
pos = (100,0);
ref = I;
},
{
closed = 1;
nodes = (
(20,564,l),
(460,564,l),
(460,700,l),
(20,700,l)
);
},
{
closed = 1;
nodes = (
(20,0,l),
(460,0,l),
(460,136,l),
(20,136,l)
);
}
);
width = 480;
},
{
anchors = (
{
name = bottom;
pos = (240,0);
},
{
name = ogonek;
pos = (325,0);
},
{
name = top;
pos = (240,700);
}
);
layerId = m003;
shapes = (
{
pos = (100,0);
ref = I;
},
{
closed = 1;
nodes = (
(13,555,l),
(467,555,l),
(467,700,l),
(13,700,l)
);
},
{
closed = 1;
nodes = (
(13,0,l),
(467,0,l),
(467,145,l),
(13,145,l)
);
}
);
width = 480;
},
{
anchors = (
{
name = bottom;
pos = (240,0);
},
{
name = ogonek;
pos = (373,0);
},
{
name = top;
pos = (240,700);
}
);
layerId = m004;
shapes = (
{
pos = (100,0);
ref = I;
},
{
closed = 1;
nodes = (
(29,614,l),
(450,614,l),
(450,700,l),
(29,700,l)
);
},
{
closed = 1;
nodes = (
(29,0,l),
(450,0,l),
(450,86,l),
(29,86,l)
);
}
);
width = 480;
},
{
anchors = (
{
name = bottom;
pos = (240,0);
},
{
name = ogonek;
pos = (320,0);
},
{
name = top;
pos = (240,700);
}
);
layerId = m006;
shapes = (
{
pos = (100,0);
ref = I;
},
{
closed = 1;
nodes = (
(10,550,l),
(470,550,l),
(470,700,l),
(10,700,l)
);
},
{
closed = 1;
nodes = (
(10,0,l),
(470,0,l),
(470,150,l),
(10,150,l)
);
}
);
width = 480;
},
{
anchors = (
{
name = bottom;
pos = (240,0);
},
{
name = ogonek;
pos = (410,0);
},
{
name = top;
pos = (240,700);
}
);
layerId = m007;
shapes = (
{
pos = (100,0);
ref = I;
},
{
closed = 1;
nodes = (
(38,664,l),
(444,664,l),
(444,700,l),
(38,700,l)
);
},
{
closed = 1;
nodes = (
(38,0,l),
(444,0,l),
(444,38,l),
(38,38,l)
);
}
);
width = 480;
}
);
metricLeft = T;
metricRight = T;
},
{
glyphname = J;
kernLeft = L;
kernRight = I;
lastChange = "2025-11-12 08:00:40 +0000";
layers = (
{
anchors = (
{
name = bottom;
pos = (200,0);
},
{
name = top;
pos = (386,700);
}
);
layerId = m01;
shapes = (
{
closed = 1;
nodes = (
(318,0,o),
(396,78,o),
(396,150,qs),
(396,700,l),
(376,700,l),
(376,150,ls),
(376,86,o),
(310,20,o),
(246,20,qs),
(40,20,l),
(40,0,l),
(246,0,ls)
);
}
);
width = 500;
},
{
anchors = (
{
name = bottom;
pos = (200,0);
},
{
name = top;
pos = (352,700);
}
);
layerId = "CCD41F9B-A064-4484-B59C-AEE566599C6A";
shapes = (
{
closed = 1;
nodes = (
(352,0,o),
(432,80,o),
(432,150,qs),
(432,700,l),
(272,700,l),
(272,190,ls),
(272,164,o),
(248,140,o),
(222,140,qs),
(20,140,l),
(20,0,l),
(282,0,ls)
);
}
);
width = 500;
},
{
anchors = (
{
name = bottom;
pos = (200,0);
},
{
name = top;
pos = (352,700);
}
);
layerId = m003;
shapes = (
{
closed = 1;
nodes = (
(368,0,o),
(448,80,o),
(448,150,qs),
(448,700,l),
(255,700,l),
(255,210,ls),
(255,184,o),
(231,160,o),
(205,160,qs),
(13,160,l),
(13,0,l),
(298,0,ls)
);
}
);
width = 500;
},
{
anchors = (
{
name = bottom;
pos = (200,0);
},
{
name = top;
pos = (367,700);
}
);
layerId = m004;
shapes = (
{
closed = 1;
nodes = (
(337,0,o),
(417,79,o),
(417,150,qs),
(417,700,l),
(317,700,l),
(317,173,ls),
(317,131,o),
(275,89,o),
(232,89,qs),
(29,89,l),
(29,0,l),
(267,0,ls)
);
}
);
width = 500;
},
{
anchors = (
{
name = bottom;
pos = (200,0);
},
{
name = top;
pos = (352,700);
}
);
layerId = m006;
shapes = (
{
closed = 1;
nodes = (
(376,0,o),
(456,80,o),
(456,150,qs),
(456,700,l),
(246,700,l),
(246,220,ls),
(246,194,o),
(222,170,o),
(196,170,qs),
(10,170,l),
(10,0,l),
(306,0,ls)
);
}
);
width = 500;
},
{
anchors = (
{
name = bottom;
pos = (200,0);
},
{
name = top;
pos = (381,700);
}
);
layerId = m007;
shapes = (
{
closed = 1;
nodes = (
(323,0,o),
(401,78,o),
(402,150,qs),
(402,700,l),
(362,700,l),
(362,156,ls),
(361,97,o),
(301,37,o),
(244,38,qs),
(38,38,l),
(38,0,l),
(252,0,ls)
);
}
);
width = 500;
}
);
metricLeft = T;
metricRight = N;
unicode = 74;
},
{
glyphname = K;
kernLeft = I;
kernRight = X;
lastChange = "2025-11-12 08:00:40 +0000";
layers = (
{
anchors = (
{
name = bottom;
pos = (340,0);
},
{
name = top;
pos = (340,700);
}
);
layerId = m01;
shapes = (
{
closed = 1;
nodes = (
(124,0,l),
(124,258,l),
(290,398,l),
(634,0,l),
(660,0,l),
(306,412,l),
(646,700,l),
(616,700,l),
(124,284,l),
(124,700,l),
(104,700,l),
(104,0,l)
);
}
);
width = 700;
},
{
anchors = (
{
name = bottom;
pos = (340,0);
},
{
name = top;
pos = (340,700);
}
);
layerId = "CCD41F9B-A064-4484-B59C-AEE566599C6A";
shapes = (
{
closed = 1;
nodes = (
(228,0,l),
(228,210,l),
(302,296,l),
(480,0,l),
(670,0,l),
(426,398,l),
(680,700,l),
(496,700,l),
(228,386,l),
(228,700,l),
(68,700,l),
(68,0,l)
);
}
);
width = 700;
},
{
anchors = (
{
name = bottom;
pos = (340,0);
},
{
name = top;
pos = (340,700);
}
);
layerId = m003;
shapes = (
{
closed = 1;
nodes = (
(245,0,l),
(245,214,l),
(297,279,l),
(456,0,l),
(682,0,l),
(447,401,l),
(687,700,l),
(477,700,l),
(245,414,l),
(245,700,l),
(52,700,l),
(52,0,l)
);
}
);
width = 700;
},
{
anchors = (
{
name = bottom;
pos = (340,0);
},
{
name = top;
pos = (340,700);
}
);
layerId = m004;
shapes = (
{
closed = 1;
nodes = (
(183,0,l),
(183,231,l),
(297,340,l),
(550,0,l),
(670,0,l),
(375,404,l),
(670,700,l),
(552,700,l),
(183,342,l),
(183,700,l),
(83,700,l),
(83,0,l)
);
}
);
width = 700;
},
{
anchors = (
{
name = bottom;
pos = (340,0);
},
{
name = top;
pos = (340,700);
}
);
layerId = m006;
shapes = (
{
closed = 1;
nodes = (
(254,0,l),
(254,216,l),
(294,270,l),
(444,0,l),
(688,0,l),
(458,402,l),
(690,700,l),
(468,700,l),
(254,428,l),
(254,700,l),
(44,700,l),
(44,0,l)
);
}
);
width = 700;
},
{
anchors = (
{
name = bottom;
pos = (340,0);
},
{
name = top;
pos = (340,700);
}
);
layerId = m007;
shapes = (
{
closed = 1;
nodes = (
(140,0,l),
(140,252,l),
(292,384,l),
(613,0,l),
(664,0,l),
(324,410,l),
(652,700,l),
(600,700,l),
(140,300,l),
(140,700,l),
(100,700,l),
(100,0,l)
);
}
);
width = 700;
}
);
metricLeft = N;
metricRight = X;
unicode = 75;
userData = {
KernOnName = K;
};
},
{
glyphname = L;
kernLeft = I;
kernRight = L;
lastChange = "2025-11-12 08:00:40 +0000";
layers = (
{
anchors = (
{
name = bottom;
pos = (300,0);
},
{
name = top;
pos = (114,700);
}
);
layerId = m01;
shapes = (
{
closed = 1;
nodes = (
(520,0,l),
(520,20,l),
(124,20,l),
(124,700,l),
(104,700,l),
(104,0,l)
);
}
);
width = 560;
},
{
anchors = (
{
name = bottom;
pos = (300,0);
},
{
name = top;
pos = (150,700);
}
);
layerId = "CCD41F9B-A064-4484-B59C-AEE566599C6A";
shapes = (
{
closed = 1;
nodes = (
(540,0,l),
(540,140,l),
(228,140,l),
(228,700,l),
(68,700,l),
(68,0,l)
);
}
);
width = 560;
},
{
anchors = (
{
name = bottom;
pos = (300,0);
},
{
name = top;
pos = (150,700);
}
);
layerId = m003;
shapes = (
{
closed = 1;
nodes = (
(547,0,l),
(547,160,l),
(245,160,l),
(245,700,l),
(52,700,l),
(52,0,l)
);
}
);
width = 560;
},
{
anchors = (
{
name = bottom;
pos = (300,0);
},
{
name = top;
pos = (135,700);
}
);
layerId = m004;
shapes = (
{
closed = 1;
nodes = (
(530,0,l),
(530,90,l),
(183,89,l),
(183,700,l),
(83,700,l),
(83,0,l)
);
}
);
width = 560;
},
{
anchors = (
{
name = bottom;
pos = (300,0);
},
{
name = top;
pos = (150,700);
}
);
layerId = m006;
shapes = (
{
closed = 1;
nodes = (
(550,0,l),
(550,170,l),
(254,170,l),
(254,700,l),
(44,700,l),
(44,0,l)
);
}
);
width = 560;
},
{
anchors = (
{
name = bottom;
pos = (300,0);
},
{
name = top;
pos = (119,700);
}
);
layerId = m007;
shapes = (
{
closed = 1;
nodes = (
(524,0,l),
(524,38,l),
(140,38,l),
(140,700,l),
(100,700,l),
(100,0,l)
);
}
);
width = 560;
}
);
metricLeft = N;
metricRight = T;
unicode = 76;
userData = {
KernOnName = L;
};
},
{
glyphname = L.ss05;
kernLeft = I;
kernRight = L;
lastChange = "2025-11-12 08:00:40 +0000";
layers = (
{
anchors = (
{
name = bottom;
pos = (300,0);
},
{
name = top;
pos = (114,700);
}
);
layerId = m01;
shapes = (
{
closed = 1;
nodes = (
(520,0,l),
(520,20,l),
(254,20,ls),
(190,20,o),
(124,86,o),
(124,150,qs),
(124,700,l),
(104,700,l),
(104,150,ls),
(104,76,o),
(180,0,o),
(254,0,qs)
);
}
);
width = 560;
},
{
anchors = (
{
name = bottom;
pos = (300,0);
},
{
name = top;
pos = (150,700);
}
);
layerId = "CCD41F9B-A064-4484-B59C-AEE566599C6A";
shapes = (
{
closed = 1;
nodes = (
(540,0,l),
(540,140,l),
(268,140,ls),
(248,140,o),
(228,160,o),
(228,180,qs),
(228,700,l),
(68,700,l),
(68,140,ls),
(68,70,o),
(138,0,o),
(208,0,qs)
);
}
);
width = 560;
},
{
anchors = (
{
name = bottom;
pos = (300,0);
},
{
name = top;
pos = (150,700);
}
);
layerId = m003;
shapes = (
{
closed = 1;
nodes = (
(547,0,l),
(547,160,l),
(285,160,ls),
(265,160,o),
(245,180,o),
(245,200,qs),
(245,700,l),
(52,700,l),
(52,140,ls),
(52,70,o),
(122,0,o),
(192,0,qs)
);
}
);
width = 560;
},
{
anchors = (
{
name = bottom;
pos = (300,0);
},
{
name = top;
pos = (135,700);
}
);
layerId = m004;
shapes = (
{
closed = 1;
nodes = (
(530,0,l),
(530,90,l),
(262,90,ls),
(224,88,o),
(184,128,o),
(184,168,qs),
(184,700,l),
(84,700,l),
(84,144,ls),
(84,74,o),
(156,0,o),
(228,0,qs)
);
}
);
width = 560;
},
{
anchors = (
{
name = bottom;
pos = (300,0);
},
{
name = top;
pos = (150,700);
}
);
layerId = m006;
shapes = (
{
closed = 1;
nodes = (
(550,0,l),
(550,170,l),
(294,170,ls),
(274,170,o),
(254,190,o),
(254,210,qs),
(254,700,l),
(44,700,l),
(44,140,ls),
(44,70,o),
(114,0,o),
(184,0,qs)
);
}
);
width = 560;
},
{
anchors = (
{
name = bottom;
pos = (300,0);
},
{
name = top;
pos = (119,700);
}
);
layerId = m007;
shapes = (
{
closed = 1;
nodes = (
(524,0,l),
(524,38,l),
(256,38,ls),
(198,37,o),
(139,97,o),
(140,156,qs),
(139,700,l),
(99,700,l),
(100,150,ls),
(99,76,o),
(174,0,o),
(248,0,qs)
);
}
);
width = 560;
}
);
metricLeft = N;
metricRight = T;
userData = {
KernOnName = L;
};
},
{
glyphname = Lslash;
kernLeft = I;
kernRight = L;
lastChange = "2025-11-12 08:00:40 +0000";
layers = (
{
anchors = (
{
name = top;
pos = (114,700);
}
);
layerId = m01;
shapes = (
{
closed = 1;
nodes = (
(400,420,l),
(400,440,l),
(0,280,l),
(0,260,l)
);
},
{
alignment = -1;
ref = L;
}
);
width = 560;
},
{
anchors = (
{
name = top;
pos = (150,700);
}
);
layerId = "CCD41F9B-A064-4484-B59C-AEE566599C6A";
shapes = (
{
closed = 1;
nodes = (
(400,380,l),
(400,480,l),
(0,320,l),
(0,220,l)
);
},
{
alignment = -1;
ref = L;
}
);
width = 560;
},
{
anchors = (
{
name = top;
pos = (150,700);
}
);
layerId = m003;
shapes = (
{
closed = 1;
nodes = (
(400,367,l),
(400,487,l),
(0,333,l),
(0,213,l)
);
},
{
alignment = -1;
ref = L;
}
);
width = 560;
},
{
anchors = (
{
name = top;
pos = (135,700);
}
);
layerId = m004;
shapes = (
{
closed = 1;
nodes = (
(400,397,l),
(400,463,l),
(0,303,l),
(0,237,l)
);
},
{
alignment = -1;
ref = L;
}
);
width = 560;
},
{
anchors = (
{
name = top;
pos = (150,700);
}
);
layerId = m006;
shapes = (
{
closed = 1;
nodes = (
(400,360,l),
(400,490,l),
(0,340,l),
(0,210,l)
);
},
{
alignment = -1;
ref = L;
}
);
width = 560;
},
{
anchors = (
{
name = top;
pos = (119,700);
}
);
layerId = m007;
shapes = (
{
closed = 1;
nodes = (
(400,414,l),
(400,446,l),
(0,286,l),
(0,254,l)
);
},
{
alignment = -1;
ref = L;
}
);
width = 560;
}
);
metricRight = L;
unicode = 321;
},
{
glyphname = Lslash.ss05;
kernLeft = I;
kernRight = L;
lastChange = "2025-11-12 08:00:40 +0000";
layers = (
{
anchors = (
{
name = top;
pos = (114,700);
}
);
layerId = m01;
shapes = (
{
closed = 1;
nodes = (
(400,420,l),
(400,440,l),
(0,280,l),
(0,260,l)
);
},
{
alignment = -1;
ref = L.ss05;
}
);
width = 560;
},
{
anchors = (
{
name = top;
pos = (150,700);
}
);
layerId = "CCD41F9B-A064-4484-B59C-AEE566599C6A";
shapes = (
{
closed = 1;
nodes = (
(400,380,l),
(400,480,l),
(0,320,l),
(0,220,l)
);
},
{
alignment = -1;
ref = L.ss05;
}
);
width = 560;
},
{
anchors = (
{
name = top;
pos = (150,700);
}
);
layerId = m003;
shapes = (
{
closed = 1;
nodes = (
(400,367,l),
(400,487,l),
(0,333,l),
(0,213,l)
);
},
{
alignment = -1;
ref = L.ss05;
}
);
width = 560;
},
{
anchors = (
{
name = top;
pos = (135,700);
}
);
layerId = m004;
shapes = (
{
closed = 1;
nodes = (
(400,397,l),
(400,463,l),
(0,303,l),
(0,237,l)
);
},
{
alignment = -1;
ref = L.ss05;
}
);
width = 560;
},
{
anchors = (
{
name = top;
pos = (150,700);
}
);
layerId = m006;
shapes = (
{
closed = 1;
nodes = (
(400,360,l),
(400,490,l),
(0,340,l),
(0,210,l)
);
},
{
alignment = -1;
ref = L.ss05;
}
);
width = 560;
},
{
anchors = (
{
name = top;
pos = (119,700);
}
);
layerId = m007;
shapes = (
{
closed = 1;
nodes = (
(400,414,l),
(400,446,l),
(0,286,l),
(0,254,l)
);
},
{
alignment = -1;
ref = L.ss05;
}
);
width = 560;
}
);
metricRight = L;
},
{
glyphname = M;
kernLeft = I;
kernRight = I;
lastChange = "2025-11-12 08:00:40 +0000";
layers = (
{
anchors = (
{
name = bottom;
pos = (462,0);
},
{
name = top;
pos = (460,700);
}
);
layerId = m01;
shapes = (
{
closed = 1;
nodes = (
(124,0,l),
(124,676,l),
(450,0,l),
(472,0,l),
(796,676,l),
(796,0,l),
(816,0,l),
(816,700,l),
(784,700,l),
(462,24,l),
(136,700,l),
(104,700,l),
(104,0,l)
);
}
);
width = 920;
},
{
anchors = (
{
name = bottom;
pos = (460,0);
},
{
name = top;
pos = (460,700);
}
);
layerId = "CCD41F9B-A064-4484-B59C-AEE566599C6A";
shapes = (
{
closed = 1;
nodes = (
(216,0,l),
(216,516,l),
(388,0,l),
(532,0,l),
(694,506,l),
(694,0,l),
(852,0,l),
(852,700,l),
(622,700,l),
(468,180,l),
(306,700,l),
(68,700,l),
(68,0,l)
);
}
);
width = 920;
},
{
anchors = (
{
name = bottom;
pos = (460,0);
},
{
name = top;
pos = (460,700);
}
);
layerId = m003;
shapes = (
{
closed = 1;
nodes = (
(225,0,l),
(225,481,l),
(369,0,l),
(537,0,l),
(678,465,l),
(678,0,l),
(868,0,l),
(868,700,l),
(599,700,l),
(467,220,l),
(329,700,l),
(52,700,l),
(52,0,l)
);
}
);
width = 920;
},
{
anchors = (
{
name = bottom;
pos = (461,0);
},
{
name = top;
pos = (460,700);
}
);
layerId = m004;
shapes = (
{
closed = 1;
nodes = (
(177,0,l),
(177,585,l),
(415,0,l),
(506,0,l),
(738,579,l),
(738,0,l),
(837,0,l),
(837,700,l),
(691,700,l),
(465,113,l),
(233,700,l),
(83,700,l),
(83,0,l)
);
}
);
width = 920;
},
{
anchors = (
{
name = bottom;
pos = (460,0);
},
{
name = top;
pos = (460,700);
}
);
layerId = m006;
shapes = (
{
closed = 1;
nodes = (
(230,0,l),
(230,464,l),
(360,0,l),
(540,0,l),
(670,444,l),
(670,0,l),
(876,0,l),
(876,700,l),
(588,700,l),
(466,240,l),
(340,700,l),
(44,700,l),
(44,0,l)
);
}
);
width = 920;
},
{
anchors = (
{
name = bottom;
pos = (462,0);
},
{
name = top;
pos = (460,700);
}
);
layerId = m007;
shapes = (
{
closed = 1;
nodes = (
(138,0,l),
(138,654,l),
(442,0,l),
(482,0,l),
(782,652,l),
(782,0,l),
(822,0,l),
(822,700,l),
(762,700,l),
(464,46,l),
(160,700,l),
(100,700,l),
(100,0,l)
);
}
);
width = 920;
}
);
metricLeft = N;
metricRight = N;
unicode = 77;
},
{
glyphname = N;
kernLeft = I;
kernRight = I;
lastChange = "2025-11-12 08:00:37 +0000";
layers = (
{
anchors = (
{
name = bottom;
pos = (360,0);
},
{
name = top;
pos = (360,700);
}
);
layerId = m01;
shapes = (
{
closed = 1;
nodes = (
(124,0,l),
(124,674,l),
(590,0,l),
(616,0,l),
(616,700,l),
(596,700,l),
(596,26,l),
(130,700,l),
(104,700,l),
(104,0,l)
);
}
);
width = 720;
},
{
anchors = (
{
name = bottom;
pos = (360,0);
},
{
name = top;
pos = (360,700);
}
);
layerId = "CCD41F9B-A064-4484-B59C-AEE566599C6A";
shapes = (
{
closed = 1;
nodes = (
(222,0,l),
(222,470,l),
(476,0,l),
(652,0,l),
(652,700,l),
(498,700,l),
(498,230,l),
(244,700,l),
(68,700,l),
(68,0,l)
);
}
);
width = 720;
},
{
anchors = (
{
name = bottom;
pos = (360,0);
},
{
name = top;
pos = (360,700);
}
);
layerId = m003;
shapes = (
{
closed = 1;
nodes = (
(227,0,l),
(227,450,l),
(451,0,l),
(668,0,l),
(668,700,l),
(493,700,l),
(493,237,l),
(269,700,l),
(52,700,l),
(52,0,l)
);
}
);
width = 720;
},
{
anchors = (
{
name = bottom;
pos = (360,0);
},
{
name = top;
pos = (360,700);
}
);
layerId = m004;
shapes = (
{
closed = 1;
nodes = (
(180,0,l),
(180,557,l),
(525,0,l),
(637,0,l),
(637,700,l),
(540,700,l),
(540,143,l),
(195,700,l),
(83,700,l),
(83,0,l)
);
}
);
width = 720;
},
{
anchors = (
{
name = bottom;
pos = (360,0);
},
{
name = top;
pos = (360,700);
}
);
layerId = m006;
shapes = (
{
closed = 1;
nodes = (
(230,0,l),
(230,440,l),
(438,0,l),
(676,0,l),
(676,700,l),
(490,700,l),
(490,240,l),
(282,700,l),
(44,700,l),
(44,0,l)
);
}
);
width = 720;
},
{
anchors = (
{
name = bottom;
pos = (360,0);
},
{
name = top;
pos = (360,700);
}
);
layerId = m007;
shapes = (
{
closed = 1;
nodes = (
(138,0,l),
(138,645,l),
(574,0,l),
(621,0,l),
(621,700,l),
(582,700,l),
(582,55,l),
(146,700,l),
(99,700,l),
(99,0,l)
);
}
);
width = 720;
}
);
unicode = 78;
},
{
glyphname = Eng;
kernLeft = I;
kernRight = "I-des";
lastChange = "2025-11-12 08:00:40 +0000";
layers = (
{
layerId = m01;
shapes = (
{
closed = 1;
nodes = (
(124,0,l),
(124,674,l),
(596,0,l),
(616,0,l),
(616,700,l),
(596,700,l),
(596,38,l),
(132,700,l),
(104,700,l),
(104,0,l)
);
},
{
alignment = -1;
pos = (396,0);
ref = "hook-2";
}
);
width = 720;
},
{
layerId = "CCD41F9B-A064-4484-B59C-AEE566599C6A";
shapes = (
{
closed = 1;
nodes = (
(222,0,l),
(222,450,l),
(492,0,l),
(652,0,l),
(652,700,l),
(498,700,l),
(498,250,l),
(228,700,l),
(68,700,l),
(68,0,l)
);
},
{
alignment = -1;
pos = (372,0);
ref = "hook-2";
}
);
width = 720;
},
{
layerId = m003;
shapes = (
{
closed = 1;
nodes = (
(227,0,l),
(227,450,l),
(477,0,l),
(668,0,l),
(668,700,l),
(493,700,l),
(493,277,l),
(257,700,l),
(52,700,l),
(52,0,l)
);
},
{
alignment = -1;
pos = (375,0);
ref = "hook-2";
}
);
width = 720;
},
{
layerId = m004;
shapes = (
{
closed = 1;
nodes = (
(180,0,l),
(180,546,l),
(537,0,l),
(637,0,l),
(637,700,l),
(540,700,l),
(540,159,l),
(187,700,l),
(83,700,l),
(83,0,l)
);
},
{
alignment = -1;
pos = (382,0);
ref = "hook-2";
}
);
width = 720;
},
{
layerId = m006;
shapes = (
{
closed = 1;
nodes = (
(230,0,l),
(230,450,l),
(470,0,l),
(676,0,l),
(676,700,l),
(490,700,l),
(490,290,l),
(272,700,l),
(44,700,l),
(44,0,l)
);
},
{
alignment = -1;
pos = (376,0);
ref = "hook-2";
}
);
width = 720;
},
{
layerId = m007;
shapes = (
{
closed = 1;
nodes = (
(138,0,l),
(138,642,l),
(582,0,l),
(622,0,l),
(622,700,l),
(582,700,l),
(582,68,l),
(146,700,l),
(100,700,l),
(100,0,l)
);
},
{
alignment = -1;
pos = (393,0);
ref = "hook-2";
}
);
width = 720;
}
);
metricLeft = N;
metricRight = N;
unicode = 330;
},
{
glyphname = O;
kernLeft = O;
kernRight = O;
lastChange = "2025-11-12 08:00:40 +0000";
layers = (
{
anchors = (
{
name = bottom;
pos = (360,0);
},
{
name = top;
pos = (360,700);
}
);
layerId = m01;
shapes = (
{
closed = 1;
nodes = (
(456,-12,o),
(586,78,o),
(656,238,o),
(656,350,qs),
(656,462,o),
(586,626,o),
(456,712,o),
(360,712,qs),
(264,712,o),
(136,626,o),
(64,462,o),
(64,350,qs),
(64,238,o),
(136,78,o),
(264,-12,o),
(360,-12,qs)
);
},
{
closed = 1;
nodes = (
(270,8,o),
(152,92,o),
(84,244,o),
(84,350,qs),
(84,456,o),
(152,612,o),
(270,692,o),
(360,692,qs),
(450,692,o),
(570,612,o),
(636,456,o),
(636,350,qs),
(636,244,o),
(570,92,o),
(450,8,o),
(360,8,qs)
);
}
);
width = 720;
},
{
anchors = (
{
name = bottom;
pos = (360,0);
},
{
name = top;
pos = (360,700);
}
);
layerId = "CCD41F9B-A064-4484-B59C-AEE566599C6A";
shapes = (
{
closed = 1;
nodes = (
(460,-12,o),
(604,74,o),
(676,236,o),
(676,350,qs),
(676,464,o),
(604,628,o),
(460,712,o),
(360,712,qs),
(260,712,o),
(116,628,o),
(44,464,o),
(44,350,qs),
(44,236,o),
(116,74,o),
(260,-12,o),
(360,-12,qs)
);
},
{
closed = 1;
nodes = (
(304,128,o),
(234,184,o),
(204,276,o),
(204,350,qs),
(204,424,o),
(234,518,o),
(304,572,o),
(360,572,qs),
(416,572,o),
(486,518,o),
(516,424,o),
(516,350,qs),
(516,276,o),
(486,184,o),
(416,128,o),
(360,128,qs)
);
}
);
width = 720;
},
{
anchors = (
{
name = bottom;
pos = (360,0);
},
{
name = top;
pos = (360,700);
}
);
layerId = m003;
shapes = (
{
closed = 1;
nodes = (
(467,-12,o),
(618.667,76.667,o),
(692,236,o),
(692,350,qs),
(692,464,o),
(618.667,625.333,o),
(467,712,o),
(360,712,qs),
(253,712,o),
(104,625.333,o),
(28,464,o),
(28,350,qs),
(28,236,o),
(104,76.667,o),
(253,-12,o),
(360,-12,qs)
);
},
{
closed = 1;
nodes = (
(309,148,o),
(251.333,197.333,o),
(224,283,o),
(224,350,qs),
(224,417,o),
(251.333,503.333,o),
(309,552,o),
(360,552,qs),
(411,552,o),
(468.667,503.333,o),
(496,417,o),
(496,350,qs),
(496,283,o),
(468.667,197.333,o),
(411,148,o),
(360,148,qs)
);
}
);
width = 720;
},
{
anchors = (
{
name = bottom;
pos = (360,0);
},
{
name = top;
pos = (360,700);
}
);
layerId = m004;
shapes = (
{
closed = 1;
nodes = (
(458,-12,o),
(596.286,75.714,o),
(667,237,o),
(667,350,qs),
(667,463,o),
(596.286,627.143,o),
(458,712,o),
(360,712,qs),
(262,712,o),
(124.571,627.143,o),
(53,463,o),
(53,350,qs),
(53,237,o),
(124.571,75.714,o),
(262,-12,o),
(360,-12,qs)
);
},
{
closed = 1;
nodes = (
(289,77,o),
(198.857,144.571,o),
(153,262,o),
(153,350,qs),
(153,438,o),
(198.857,558.286,o),
(289,623,o),
(360,623,qs),
(431,623,o),
(522,558.286,o),
(567,438,o),
(567,350,qs),
(567,262,o),
(522,144.571,o),
(431,77,o),
(360,77,qs)
);
}
);
width = 720;
},
{
anchors = (
{
name = bottom;
pos = (360,0);
},
{
name = top;
pos = (360,700);
}
);
layerId = m006;
shapes = (
{
closed = 1;
nodes = (
(470,-12,o),
(626,78,o),
(700,236,o),
(700,350,qs),
(700,464,o),
(626,624,o),
(470,712,o),
(360,712,qs),
(250,712,o),
(98,624,o),
(20,464,o),
(20,350,qs),
(20,236,o),
(98,78,o),
(250,-12,o),
(360,-12,qs)
);
},
{
closed = 1;
nodes = (
(312,158,o),
(260,204,o),
(234,286,o),
(234,350,qs),
(234,414,o),
(260,496,o),
(312,542,o),
(360,542,qs),
(408,542,o),
(460,496,o),
(486,414,o),
(486,350,qs),
(486,286,o),
(460,204,o),
(408,158,o),
(360,158,qs)
);
}
);
width = 720;
},
{
anchors = (
{
name = bottom;
pos = (360,0);
},
{
name = top;
pos = (360,700);
}
);
layerId = m007;
shapes = (
{
closed = 1;
nodes = (
(457,-12,o),
(588.572,77.428,o),
(659,238,o),
(660,350,qs),
(659,462,o),
(588.572,626.286,o),
(457,712,o),
(360,712,qs),
(264,712,o),
(133.143,626.286,o),
(61,462,o),
(62,350,qs),
(61,238,o),
(133.143,77.428,o),
(264,-12,o),
(360,-12,qs)
);
},
{
closed = 1;
nodes = (
(275,25,o),
(163.714,105.143,o),
(101,249,o),
(102,350,qs),
(101,452,o),
(163.714,598.572,o),
(275,675,o),
(360,676,qs),
(445,675,o),
(558,598.572,o),
(619,452,o),
(620,350,qs),
(619,249,o),
(558,105.143,o),
(445,25,o),
(360,26,qs)
);
}
);
width = 720;
}
);
unicode = 79;
userData = {
KernOnName = O;
};
},
{
glyphname = Ohorn;
kernLeft = O;
kernRight = "O-horn";
lastChange = "2025-11-12 08:00:40 +0000";
layers = (
{
anchors = (
{
name = bottom;
pos = (360,0);
},
{
name = top;
pos = (360,700);
}
);
layerId = m01;
shapes = (
{
alignment = -1;
ref = O;
},
{
pos = (580,0);
ref = horncomb;
},
{
closed = 1;
nodes = (
(452,700,l),
(452,680,l),
(592,680,l),
(592,700,l)
);
}
);
width = 780;
},
{
anchors = (
{
name = bottom;
pos = (360,0);
},
{
name = top;
pos = (360,700);
}
);
layerId = "CCD41F9B-A064-4484-B59C-AEE566599C6A";
shapes = (
{
alignment = -1;
ref = O;
},
{
pos = (500,0);
ref = horncomb;
},
{
closed = 1;
nodes = (
(382,700,l),
(382,600,l),
(512,600,l),
(512,700,l)
);
}
);
width = 780;
},
{
anchors = (
{
name = bottom;
pos = (360,0);
},
{
name = top;
pos = (360,700);
}
);
layerId = m003;
shapes = (
{
alignment = -1;
ref = O;
},
{
pos = (480,0);
ref = horncomb;
},
{
closed = 1;
nodes = (
(382,700,l),
(382,587,l),
(485,587,l),
(485,700,l)
);
}
);
width = 780;
},
{
anchors = (
{
name = bottom;
pos = (360,0);
},
{
name = top;
pos = (360,700);
}
);
layerId = m004;
shapes = (
{
alignment = -1;
ref = O;
},
{
pos = (532,0);
ref = horncomb;
},
{
closed = 1;
nodes = (
(412,700,l),
(412,634,l),
(546,634,l),
(546,700,l)
);
}
);
width = 780;
},
{
anchors = (
{
name = bottom;
pos = (360,0);
},
{
name = top;
pos = (360,700);
}
);
layerId = m006;
shapes = (
{
alignment = -1;
ref = O;
},
{
pos = (470,0);
ref = horncomb;
},
{
closed = 1;
nodes = (
(382,700,l),
(382,580,l),
(472,580,l),
(472,700,l)
);
}
);
width = 780;
},
{
anchors = (
{
name = bottom;
pos = (360,0);
},
{
name = top;
pos = (360,700);
}
);
layerId = m007;
shapes = (
{
alignment = -1;
ref = O;
},
{
pos = (568,0);
ref = horncomb;
},
{
closed = 1;
nodes = (
(442,700,l),
(442,670,l),
(582,670,l),
(582,700,l)
);
}
);
width = 780;
}
);
metricLeft = O;
metricRight = T;
unicode = 416;
},
{
glyphname = Oslash;
kernLeft = O;
kernRight = O;
lastChange = "2025-11-12 08:00:40 +0000";
layers = (
{
anchors = (
{
name = top;
pos = (360,700);
}
);
layerId = m01;
shapes = (
{
closed = 1;
nodes = (
(90,0,l),
(656,700,l),
(630,700,l),
(64,0,l)
);
},
{
ref = O;
}
);
width = 720;
},
{
anchors = (
{
name = top;
pos = (360,700);
}
);
layerId = "CCD41F9B-A064-4484-B59C-AEE566599C6A";
shapes = (
{
closed = 1;
nodes = (
(182,0,l),
(676,700,l),
(538,700,l),
(44,0,l)
);
},
{
ref = O;
}
);
width = 720;
},
{
anchors = (
{
name = top;
pos = (360,700);
}
);
layerId = m003;
shapes = (
{
closed = 1;
nodes = (
(193,0,l),
(679,700,l),
(527,700,l),
(41,0,l)
);
},
{
ref = O;
}
);
width = 720;
},
{
anchors = (
{
name = top;
pos = (360,700);
}
);
layerId = m004;
shapes = (
{
closed = 1;
nodes = (
(143,0,l),
(667,700,l),
(577,700,l),
(53,0,l)
);
},
{
ref = O;
}
);
width = 720;
},
{
anchors = (
{
name = top;
pos = (360,700);
}
);
layerId = m006;
shapes = (
{
closed = 1;
nodes = (
(198,0,l),
(680,700,l),
(522,700,l),
(40,0,l)
);
},
{
ref = O;
}
);
width = 720;
},
{
anchors = (
{
name = top;
pos = (360,700);
}
);
layerId = m007;
shapes = (
{
closed = 1;
nodes = (
(104,0,l),
(660,700,l),
(618,700,l),
(62,0,l)
);
},
{
ref = O;
}
);
width = 720;
}
);
metricLeft = O;
metricRight = O;
unicode = 216;
},
{
glyphname = OE;
kernLeft = O;
kernRight = E;
lastChange = "2025-11-12 08:00:40 +0000";
layers = (
{
anchors = (
{
name = top;
pos = (520,700);
}
);
layerId = m01;
shapes = (
{
alignment = -1;
pos = (400,0);
ref = E;
},
{
closed = 1;
nodes = (
(524,700,l),
(432,700,ls),
(278,700,o),
(136,614,o),
(64,456,o),
(64,350,qs),
(64,244,o),
(136,86,o),
(278,0,o),
(432,0,qs),
(524,0,l),
(524,20,l),
(432,20,ls),
(284,20,o),
(152,100,o),
(84,250,o),
(84,350,qs),
(84,450,o),
(152,600,o),
(284,680,o),
(432,680,qs),
(524,680,l)
);
}
);
width = 1000;
},
{
anchors = (
{
name = top;
pos = (520,700);
}
);
layerId = "CCD41F9B-A064-4484-B59C-AEE566599C6A";
shapes = (
{
alignment = -1;
pos = (400,0);
ref = E;
},
{
closed = 1;
nodes = (
(628,700,l),
(412,700,ls),
(296,700,o),
(138,626,o),
(44,470,o),
(44,350,qs),
(44,230,o),
(138,74,o),
(296,0,o),
(412,0,qs),
(628,0,l),
(628,136,l),
(420,136,ls),
(336,136,o),
(252,182,o),
(204,270,o),
(204,350,qs),
(204,430,o),
(252,518,o),
(336,564,o),
(420,564,qs),
(628,564,l)
);
}
);
width = 1000;
},
{
anchors = (
{
name = top;
pos = (520,700);
}
);
layerId = m003;
shapes = (
{
alignment = -1;
pos = (400,0);
ref = E;
},
{
closed = 1;
nodes = (
(645,700,l),
(399,700,ls),
(285,700,o),
(127.333,628.667,o),
(28,470,o),
(28,350,qs),
(28,230,o),
(127.333,71.333,o),
(285,0,o),
(399,0,qs),
(645,0,l),
(645,152,l),
(415,152,ls),
(344,152,o),
(268,190,o),
(224,275,o),
(224,350,qs),
(224,425,o),
(268,510,o),
(344,548,o),
(415,548,qs),
(645,548,l)
);
}
);
width = 1000;
},
{
anchors = (
{
name = top;
pos = (520,700);
}
);
layerId = m004;
shapes = (
{
alignment = -1;
pos = (400,0);
ref = E;
},
{
closed = 1;
nodes = (
(583,700,l),
(421,700,ls),
(288,700,o),
(137.143,620.857,o),
(53,464,o),
(53,350,qs),
(53,236,o),
(137.143,79.143,o),
(288,0,o),
(421,0,qs),
(583,0,l),
(583,86,l),
(425,86,ls),
(314,86,o),
(209.143,146.857,o),
(153,261,o),
(153,350,qs),
(153,439,o),
(209.143,553.143,o),
(314,614,o),
(425,614,qs),
(583,614,l)
);
}
);
width = 1000;
},
{
anchors = (
{
name = top;
pos = (520,700);
}
);
layerId = m006;
shapes = (
{
alignment = -1;
pos = (400,0);
ref = E;
},
{
closed = 1;
nodes = (
(654,700,l),
(392,700,ls),
(280,700,o),
(122,630,o),
(20,470,o),
(20,350,qs),
(20,230,o),
(122,70,o),
(280,0,o),
(392,0,qs),
(654,0,l),
(654,160,l),
(412,160,ls),
(348,160,o),
(276,194,o),
(234,278,o),
(234,350,qs),
(234,422,o),
(276,506,o),
(348,540,o),
(412,540,qs),
(654,540,l)
);
}
);
width = 1000;
},
{
anchors = (
{
name = top;
pos = (520,700);
}
);
layerId = m007;
shapes = (
{
alignment = -1;
pos = (400,0);
ref = E;
},
{
closed = 1;
nodes = (
(540,700,l),
(430,700,ls),
(281,700,o),
(136.286,615.714,o),
(61,458,o),
(62,350,qs),
(61,242,o),
(136.286,84.286,o),
(281,0,o),
(430,0,qs),
(540,0,l),
(540,38,l),
(430,38,ls),
(292,37,o),
(166.286,111.714,o),
(101,253,o),
(102,350,qs),
(101,447,o),
(166.286,588.286,o),
(292,664,o),
(430,664,qs),
(540,664,l)
);
}
);
width = 1000;
}
);
metricLeft = O;
metricRight = E;
unicode = 338;
},
{
glyphname = P;
kernLeft = I;
kernRight = P;
lastChange = "2025-11-12 08:00:40 +0000";
layers = (
{
anchors = (
{
name = top;
pos = (320,700);
}
);
layerId = m01;
shapes = (
{
closed = 1;
nodes = (
(124,0,l),
(124,276,l),
(362,276,ls),
(438,276,o),
(544,326,o),
(606,422,o),
(606,488,qs),
(606,554,o),
(544,650,o),
(438,700,o),
(362,700,qs),
(104,700,l),
(104,0,l)
);
},
{
closed = 1;
nodes = (
(124,680,l),
(360,680,ls),
(430,680,o),
(528,636,o),
(586,548,o),
(586,488,qs),
(586,428,o),
(528,340,o),
(430,296,o),
(360,296,qs),
(124,296,l)
);
}
);
width = 660;
},
{
anchors = (
{
name = top;
pos = (320,700);
}
);
layerId = "CCD41F9B-A064-4484-B59C-AEE566599C6A";
shapes = (
{
closed = 1;
nodes = (
(228,0,l),
(228,244,l),
(366,244,ls),
(446,244,o),
(562,290,o),
(630,396,o),
(630,472,qs),
(630,548,o),
(562,656,o),
(446,700,o),
(366,700,qs),
(68,700,l),
(68,0,l)
);
},
{
closed = 1;
nodes = (
(228,564,l),
(348,564,ls),
(396,564,o),
(444,544,o),
(470,504,o),
(470,472,qs),
(470,440,o),
(444,400,o),
(396,380,o),
(348,380,qs),
(228,380,l)
);
}
);
width = 660;
},
{
anchors = (
{
name = top;
pos = (320,700);
}
);
layerId = m003;
shapes = (
{
closed = 1;
nodes = (
(245,0,l),
(245,244,l),
(375,244,ls),
(455,244,o),
(568.667,290,o),
(639,396,o),
(639,472,qs),
(639,548,o),
(568.667,656,o),
(455,700,o),
(375,700,qs),
(52,700,l),
(52,0,l)
);
},
{
closed = 1;
nodes = (
(245,552,l),
(332,552,ls),
(380,552,o),
(421.333,537.333,o),
(446,501,o),
(446,472,qs),
(446,443,o),
(421.333,406.667,o),
(380,392,o),
(332,392,qs),
(245,392,l)
);
}
);
width = 660;
},
{
anchors = (
{
name = top;
pos = (320,700);
}
);
layerId = m004;
shapes = (
{
closed = 1;
nodes = (
(183,0,l),
(183,258,l),
(364,258,ls),
(443,258,o),
(554.286,305.429,o),
(620,407,o),
(620,479,qs),
(620,551,o),
(554.286,653.429,o),
(443,700,o),
(364,700,qs),
(83,700,l),
(83,0,l)
);
},
{
closed = 1;
nodes = (
(183,614,l),
(353,614,ls),
(411,614,o),
(480,583.429,o),
(520,523,o),
(520,479,qs),
(520,435,o),
(480,374.286,o),
(411,344,o),
(353,344,qs),
(183,344,l)
);
}
);
width = 660;
},
{
anchors = (
{
name = top;
pos = (320,700);
}
);
layerId = m006;
shapes = (
{
closed = 1;
nodes = (
(254,0,l),
(254,244,l),
(380,244,ls),
(460,244,o),
(572,290,o),
(644,396,o),
(644,472,qs),
(644,548,o),
(572,656,o),
(460,700,o),
(380,700,qs),
(44,700,l),
(44,0,l)
);
},
{
closed = 1;
nodes = (
(254,546,l),
(324,546,ls),
(372,546,o),
(410,534,o),
(434,500,o),
(434,472,qs),
(434,444,o),
(410,410,o),
(372,398,o),
(324,398,qs),
(254,398,l)
);
}
);
width = 660;
},
{
anchors = (
{
name = top;
pos = (320,700);
}
);
layerId = m007;
shapes = (
{
closed = 1;
nodes = (
(140,0,l),
(140,272,l),
(364,272,ls),
(439,272,o),
(546.572,320.857,o),
(610,418,o),
(610,486,qs),
(610,553,o),
(546.572,650.857,o),
(439,700,o),
(364,700,qs),
(100,700,l),
(100,0,l)
);
},
{
closed = 1;
nodes = (
(140,664,l),
(358,664,ls),
(425,664,o),
(516,622.857,o),
(570,542,o),
(570,486,qs),
(570,430,o),
(516,348.572,o),
(425,308,o),
(358,308,qs),
(140,308,l)
);
}
);
width = 660;
}
);
metricLeft = N;
unicode = 80;
},
{
glyphname = Thorn;
kernLeft = I;
kernRight = Phi;
lastChange = "2025-11-12 08:00:40 +0000";
layers = (
{
layerId = m01;
shapes = (
{
closed = 1;
nodes = (
(124,0,l),
(124,700,l),
(104,700,l),
(104,0,l)
);
},
{
closed = 1;
nodes = (
(114,138,l),
(362,138,ls),
(438,138,o),
(544,188,o),
(606,284,o),
(606,350,qs),
(606,416,o),
(544,512,o),
(438,562,o),
(362,562,qs),
(114,562,l)
);
},
{
closed = 1;
nodes = (
(124,542,l),
(360,542,ls),
(430,542,o),
(528,498,o),
(586,410,o),
(586,350,qs),
(586,290,o),
(528,202,o),
(430,158,o),
(360,158,qs),
(124,158,l)
);
}
);
width = 660;
},
{
layerId = "CCD41F9B-A064-4484-B59C-AEE566599C6A";
shapes = (
{
closed = 1;
nodes = (
(228,0,l),
(228,700,l),
(68,700,l),
(68,0,l)
);
},
{
closed = 1;
nodes = (
(118,122,l),
(366,122,ls),
(446,122,o),
(562,168,o),
(630,274,o),
(630,350,qs),
(630,426,o),
(562,534,o),
(446,578,o),
(366,578,qs),
(118,578,l)
);
},
{
closed = 1;
nodes = (
(218,442,l),
(348,442,ls),
(396,442,o),
(444,422,o),
(470,382,o),
(470,350,qs),
(470,318,o),
(444,278,o),
(396,258,o),
(348,258,qs),
(218,258,l)
);
}
);
width = 660;
},
{
layerId = m003;
shapes = (
{
closed = 1;
nodes = (
(245,0,l),
(245,700,l),
(52,700,l),
(52,0,l)
);
},
{
closed = 1;
nodes = (
(82,122,l),
(375,122,ls),
(455,122,o),
(568.667,168,o),
(639,274,o),
(639,350,qs),
(639,426,o),
(568.667,534,o),
(455,578,o),
(375,578,qs),
(82,578,l)
);
},
{
closed = 1;
nodes = (
(242,430,l),
(329,430,ls),
(377,430,o),
(418.667,415.333,o),
(443,379,o),
(443,350,qs),
(443,321,o),
(418.667,284.667,o),
(377,270,o),
(329,270,qs),
(242,270,l)
);
}
);
width = 660;
},
{
layerId = m004;
shapes = (
{
closed = 1;
nodes = (
(183,0,l),
(183,700,l),
(83,700,l),
(83,0,l)
);
},
{
closed = 1;
nodes = (
(116,129,l),
(364,129,ls),
(443,129,o),
(554.286,176.571,o),
(620,278,o),
(620,350,qs),
(620,422,o),
(554.286,524.571,o),
(443,571,o),
(364,571,qs),
(116,571,l)
);
},
{
closed = 1;
nodes = (
(178,485,l),
(353,485,ls),
(411,485,o),
(480,454.571,o),
(520,394,o),
(520,350,qs),
(520,306,o),
(480,245.429,o),
(411,215,o),
(353,215,qs),
(178,215,l)
);
}
);
width = 660;
},
{
layerId = m006;
shapes = (
{
closed = 1;
nodes = (
(254,0,l),
(254,700,l),
(44,700,l),
(44,0,l)
);
},
{
closed = 1;
nodes = (
(64,122,l),
(380,122,ls),
(460,122,o),
(572,168,o),
(644,274,o),
(644,350,qs),
(644,426,o),
(572,534,o),
(460,578,o),
(380,578,qs),
(64,578,l)
);
},
{
closed = 1;
nodes = (
(254,424,l),
(320,424,ls),
(368,424,o),
(406,412,o),
(430,378,o),
(430,350,qs),
(430,322,o),
(406,288,o),
(368,276,o),
(320,276,qs),
(254,276,l)
);
}
);
width = 660;
},
{
layerId = m007;
shapes = (
{
closed = 1;
nodes = (
(140,0,l),
(140,700,l),
(100,700,l),
(100,0,l)
);
},
{
closed = 1;
nodes = (
(116,136,l),
(364,136,ls),
(439,136,o),
(546.572,185.143,o),
(610,283,o),
(610,350,qs),
(610,418,o),
(546.572,515.143,o),
(439,564,o),
(364,564,qs),
(116,564,l)
);
},
{
closed = 1;
nodes = (
(138,528,l),
(358,528,ls),
(425,528,o),
(516,487.143,o),
(570,406,o),
(570,350,qs),
(570,294,o),
(516,212.857,o),
(425,172,o),
(358,172,qs),
(138,172,l)
);
}
);
width = 660;
}
);
metricLeft = N;
metricRight = P;
unicode = 222;
},
{
glyphname = Q;
kernLeft = O;
kernRight = Q;
lastChange = "2025-11-12 08:00:40 +0000";
layers = (
{
layerId = m01;
shapes = (
{
closed = 1;
nodes = (
(614,-150,l),
(494,36,l),
(476,26,l),
(588,-150,l)
);
},
{
ref = O;
}
);
width = 720;
},
{
layerId = "CCD41F9B-A064-4484-B59C-AEE566599C6A";
shapes = (
{
closed = 1;
nodes = (
(676,-150,l),
(538,70,l),
(390,8,l),
(488,-150,l)
);
},
{
ref = O;
}
);
width = 720;
},
{
layerId = m003;
shapes = (
{
closed = 1;
nodes = (
(688,-150,l),
(559,70,l),
(395,8,l),
(485,-150,l)
);
},
{
ref = O;
}
);
width = 720;
},
{
layerId = m004;
shapes = (
{
closed = 1;
nodes = (
(649,-150,l),
(519,55,l),
(427,16,l),
(531,-150,l)
);
},
{
ref = O;
}
);
width = 720;
},
{
layerId = m006;
shapes = (
{
closed = 1;
nodes = (
(694,-150,l),
(570,70,l),
(398,8,l),
(484,-150,l)
);
},
{
ref = O;
}
);
width = 720;
},
{
layerId = m007;
shapes = (
{
closed = 1;
nodes = (
(624,-150,l),
(500,42,l),
(464,24,l),
(574,-150,l)
);
},
{
ref = O;
}
);
width = 720;
}
);
metricLeft = O;
metricRight = O;
unicode = 81;
},
{
glyphname = Q.ss02;
kernLeft = O;
kernRight = Q;
lastChange = "2025-11-12 08:00:40 +0000";
layers = (
{
layerId = m01;
shapes = (
{
ref = O;
},
{
closed = 1;
nodes = (
(640,-130,l),
(514,-130,ls),
(472,-130,o),
(434,-100,o),
(426,-72,qs),
(406,0,l),
(382,0,l),
(406,-80,ls),
(416,-114,o),
(466,-150,o),
(514,-150,qs),
(640,-150,l)
);
}
);
width = 720;
},
{
layerId = "CCD41F9B-A064-4484-B59C-AEE566599C6A";
shapes = (
{
ref = O;
},
{
closed = 1;
nodes = (
(640,-20,l),
(532,-20,ls),
(520,-20,o),
(506,-12,o),
(502,0,qs),
(484,60,l),
(308,60,l),
(350,-78,ls),
(362,-116,o),
(422,-150,o),
(480,-150,qs),
(640,-150,l)
);
}
);
width = 720;
},
{
layerId = m003;
shapes = (
{
ref = O;
},
{
closed = 1;
nodes = (
(640,-7,l),
(545,-7,ls),
(531,-7,o),
(518,0,o),
(514,12,qs),
(493,87,l),
(293,87,l),
(347,-74,ls),
(359,-111,o),
(421,-150,o),
(481,-150,qs),
(640,-150,l)
);
}
);
width = 720;
},
{
layerId = m004;
shapes = (
{
ref = O;
},
{
closed = 1;
nodes = (
(640,-67,l),
(524,-67,ls),
(499,-67,o),
(475,-50,o),
(469,-31,qs),
(451,34,l),
(340,34,l),
(374,-79,ls),
(385,-115,o),
(441,-150,o),
(495,-150,qs),
(640,-150,l)
);
}
);
width = 720;
},
{
layerId = m006;
shapes = (
{
ref = O;
},
{
closed = 1;
nodes = (
(640,0,l),
(552,0,ls),
(536,0,o),
(524,6,o),
(520,18,qs),
(498,100,l),
(286,100,l),
(346,-72,ls),
(358,-108,o),
(420,-150,o),
(482,-150,qs),
(640,-150,l)
);
}
);
width = 720;
},
{
layerId = m007;
shapes = (
{
ref = O;
},
{
closed = 1;
nodes = (
(640,-114,l),
(518,-114,ls),
(479,-114,o),
(444,-87,o),
(438,-62,qs),
(418,10,l),
(372,10,l),
(398,-80,ls),
(408,-114,o),
(460,-150,o),
(510,-150,qs),
(640,-150,l)
);
}
);
width = 720;
}
);
metricLeft = O;
metricRight = O;
},
{
glyphname = R;
kernLeft = I;
kernRight = R;
lastChange = "2025-11-12 08:00:40 +0000";
layers = (
{
anchors = (
{
name = bottom;
pos = (340,0);
},
{
name = top;
pos = (340,700);
}
);
layerId = m01;
shapes = (
{
closed = 1;
nodes = (
(124,0,l),
(124,312,l),
(362,312,l),
(588,0,l),
(612,0,l),
(386,312,l),
(458,312,o),
(546,358,o),
(598,452,o),
(598,506,qs),
(598,568,o),
(546,654,o),
(458,700,o),
(386,700,qs),
(104,700,l),
(104,0,l)
);
},
{
closed = 1;
nodes = (
(124,680,l),
(386,680,ls),
(452,680,o),
(530,640,o),
(578,562,o),
(578,506,qs),
(578,458,o),
(530,372,o),
(452,332,o),
(386,332,qs),
(124,332,l)
);
}
);
width = 680;
},
{
anchors = (
{
name = bottom;
pos = (340,0);
},
{
name = top;
pos = (340,700);
}
);
layerId = "CCD41F9B-A064-4484-B59C-AEE566599C6A";
shapes = (
{
closed = 1;
nodes = (
(228,0,l),
(228,260,l),
(302,260,l),
(466,0,l),
(646,0,l),
(470,272,l),
(504,280,o),
(574,330,o),
(620,414,o),
(620,480,qs),
(620,550,o),
(562,648,o),
(450,700,o),
(370,700,qs),
(68,700,l),
(68,0,l)
);
},
{
closed = 1;
nodes = (
(228,566,l),
(344,566,ls),
(384,566,o),
(432,550,o),
(460,508,o),
(460,480,qs),
(460,452,o),
(432,412,o),
(384,394,o),
(344,394,qs),
(228,394,l)
);
}
);
width = 680;
},
{
anchors = (
{
name = bottom;
pos = (340,0);
},
{
name = top;
pos = (340,700);
}
);
layerId = m003;
shapes = (
{
closed = 1;
nodes = (
(245,0,l),
(245,255,l),
(285,255,l),
(438,0,l),
(655,0,l),
(482,275,l),
(523,287,o),
(588.667,336.667,o),
(633,418,o),
(633,480,qs),
(633,546,o),
(571.333,648,o),
(455,700,o),
(370,700,qs),
(52,700,l),
(52,0,l)
);
},
{
closed = 1;
nodes = (
(245,555,l),
(337,555,ls),
(375,555,o),
(414.667,542,o),
(440,504,o),
(440,476,qs),
(440,448,o),
(414.667,410.667,o),
(375,397,o),
(337,397,qs),
(245,397,l)
);
}
);
width = 680;
},
{
anchors = (
{
name = bottom;
pos = (340,0);
},
{
name = top;
pos = (340,700);
}
);
layerId = m004;
shapes = (
{
closed = 1;
nodes = (
(183,0,l),
(183,282,l),
(328,282,l),
(518,0,l),
(631,0,l),
(434,289,l),
(485,294,o),
(562,342,o),
(611,430,o),
(611,491,qs),
(611,558,o),
(555.143,650.571,o),
(453,700,o),
(377,700,qs),
(83,700,l),
(83,0,l)
);
},
{
closed = 1;
nodes = (
(183,615,l),
(362,615,ls),
(413,615,o),
(474,588.571,o),
(511,531,o),
(511,491,qs),
(511,455,o),
(474,394.857,o),
(413,367,o),
(362,367,qs),
(183,367,l)
);
}
);
width = 680;
},
{
anchors = (
{
name = bottom;
pos = (340,0);
},
{
name = top;
pos = (340,700);
}
);
layerId = m006;
shapes = (
{
closed = 1;
nodes = (
(254,0,l),
(254,252,l),
(276,252,l),
(424,0,l),
(660,0,l),
(488,276,l),
(532,290,o),
(596,340,o),
(640,420,o),
(640,480,qs),
(640,544,o),
(576,648,o),
(458,700,o),
(370,700,qs),
(44,700,l),
(44,0,l)
);
},
{
closed = 1;
nodes = (
(254,550,l),
(334,550,ls),
(370,550,o),
(406,538,o),
(430,502,o),
(430,474,qs),
(430,446,o),
(406,410,o),
(370,398,o),
(334,398,qs),
(254,398,l)
);
}
);
width = 680;
},
{
anchors = (
{
name = bottom;
pos = (340,0);
},
{
name = top;
pos = (340,700);
}
);
layerId = m007;
shapes = (
{
closed = 1;
nodes = (
(140,0,l),
(140,306,l),
(354,306,l),
(572,0,l),
(618,0,l),
(398,306,l),
(464,307,o),
(550,354,o),
(601,447,o),
(602,502,qs),
(601,566,o),
(548.286,653.143,o),
(457,700,o),
(384,700,qs),
(100,700,l),
(100,0,l)
);
},
{
closed = 1;
nodes = (
(140,664,l),
(380,664,ls),
(442,664,o),
(516,627.143,o),
(561,554,o),
(562,502,qs),
(561,457,o),
(516,377.714,o),
(442,341,o),
(380,342,qs),
(140,342,l)
);
}
);
width = 680;
}
);
metricLeft = N;
unicode = 82;
userData = {
KernOnName = R;
};
},
{
glyphname = R.ss01;
kernLeft = I;
kernRight = R;
lastChange = "2025-11-12 08:00:40 +0000";
layers = (
{
anchors = (
{
name = bottom;
pos = (340,0);
},
{
name = top;
pos = (340,700);
}
);
layerId = m01;
shapes = (
{
closed = 1;
nodes = (
(124,0,l),
(124,312,l),
(446,312,ls),
(490,312,o),
(526,274,o),
(526,230,qs),
(526,124,ls),
(526,82,o),
(542,36,o),
(566,8,o),
(578,0,q),
(612,0,l),
(592,12,o),
(562,42,o),
(546,86,o),
(546,124,qs),
(546,230,ls),
(546,278,o),
(512,322,o),
(484,328,q),
(516,340,o),
(562,382,o),
(598,456,o),
(598,506,qs),
(598,568,o),
(546,654,o),
(458,700,o),
(386,700,qs),
(104,700,l),
(104,0,l)
);
},
{
closed = 1;
nodes = (
(124,680,l),
(386,680,ls),
(452,680,o),
(530,640,o),
(578,562,o),
(578,506,qs),
(578,458,o),
(530,372,o),
(452,332,o),
(386,332,qs),
(124,332,l)
);
}
);
width = 680;
},
{
anchors = (
{
name = bottom;
pos = (340,0);
},
{
name = top;
pos = (340,700);
}
);
layerId = "CCD41F9B-A064-4484-B59C-AEE566599C6A";
shapes = (
{
closed = 1;
nodes = (
(228,0,l),
(228,260,l),
(350,260,ls),
(394,260,o),
(430,224,o),
(430,180,qs),
(430,106,ls),
(430,72,o),
(438,34,o),
(456,8,o),
(470,0,q),
(646,0,l),
(630,16,o),
(600,52,o),
(590,86,o),
(590,106,qs),
(590,222,ls),
(590,258,o),
(550,304,o),
(518,314,q),
(540,324,o),
(584,360,o),
(620,426,o),
(620,480,qs),
(620,550,o),
(562,648,o),
(450,700,o),
(370,700,qs),
(68,700,l),
(68,0,l)
);
},
{
closed = 1;
nodes = (
(228,566,l),
(344,566,ls),
(384,566,o),
(432,550,o),
(460,508,o),
(460,480,qs),
(460,452,o),
(432,412,o),
(384,394,o),
(344,394,qs),
(228,394,l)
);
}
);
width = 680;
},
{
anchors = (
{
name = bottom;
pos = (340,0);
},
{
name = top;
pos = (340,700);
}
);
layerId = m003;
shapes = (
{
closed = 1;
nodes = (
(245,0,l),
(245,255,l),
(341,255,ls),
(375,255,o),
(405,225,o),
(405,191,qs),
(405,113,ls),
(405,75,o),
(414,34,o),
(433,8,o),
(447,0,q),
(655,0,l),
(638,20,o),
(613.333,48,o),
(598,85,o),
(598,117,qs),
(598,221,ls),
(598,259,o),
(564,308,o),
(534,319,q),
(558,330,o),
(601.333,364,o),
(633,427,o),
(633,485,qs),
(633,549,o),
(571.333,648,o),
(455,700,o),
(370,700,qs),
(52,700,l),
(52,0,l)
);
},
{
closed = 1;
nodes = (
(245,555,l),
(337,555,ls),
(375,555,o),
(414.667,542,o),
(440,504,o),
(440,476,qs),
(440,448,o),
(414.667,410.667,o),
(375,397,o),
(337,397,qs),
(245,397,l)
);
}
);
width = 680;
},
{
anchors = (
{
name = bottom;
pos = (340,0);
},
{
name = top;
pos = (340,700);
}
);
layerId = m004;
shapes = (
{
closed = 1;
nodes = (
(183,0,l),
(183,282,l),
(391,282,ls),
(435,282,o),
(471,245,o),
(471,201,qs),
(471,114,ls),
(471,76,o),
(482.571,34.857,o),
(503,8,o),
(516,0,q),
(631,0,l),
(614,14,o),
(583.714,47.714,o),
(571,86,o),
(571,114,qs),
(571,225,ls),
(571,267,o),
(533,312,o),
(503,320,q),
(530,331,o),
(574.571,369.429,o),
(611,439,o),
(611,491,qs),
(611,558,o),
(555.143,650.571,o),
(453,700,o),
(377,700,qs),
(83,700,l),
(83,0,l)
);
},
{
closed = 1;
nodes = (
(183,615,l),
(362,615,ls),
(413,615,o),
(474,588.571,o),
(511,531,o),
(511,491,qs),
(511,455,o),
(474,394.857,o),
(413,367,o),
(362,367,qs),
(183,367,l)
);
}
);
width = 680;
},
{
anchors = (
{
name = bottom;
pos = (340,0);
},
{
name = top;
pos = (340,700);
}
);
layerId = m006;
shapes = (
{
closed = 1;
nodes = (
(254,0,l),
(254,252,l),
(336,252,ls),
(366,252,o),
(392,226,o),
(392,196,qs),
(392,116,ls),
(392,76,o),
(402,34,o),
(422,8,o),
(436,0,q),
(660,0,l),
(642,22,o),
(620,46,o),
(602,84,o),
(602,122,qs),
(602,220,ls),
(602,260,o),
(572,310,o),
(542,322,q),
(568,334,o),
(610,366,o),
(640,428,o),
(640,488,qs),
(640,548,o),
(576,648,o),
(458,700,o),
(370,700,qs),
(44,700,l),
(44,0,l)
);
},
{
closed = 1;
nodes = (
(254,550,l),
(334,550,ls),
(370,550,o),
(406,538,o),
(430,502,o),
(430,474,qs),
(430,446,o),
(406,410,o),
(370,398,o),
(334,398,qs),
(254,398,l)
);
}
);
width = 680;
},
{
anchors = (
{
name = bottom;
pos = (340,0);
},
{
name = top;
pos = (340,700);
}
);
layerId = m007;
shapes = (
{
closed = 1;
nodes = (
(140,0,l),
(140,306,l),
(432,306,ls),
(476,305,o),
(512,267,o),
(512,224,qs),
(512,122,ls),
(512,81,o),
(527.143,35.714,o),
(551,8,o),
(564,0,q),
(618,0,l),
(597,13,o),
(567.428,43.428,o),
(552,86,o),
(552,122,qs),
(552,230,ls),
(552,275,o),
(516,320,o),
(490,326,q),
(520,338,o),
(565.143,378.857,o),
(601,452,o),
(602,502,qs),
(601,566,o),
(548.286,653.143,o),
(457,700,o),
(384,700,qs),
(100,700,l),
(100,0,l)
);
},
{
closed = 1;
nodes = (
(140,664,l),
(380,664,ls),
(442,664,o),
(516,627.143,o),
(561,554,o),
(562,502,qs),
(561,457,o),
(516,377.714,o),
(442,341,o),
(380,342,qs),
(140,342,l)
);
}
);
width = 680;
}
);
metricLeft = N;
metricRight = R;
userData = {
KernOnName = R;
};
},
{
glyphname = S;
kernLeft = S;
kernRight = S;
lastChange = "2025-11-12 08:00:40 +0000";
layers = (
{
anchors = (
{
name = bottom;
pos = (330,0);
},
{
name = top;
pos = (330,700);
}
);
layerId = m01;
shapes = (
{
closed = 1;
nodes = (
(408,-12,o),
(516,24,o),
(580,110,o),
(580,176,qs),
(580,232,o),
(534,304,o),
(450,342,o),
(362,358,qs),
(282,372,ls),
(204,386,o),
(140,418,o),
(108,478,o),
(108,526,qs),
(108,578,o),
(166,656,o),
(266,692,o),
(330,692,qs),
(392,692,o),
(490,656,o),
(548,582,o),
(550,530,q),
(570,530,l),
(568,590,o),
(504,672,o),
(398,712,o),
(330,712,qs),
(260,712,o),
(152,672,o),
(88,584,o),
(88,526,qs),
(88,470,o),
(126,404,o),
(192,368,o),
(276,354,qs),
(356,340,ls),
(436,326,o),
(518,290,o),
(560,226,o),
(560,176,qs),
(560,116,o),
(502,40,o),
(402,8,o),
(336,8,qs),
(270,8,o),
(166,36,o),
(102,104,o),
(100,170,q),
(80,170,l),
(82,98,o),
(152,20,o),
(264,-12,o),
(336,-12,qs)
);
}
);
width = 660;
},
{
anchors = (
{
name = bottom;
pos = (330,0);
},
{
name = top;
pos = (330,700);
}
);
layerId = "CCD41F9B-A064-4484-B59C-AEE566599C6A";
shapes = (
{
closed = 1;
nodes = (
(418,-12,o),
(540,30,o),
(618,132,o),
(618,210,qs),
(618,268,o),
(570,356,o),
(474,410,o),
(406,420,qs),
(290,438,ls),
(252,444,o),
(224,458,o),
(208,486,o),
(208,508,qs),
(208,532,o),
(238,564,o),
(286,580,o),
(330,580,qs),
(370,580,o),
(418,562,o),
(444,520,o),
(446,490,q),
(600,490,l),
(598,566,o),
(528,666,o),
(410,712,o),
(330,712,qs),
(242,712,o),
(118,658,o),
(48,562,o),
(48,492,qs),
(48,426,o),
(90,346,o),
(172,298,o),
(240,288,qs),
(356,270,ls),
(394,264,o),
(436,248,o),
(458,218,o),
(458,194,qs),
(458,166,o),
(430,136,o),
(380,120,o),
(330,120,qs),
(278,120,o),
(224,140,o),
(198,180,o),
(196,210,q),
(42,210,l),
(44,130,o),
(122,30,o),
(242,-12,o),
(330,-12,qs)
);
}
);
width = 660;
},
{
anchors = (
{
name = bottom;
pos = (330,0);
},
{
name = top;
pos = (330,700);
}
);
layerId = m003;
shapes = (
{
closed = 1;
nodes = (
(429,-12,o),
(550.667,32.667,o),
(627,136,o),
(627,215,qs),
(627,277,o),
(579.333,366.667,o),
(490,415,o),
(426,425,qs),
(307,443,ls),
(266,449,o),
(241.333,462,o),
(227,485,o),
(227,503,qs),
(227,521,o),
(248.667,549.333,o),
(289,564,o),
(325,564,qs),
(361,564,o),
(402,547.333,o),
(425,514,o),
(426,483,q),
(613,483,l),
(611,562,o),
(534.667,667.333,o),
(409,712,o),
(325,712,qs),
(235,712,o),
(106,656.667,o),
(35,555,o),
(35,483,qs),
(35,418,o),
(76.667,339.333,o),
(154,291,o),
(221,280,qs),
(359,258,ls),
(391,253,o),
(421.333,237.333,o),
(435,214,o),
(435,194,qs),
(435,174,o),
(412.667,148,o),
(371,136,o),
(330,136,qs),
(289,136,o),
(246.667,153.333,o),
(225,186,o),
(223,217,q),
(35,217,l),
(37,136,o),
(110,35.333,o),
(237,-12,o),
(333,-12,qs)
);
}
);
width = 660;
},
{
anchors = (
{
name = bottom;
pos = (330,0);
},
{
name = top;
pos = (330,700);
}
);
layerId = m004;
shapes = (
{
closed = 1;
nodes = (
(414,-12,o),
(529.714,27.429,o),
(602,123,o),
(602,195,qs),
(602,253,o),
(554.571,333.714,o),
(463,381,o),
(387,393,qs),
(287,410,ls),
(232,419,o),
(188,440.857,o),
(165,483,o),
(165,516,qs),
(165,552,o),
(207.143,603.429,o),
(277,628,o),
(330,628,qs),
(379,628,o),
(448.857,602.286,o),
(489,546,o),
(491,507,q),
(587,507,l),
(585,576,o),
(517.714,668.571,o),
(405,712,o),
(330,712,qs),
(250,712,o),
(132.571,664,o),
(65,571,o),
(65,507,qs),
(65,445,o),
(105.429,370.857,o),
(180,328,o),
(255,316,qs),
(356,300,ls),
(411,291,o),
(471.143,266,o),
(502,221,o),
(502,186,qs),
(502,145,o),
(460.857,94.857,o),
(389,72,o),
(333,72,qs),
(275,72,o),
(199.143,95.429,o),
(157,148,o),
(155,193,q),
(58,193,l),
(60,116,o),
(134.857,25.714,o),
(251,-12,o),
(333,-12,qs)
);
}
);
width = 660;
},
{
anchors = (
{
name = bottom;
pos = (330,0);
},
{
name = top;
pos = (330,700);
}
);
layerId = m006;
shapes = (
{
closed = 1;
nodes = (
(434,-12,o),
(556,34,o),
(632,138,o),
(632,218,qs),
(632,282,o),
(584,372,o),
(498,418,o),
(436,428,qs),
(316,446,ls),
(274,452,o),
(250,464,o),
(236,484,o),
(236,500,qs),
(236,516,o),
(254,542,o),
(290,556,o),
(322,556,qs),
(356,556,o),
(394,540,o),
(416,510,o),
(416,480,q),
(620,480,l),
(618,560,o),
(538,668,o),
(408,712,o),
(322,712,qs),
(232,712,o),
(100,656,o),
(28,552,o),
(28,478,qs),
(28,414,o),
(70,336,o),
(144,288,o),
(212,276,qs),
(360,252,ls),
(388,248,o),
(414,232,o),
(424,212,o),
(424,194,qs),
(424,178,o),
(404,154,o),
(366,144,o),
(330,144,qs),
(294,144,o),
(258,160,o),
(238,188,o),
(236,220,q),
(32,220,l),
(34,138,o),
(104,38,o),
(234,-12,o),
(334,-12,qs)
);
}
);
width = 660;
},
{
anchors = (
{
name = bottom;
pos = (330,0);
},
{
name = top;
pos = (330,700);
}
);
layerId = m007;
shapes = (
{
closed = 1;
nodes = (
(410,-12,o),
(519.428,24.857,o),
(586,113,o),
(586,182,qs),
(586,237,o),
(539.143,311.428,o),
(453,352,o),
(368,368,qs),
(284,382,ls),
(212,394,o),
(152,423.714,o),
(122,479,o),
(122,524,qs),
(122,572,o),
(176.286,642.857,o),
(269,676,o),
(330,676,qs),
(389,676,o),
(479.714,642.572,o),
(533,573,o),
(536,524,q),
(574,524,l),
(572,586,o),
(507.428,671.143,o),
(400,712,o),
(330,712,qs),
(258,712,o),
(147.143,670,o),
(82,581,o),
(82,522,qs),
(82,464,o),
(120.857,395.714,o),
(189,358,o),
(272,346,qs),
(356,330,ls),
(431,317,o),
(506.286,284,o),
(546,225,o),
(546,180,qs),
(546,123,o),
(491.714,53.714,o),
(399,24,o),
(336,24,qs),
(271,24,o),
(174.286,50.857,o),
(116,115,o),
(114,176,q),
(76,176,l),
(77,103,o),
(147.714,21.428,o),
(261,-12,o),
(336,-12,qs)
);
}
);
width = 660;
}
);
unicode = 83;
userData = {
KernOnName = S;
};
},
{
glyphname = Germandbls;
kernLeft = I;
kernRight = S;
lastChange = "2025-11-12 08:00:40 +0000";
layers = (
{
layerId = m01;
shapes = (
{
closed = 1;
nodes = (
(494,0,o),
(574,30,o),
(626,96,o),
(626,150,qs),
(626,208,o),
(564,282,o),
(498,308,qs),
(452,326,ls),
(412,342,o),
(378,392,o),
(378,422,qs),
(378,456,o),
(416,516,o),
(436,540,qs),
(568,690,l),
(568,700,l),
(104,700,l),
(104,0,l),
(124,0,l),
(124,680,l),
(538,680,l),
(422,554,ls),
(396,524,o),
(358,460,o),
(358,422,qs),
(358,386,o),
(398,326,o),
(444,308,qs),
(490,290,ls),
(554,266,o),
(606,200,o),
(606,150,qs),
(606,102,o),
(560,46,o),
(488,20,o),
(436,20,qs),
(322,20,l),
(322,0,l),
(436,0,ls)
);
}
);
width = 680;
},
{
layerId = "CCD41F9B-A064-4484-B59C-AEE566599C6A";
shapes = (
{
closed = 1;
nodes = (
(544,0,o),
(618,44,o),
(650,118,o),
(650,168,qs),
(650,226,o),
(600,310,o),
(548,350,qs),
(498,388,ls),
(482,400,o),
(468,420,o),
(468,434,qs),
(468,450,o),
(484,476,o),
(496,488,qs),
(606,602,l),
(606,700,l),
(68,700,l),
(68,0,l),
(228,0,l),
(228,564,l),
(398,564,l),
(350,516,ls),
(324,490,o),
(298,436,o),
(298,404,qs),
(298,368,o),
(338,300,o),
(380,272,qs),
(450,226,ls),
(472,212,o),
(494,182,o),
(494,168,qs),
(494,154,o),
(482,138,o),
(462,130,o),
(444,130,qs),
(300,130,l),
(300,0,l),
(456,0,ls)
);
}
);
width = 680;
},
{
layerId = m003;
shapes = (
{
closed = 1;
nodes = (
(529,0,o),
(614,41.333,o),
(659,121,o),
(659,180,qs),
(659,233,o),
(609,315,o),
(560,345,qs),
(510,375,ls),
(494,384,o),
(480,404,o),
(480,421,qs),
(480,438,o),
(495,465,o),
(513,483,qs),
(614,589,l),
(614,700,l),
(52,700,l),
(52,0,l),
(245,0,l),
(245,557,l),
(387,557,l),
(346,511,ls),
(320,482,o),
(293,419,o),
(293,383,qs),
(293,339,o),
(329,276,o),
(365,255,qs),
(426,219,ls),
(447,207,o),
(461,187,o),
(461,175,qs),
(461,162,o),
(450,147.333,o),
(431,141,o),
(413,141,qs),
(296,141,l),
(296,0,l),
(449,0,ls)
);
}
);
width = 680;
},
{
layerId = m004;
shapes = (
{
closed = 1;
nodes = (
(523,0,o),
(599.143,38,o),
(640,109,o),
(640,160,qs),
(640,218,o),
(585,298,o),
(527,332,qs),
(478,361,ls),
(452,375,o),
(429,408,o),
(429,429,qs),
(429,453,o),
(455,493,o),
(470,510,qs),
(590,640,l),
(590,700,l),
(83,700,l),
(83,0,l),
(183,0,l),
(183,614,l),
(458,614,l),
(381,532,ls),
(355,505,o),
(324,446,o),
(324,412,qs),
(324,376,o),
(364,311,o),
(407,287,qs),
(467,253,ls),
(506,235,o),
(542,190,o),
(542,160,qs),
(542,132,o),
(515.429,98.571,o),
(473,83,o),
(441,83,qs),
(309,83,l),
(309,0,l),
(447,0,ls)
);
}
);
width = 680;
},
{
layerId = m006;
shapes = (
{
closed = 1;
nodes = (
(522,0,o),
(612,40,o),
(664,122,o),
(664,186,qs),
(664,236,o),
(612,318,o),
(566,342,qs),
(516,368,ls),
(500,376,o),
(486,396,o),
(486,414,qs),
(486,432,o),
(502,460,o),
(522,480,qs),
(618,582,l),
(618,700,l),
(44,700,l),
(44,0,l),
(254,0,l),
(254,554,l),
(382,554,l),
(344,508,ls),
(318,478,o),
(290,410,o),
(290,372,qs),
(290,324,o),
(324,264,o),
(358,246,qs),
(414,216,ls),
(436,204,o),
(444,190,o),
(444,178,qs),
(444,166,o),
(434,152,o),
(416,146,o),
(398,146,qs),
(294,146,l),
(294,0,l),
(446,0,ls)
);
}
);
width = 680;
},
{
layerId = m007;
shapes = (
{
closed = 1;
nodes = (
(501,0,o),
(580.286,32,o),
(630,99,o),
(630,154,qs),
(630,211,o),
(569,286,o),
(506,314,qs),
(460,336,ls),
(421,351,o),
(391,396,o),
(392,424,qs),
(391,455,o),
(426,510,o),
(446,534,qs),
(574,678,l),
(574,700,l),
(100,700,l),
(100,0,l),
(140,0,l),
(140,664,l),
(518,664,l),
(412,550,ls),
(386,520,o),
(350,457,o),
(350,420,qs),
(350,384,o),
(389,323,o),
(436,304,qs),
(484,282,ls),
(543,258,o),
(590,198,o),
(590,154,qs),
(590,110,o),
(548.857,59.143,o),
(484,36,o),
(438,36,qs),
(320,36,l),
(320,0,l),
(440,0,ls)
);
}
);
width = 680;
}
);
metricLeft = N;
metricRight = P;
unicode = 7838;
},
{
glyphname = T;
kernLeft = T;
kernRight = T;
lastChange = "2025-11-12 08:00:37 +0000";
layers = (
{
anchors = (
{
name = bottom;
pos = (340,0);
},
{
name = top;
pos = (340,700);
}
);
layerId = m01;
shapes = (
{
closed = 1;
nodes = (
(350,0,l),
(350,680,l),
(640,680,l),
(640,700,l),
(40,700,l),
(40,680,l),
(330,680,l),
(330,0,l)
);
}
);
width = 680;
},
{
anchors = (
{
name = bottom;
pos = (340,0);
},
{
name = top;
pos = (340,700);
}
);
layerId = "CCD41F9B-A064-4484-B59C-AEE566599C6A";
shapes = (
{
closed = 1;
nodes = (
(422,0,l),
(422,560,l),
(660,560,l),
(660,700,l),
(20,700,l),
(20,560,l),
(260,560,l),
(260,0,l)
);
}
);
width = 680;
},
{
anchors = (
{
name = bottom;
pos = (340,0);
},
{
name = top;
pos = (340,700);
}
);
layerId = m003;
shapes = (
{
closed = 1;
nodes = (
(438,0,l),
(438,540,l),
(667,540,l),
(667,700,l),
(13,700,l),
(13,540,l),
(244,540,l),
(244,0,l)
);
}
);
width = 680;
},
{
anchors = (
{
name = bottom;
pos = (340,0);
},
{
name = top;
pos = (340,700);
}
);
layerId = m004;
shapes = (
{
closed = 1;
nodes = (
(390,0,l),
(390,612,l),
(650,612,l),
(650,700,l),
(30,700,l),
(30,612,l),
(290,612,l),
(290,0,l)
);
}
);
width = 680;
},
{
anchors = (
{
name = bottom;
pos = (340,0);
},
{
name = top;
pos = (340,700);
}
);
layerId = m006;
shapes = (
{
closed = 1;
nodes = (
(446,0,l),
(446,530,l),
(670,530,l),
(670,700,l),
(10,700,l),
(10,530,l),
(236,530,l),
(236,0,l)
);
}
);
width = 680;
},
{
anchors = (
{
name = bottom;
pos = (340,0);
},
{
name = top;
pos = (340,700);
}
);
layerId = m007;
shapes = (
{
closed = 1;
nodes = (
(360,0,l),
(360,663,l),
(643,663,l),
(643,700,l),
(38,700,l),
(38,663,l),
(320,663,l),
(320,0,l)
);
}
);
width = 680;
}
);
unicode = 84;
userData = {
KernOnName = T;
};
},
{
glyphname = U;
kernLeft = U;
kernRight = U;
lastChange = "2025-11-12 08:00:40 +0000";
layers = (
{
anchors = (
{
name = bottom;
pos = (360,0);
},
{
name = ogonek;
pos = (410,0);
},
{
name = top;
pos = (360,700);
}
);
layerId = m01;
shapes = (
{
closed = 1;
nodes = (
(452,-12,o),
(564,50,o),
(624,164,o),
(624,250,qs),
(624,700,l),
(604,700,l),
(604,250,ls),
(604,170,o),
(550,64,o),
(446,8,o),
(360,8,qs),
(274,8,o),
(172,64,o),
(116,170,o),
(116,250,qs),
(116,700,l),
(96,700,l),
(96,250,ls),
(96,164,o),
(158,50,o),
(268,-12,o),
(360,-12,qs)
);
}
);
width = 720;
},
{
anchors = (
{
name = bottom;
pos = (360,0);
},
{
name = ogonek;
pos = (340,0);
},
{
name = top;
pos = (360,700);
}
);
layerId = "CCD41F9B-A064-4484-B59C-AEE566599C6A";
shapes = (
{
closed = 1;
nodes = (
(442,-12,o),
(572,40,o),
(656,168,o),
(656,280,qs),
(656,700,l),
(496,700,l),
(496,284,ls),
(496,222,o),
(462,158,o),
(404,128,o),
(360,128,qs),
(316,128,o),
(260,158,o),
(224,222,o),
(224,284,qs),
(224,700,l),
(64,700,l),
(64,280,ls),
(64,168,o),
(148,40,o),
(278,-12,o),
(360,-12,qs)
);
}
);
width = 720;
},
{
anchors = (
{
name = bottom;
pos = (360,0);
},
{
name = ogonek;
pos = (327,0);
},
{
name = top;
pos = (360,700);
}
);
layerId = m003;
shapes = (
{
closed = 1;
nodes = (
(449,-12,o),
(584,40,o),
(672,169,o),
(672,284,qs),
(672,700,l),
(479,700,l),
(479,297,ls),
(479,230,o),
(448.667,174,o),
(399,148,o),
(360,148,qs),
(321,148,o),
(273.333,174,o),
(241,230,o),
(241,297,qs),
(241,700,l),
(48,700,l),
(48,284,ls),
(48,169,o),
(138.667,40,o),
(271,-12,o),
(360,-12,qs)
);
}
);
width = 720;
},
{
anchors = (
{
name = bottom;
pos = (360,0);
},
{
name = ogonek;
pos = (370,0);
},
{
name = top;
pos = (360,700);
}
);
layerId = m004;
shapes = (
{
closed = 1;
nodes = (
(446,-12,o),
(568.571,44.286,o),
(642,166,o),
(642,267,qs),
(642,700,l),
(542,700,l),
(542,269,ls),
(542,200,o),
(499.714,117.714,o),
(422,77,o),
(360,77,qs),
(298,77,o),
(222.286,117.714,o),
(178,200,o),
(178,269,qs),
(178,700,l),
(78,700,l),
(78,267,ls),
(78,166,o),
(152.286,44.286,o),
(274,-12,o),
(360,-12,qs)
);
}
);
width = 720;
},
{
anchors = (
{
name = bottom;
pos = (360,0);
},
{
name = ogonek;
pos = (320,0);
},
{
name = top;
pos = (360,700);
}
);
layerId = m006;
shapes = (
{
closed = 1;
nodes = (
(452,-12,o),
(590,40,o),
(680,170,o),
(680,286,qs),
(680,700,l),
(470,700,l),
(470,304,ls),
(470,234,o),
(442,182,o),
(396,158,o),
(360,158,qs),
(324,158,o),
(280,182,o),
(250,234,o),
(250,304,qs),
(250,700,l),
(40,700,l),
(40,286,ls),
(40,170,o),
(134,40,o),
(268,-12,o),
(360,-12,qs)
);
}
);
width = 720;
},
{
anchors = (
{
name = bottom;
pos = (360,0);
},
{
name = ogonek;
pos = (400,0);
},
{
name = top;
pos = (360,700);
}
);
layerId = m007;
shapes = (
{
closed = 1;
nodes = (
(451,-12,o),
(565.143,48.572,o),
(629,165,o),
(630,254,qs),
(630,700,l),
(590,700,l),
(590,256,ls),
(589,178,o),
(537.428,77.428,o),
(440,25,o),
(360,26,qs),
(280,25,o),
(184.572,77.428,o),
(132,178,o),
(132,256,qs),
(132,700,l),
(92,700,l),
(92,254,ls),
(92,165,o),
(156.572,48.572,o),
(270,-12,o),
(360,-12,qs)
);
}
);
width = 720;
}
);
unicode = 85;
},
{
glyphname = V;
kernLeft = V;
kernRight = V;
lastChange = "2025-11-12 08:00:40 +0000";
layers = (
{
anchors = (
{
name = bottom;
pos = (350,0);
},
{
name = top;
pos = (350,700);
}
);
layerId = m01;
shapes = (
{
closed = 1;
nodes = (
(364,0,l),
(660,700,l),
(638,700,l),
(350,24,l),
(62,700,l),
(40,700,l),
(336,0,l)
);
}
);
width = 700;
},
{
anchors = (
{
name = bottom;
pos = (350,0);
},
{
name = top;
pos = (350,700);
}
);
layerId = "CCD41F9B-A064-4484-B59C-AEE566599C6A";
shapes = (
{
closed = 1;
nodes = (
(456,0,l),
(680,700,l),
(514,700,l),
(354,160,l),
(196,700,l),
(20,700,l),
(244,0,l)
);
}
);
width = 700;
},
{
anchors = (
{
name = bottom;
pos = (350,0);
},
{
name = top;
pos = (350,700);
}
);
layerId = m003;
shapes = (
{
closed = 1;
nodes = (
(472,0,l),
(687,700,l),
(497,700,l),
(354,187,l),
(212,700,l),
(13,700,l),
(228,0,l)
);
}
);
width = 700;
},
{
anchors = (
{
name = bottom;
pos = (350,0);
},
{
name = top;
pos = (350,700);
}
);
layerId = m004;
shapes = (
{
closed = 1;
nodes = (
(417,0,l),
(670,700,l),
(566,700,l),
(352,102,l),
(139,700,l),
(29,700,l),
(283,0,l)
);
}
);
width = 700;
},
{
anchors = (
{
name = bottom;
pos = (350,0);
},
{
name = top;
pos = (350,700);
}
);
layerId = m006;
shapes = (
{
closed = 1;
nodes = (
(480,0,l),
(690,700,l),
(488,700,l),
(354,200,l),
(220,700,l),
(10,700,l),
(220,0,l)
);
}
);
width = 700;
},
{
anchors = (
{
name = bottom;
pos = (350,0);
},
{
name = top;
pos = (350,700);
}
);
layerId = m007;
shapes = (
{
closed = 1;
nodes = (
(378,0,l),
(664,700,l),
(620,700,l),
(352,44,l),
(82,700,l),
(38,700,l),
(324,0,l)
);
}
);
width = 700;
}
);
metricLeft = X;
metricRight = X;
unicode = 86;
userData = {
KernOnName = V;
};
},
{
glyphname = W;
kernLeft = W;
kernRight = W;
lastChange = "2025-11-12 08:00:40 +0000";
layers = (
{
anchors = (
{
name = bottom;
pos = (500,0);
},
{
name = top;
pos = (500,700);
}
);
layerId = m01;
shapes = (
{
closed = 1;
nodes = (
(290,0,l),
(500,668,l),
(710,0,l),
(738,0,l),
(960,700,l),
(940,700,l),
(724,22,l),
(510,700,l),
(490,700,l),
(276,22,l),
(62,700,l),
(40,700,l),
(262,0,l)
);
}
);
width = 1000;
},
{
anchors = (
{
name = bottom;
pos = (500,0);
},
{
name = top;
pos = (500,700);
}
);
layerId = "CCD41F9B-A064-4484-B59C-AEE566599C6A";
shapes = (
{
closed = 1;
nodes = (
(402,0,l),
(500,440,l),
(594,0,l),
(808,0,l),
(980,700,l),
(822,700,l),
(704,160,l),
(590,700,l),
(424,700,l),
(310,160,l),
(192,700,l),
(20,700,l),
(192,0,l)
);
}
);
width = 1000;
},
{
anchors = (
{
name = bottom;
pos = (500,0);
},
{
name = top;
pos = (500,700);
}
);
layerId = m003;
shapes = (
{
closed = 1;
nodes = (
(415,0,l),
(497,413,l),
(581,0,l),
(823,0,l),
(987,700,l),
(811,700,l),
(705,187,l),
(605,700,l),
(405,700,l),
(307,187,l),
(205,700,l),
(13,700,l),
(177,0,l)
);
}
);
width = 1000;
},
{
anchors = (
{
name = bottom;
pos = (500,0);
},
{
name = top;
pos = (500,700);
}
);
layerId = m004;
shapes = (
{
closed = 1;
nodes = (
(354,0,l),
(500,538,l),
(644,0,l),
(778,0,l),
(970,700,l),
(872,700,l),
(713,101,l),
(556,700,l),
(452,700,l),
(295,101,l),
(136,700,l),
(29,700,l),
(222,0,l)
);
}
);
width = 1000;
},
{
anchors = (
{
name = bottom;
pos = (500,0);
},
{
name = top;
pos = (500,700);
}
);
layerId = m006;
shapes = (
{
closed = 1;
nodes = (
(422,0,l),
(496,400,l),
(574,0,l),
(830,0,l),
(990,700,l),
(806,700,l),
(706,200,l),
(612,700,l),
(396,700,l),
(306,200,l),
(212,700,l),
(10,700,l),
(170,0,l)
);
}
);
width = 1000;
},
{
anchors = (
{
name = bottom;
pos = (500,0);
},
{
name = top;
pos = (500,700);
}
);
layerId = m007;
shapes = (
{
closed = 1;
nodes = (
(306,0,l),
(500,636,l),
(694,0,l),
(748,0,l),
(964,700,l),
(923,700,l),
(722,42,l),
(522,700,l),
(482,700,l),
(282,42,l),
(82,700,l),
(38,700,l),
(252,0,l)
);
}
);
width = 1000;
}
);
metricLeft = X;
metricRight = X;
unicode = 87;
},
{
glyphname = X;
kernLeft = X;
kernRight = X;
lastChange = "2025-11-12 08:00:37 +0000";
layers = (
{
anchors = (
{
name = bottom;
pos = (360,0);
},
{
name = top;
pos = (360,700);
}
);
layerId = m01;
shapes = (
{
closed = 1;
nodes = (
(66,0,l),
(360,344,l),
(654,0,l),
(680,0,l),
(374,358,l),
(666,700,l),
(640,700,l),
(360,372,l),
(80,700,l),
(54,700,l),
(346,358,l),
(40,0,l)
);
}
);
width = 720;
},
{
anchors = (
{
name = bottom;
pos = (360,0);
},
{
name = top;
pos = (360,700);
}
);
layerId = "CCD41F9B-A064-4484-B59C-AEE566599C6A";
shapes = (
{
closed = 1;
nodes = (
(200,0,l),
(354,246,l),
(508,0,l),
(700,0,l),
(466,356,l),
(692,700,l),
(512,700,l),
(358,462,l),
(216,700,l),
(24,700,l),
(250,348,l),
(20,0,l)
);
}
);
width = 720;
},
{
anchors = (
{
name = bottom;
pos = (360,0);
},
{
name = top;
pos = (360,700);
}
);
layerId = m003;
shapes = (
{
closed = 1;
nodes = (
(221,0,l),
(350,221,l),
(479,0,l),
(707,0,l),
(489,360,l),
(699,700,l),
(491,700,l),
(365,489,l),
(245,700,l),
(17,700,l),
(230,348,l),
(13,0,l)
);
}
);
width = 720;
},
{
anchors = (
{
name = bottom;
pos = (360,0);
},
{
name = top;
pos = (360,700);
}
);
layerId = m004;
shapes = (
{
closed = 1;
nodes = (
(143,0,l),
(358,288,l),
(570,0,l),
(690,0,l),
(428,358,l),
(680,700,l),
(566,700,l),
(360,424,l),
(158,700,l),
(37,700,l),
(292,352,l),
(29,0,l)
);
}
);
width = 720;
},
{
anchors = (
{
name = bottom;
pos = (360,0);
},
{
name = top;
pos = (360,700);
}
);
layerId = m006;
shapes = (
{
closed = 1;
nodes = (
(232,0,l),
(348,208,l),
(464,0,l),
(710,0,l),
(500,362,l),
(702,700,l),
(480,700,l),
(368,502,l),
(260,700,l),
(14,700,l),
(220,348,l),
(10,0,l)
);
}
);
width = 720;
},
{
anchors = (
{
name = bottom;
pos = (360,0);
},
{
name = top;
pos = (360,700);
}
);
layerId = m007;
shapes = (
{
closed = 1;
nodes = (
(85,0,l),
(360,330,l),
(633,0,l),
(683,0,l),
(388,358,l),
(670,700,l),
(622,700,l),
(360,385,l),
(100,700,l),
(50,700,l),
(333,357,l),
(37,0,l)
);
}
);
width = 720;
}
);
unicode = 88;
userData = {
KernOnName = X;
};
},
{
glyphname = Y;
kernLeft = Y;
kernRight = Y;
lastChange = "2025-11-12 17:26:16 +0000";
layers = (
{
anchors = (
{
name = bottom;
pos = (340,0);
},
{
name = top;
pos = (340,700);
}
);
layerId = m01;
shapes = (
{
closed = 1;
nodes = (
(350,0,l),
(350,268,l),
(640,700,l),
(616,700,l),
(340,290,l),
(64,700,l),
(40,700,l),
(330,268,l),
(330,0,l)
);
}
);
width = 680;
},
{
anchors = (
{
name = bottom;
pos = (340,0);
},
{
name = top;
pos = (340,700);
}
);
layerId = "CCD41F9B-A064-4484-B59C-AEE566599C6A";
shapes = (
{
closed = 1;
nodes = (
(422,0,l),
(422,288,l),
(660,700,l),
(490,700,l),
(348,440,l),
(208,700,l),
(20,700,l),
(260,288,l),
(260,0,l)
);
}
);
width = 680;
},
{
anchors = (
{
name = bottom;
pos = (340,0);
},
{
name = top;
pos = (340,700);
}
);
layerId = m003;
shapes = (
{
closed = 1;
nodes = (
(440,0,l),
(440,276,l),
(668,700,l),
(472,700,l),
(352,460,l),
(232,700,l),
(14,700,l),
(244,276,l),
(244,0,l)
);
}
);
width = 680;
},
{
anchors = (
{
name = bottom;
pos = (340,0);
},
{
name = top;
pos = (340,700);
}
);
layerId = m004;
shapes = (
{
closed = 1;
nodes = (
(392,0,l),
(392,280,l),
(650,700,l),
(542,700,l),
(346,376,l),
(146,700,l),
(30,700,l),
(290,280,l),
(290,0,l)
);
}
);
width = 680;
},
{
anchors = (
{
name = bottom;
pos = (340,0);
},
{
name = top;
pos = (340,700);
}
);
layerId = m006;
shapes = (
{
closed = 1;
nodes = (
(448,0,l),
(448,268,l),
(670,700,l),
(462,700,l),
(352,470,l),
(244,700,l),
(10,700,l),
(234,268,l),
(234,0,l)
);
}
);
width = 680;
},
{
anchors = (
{
name = bottom;
pos = (340,0);
},
{
name = top;
pos = (340,700);
}
);
layerId = m007;
shapes = (
{
closed = 1;
nodes = (
(360,0,l),
(360,272,l),
(644,700,l),
(598,700,l),
(342,312,l),
(86,700,l),
(38,700,l),
(320,272,l),
(320,0,l)
);
}
);
width = 680;
}
);
metricLeft = X;
metricRight = X;
unicode = 89;
},
{
glyphname = Z;
kernLeft = Sigma;
kernRight = Sigma;
lastChange = "2025-11-12 08:00:40 +0000";
layers = (
{
anchors = (
{
name = bottom;
pos = (320,0);
},
{
name = top;
pos = (320,700);
}
);
layerId = m01;
shapes = (
{
closed = 1;
nodes = (
(580,0,l),
(580,20,l),
(86,20,l),
(570,682,l),
(570,700,l),
(70,700,l),
(70,680,l),
(544,680,l),
(60,18,l),
(60,0,l)
);
}
);
width = 640;
},
{
anchors = (
{
name = bottom;
pos = (320,0);
},
{
name = top;
pos = (320,700);
}
);
layerId = "CCD41F9B-A064-4484-B59C-AEE566599C6A";
shapes = (
{
closed = 1;
nodes = (
(600,0,l),
(600,136,l),
(234,136,l),
(600,584,l),
(600,700,l),
(40,700,l),
(40,564,l),
(406,564,l),
(40,116,l),
(40,0,l)
);
}
);
width = 640;
},
{
anchors = (
{
name = bottom;
pos = (320,0);
},
{
name = top;
pos = (320,700);
}
);
layerId = m003;
shapes = (
{
closed = 1;
nodes = (
(613,0,l),
(613,159,l),
(273,159,l),
(613,575,l),
(613,700,l),
(27,700,l),
(27,541,l),
(367,541,l),
(27,125,l),
(27,0,l)
);
}
);
width = 640;
},
{
anchors = (
{
name = bottom;
pos = (320,0);
},
{
name = top;
pos = (320,700);
}
);
layerId = m004;
shapes = (
{
closed = 1;
nodes = (
(591,0,l),
(591,86,l),
(171,86,l),
(587,626,l),
(587,700,l),
(53,700,l),
(53,614,l),
(465,614,l),
(49,74,l),
(49,0,l)
);
}
);
width = 640;
},
{
anchors = (
{
name = bottom;
pos = (320,0);
},
{
name = top;
pos = (320,700);
}
);
layerId = m006;
shapes = (
{
closed = 1;
nodes = (
(620,0,l),
(620,170,l),
(292,170,l),
(620,570,l),
(620,700,l),
(20,700,l),
(20,530,l),
(348,530,l),
(20,130,l),
(20,0,l)
);
}
);
width = 640;
},
{
anchors = (
{
name = bottom;
pos = (320,0);
},
{
name = top;
pos = (320,700);
}
);
layerId = m007;
shapes = (
{
closed = 1;
nodes = (
(584,0,l),
(584,38,l),
(108,38,l),
(574,668,l),
(574,700,l),
(66,700,l),
(66,664,l),
(524,664,l),
(58,32,l),
(58,0,l)
);
}
);
width = 640;
}
);
metricLeft = Sigma;
metricRight = Sigma;
unicode = 90;
},
{
glyphname = Saltillo;
kernLeft = I;
kernRight = I;
lastChange = "2025-11-12 08:00:40 +0000";
layers = (
{
layerId = m01;
shapes = (
{
closed = 1;
nodes = (
(150,240,l),
(150,580,l),
(150,700,l),
(130,700,l),
(130,580,l),
(130,240,l)
);
}
);
width = 280;
},
{
layerId = "CCD41F9B-A064-4484-B59C-AEE566599C6A";
shapes = (
{
closed = 1;
nodes = (
(220,240,l),
(220,580,l),
(220,700,l),
(60,700,l),
(60,580,l),
(60,240,l)
);
}
);
width = 280;
},
{
layerId = m003;
shapes = (
{
closed = 1;
nodes = (
(237,240,l),
(237,580,l),
(237,700,l),
(43,700,l),
(43,580,l),
(43,240,l)
);
}
);
width = 280;
},
{
layerId = m004;
shapes = (
{
closed = 1;
nodes = (
(190,240,l),
(190,580,l),
(190,700,l),
(90,700,l),
(90,580,l),
(90,240,l)
);
}
);
width = 280;
},
{
layerId = m006;
shapes = (
{
closed = 1;
nodes = (
(246,240,l),
(246,580,l),
(246,700,l),
(34,700,l),
(34,580,l),
(34,240,l)
);
}
);
width = 280;
},
{
layerId = m007;
shapes = (
{
closed = 1;
nodes = (
(160,240,l),
(160,580,l),
(160,700,l),
(120,700,l),
(120,580,l),
(120,240,l)
);
}
);
width = 280;
}
);
unicode = 42891;
},
{
glyphname = a;
kernLeft = a;
kernRight = a;
lastChange = "2025-11-12 08:00:40 +0000";
layers = (
{
anchors = (
{
name = bottom;
pos = (260,0);
},
{
name = ogonek;
pos = (416,0);
},
{
name = top;
pos = (260,500);
}
);
layerId = m01;
shapes = (
{
closed = 1;
nodes = (
(414,200,l),
(414,0,l),
(434,0,l),
(434,200,l)
);
},
{
ref = "a-part";
}
);
width = 520;
},
{
anchors = (
{
name = bottom;
pos = (260,0);
},
{
name = ogonek;
pos = (362,0);
},
{
name = top;
pos = (260,500);
}
);
layerId = "CCD41F9B-A064-4484-B59C-AEE566599C6A";
shapes = (
{
closed = 1;
nodes = (
(346,200,l),
(346,0,l),
(476,0,l),
(476,200,l)
);
},
{
ref = "a-part";
}
);
width = 520;
},
{
anchors = (
{
name = bottom;
pos = (260,0);
},
{
name = ogonek;
pos = (357,0);
},
{
name = top;
pos = (260,500);
}
);
layerId = m003;
shapes = (
{
closed = 1;
nodes = (
(335,200,l),
(335,0,l),
(489,0,l),
(489,200,l)
);
},
{
pos = (-15,0);
ref = "a-part";
}
);
width = 520;
},
{
anchors = (
{
name = bottom;
pos = (260,0);
},
{
name = ogonek;
pos = (385,0);
},
{
name = top;
pos = (260,500);
}
);
layerId = m004;
shapes = (
{
closed = 1;
nodes = (
(375,200,l),
(375,0,l),
(458,0,l),
(458,200,l)
);
},
{
ref = "a-part";
}
);
width = 520;
},
{
anchors = (
{
name = bottom;
pos = (260,0);
},
{
name = ogonek;
pos = (354,0);
},
{
name = top;
pos = (260,500);
}
);
layerId = m006;
shapes = (
{
closed = 1;
nodes = (
(330,200,l),
(330,0,l),
(496,0,l),
(496,200,l)
);
},
{
pos = (-22,0);
ref = "a-part";
}
);
width = 520;
},
{
anchors = (
{
name = bottom;
pos = (260,0);
},
{
name = ogonek;
pos = (408,0);
},
{
name = top;
pos = (260,500);
}
);
layerId = m007;
shapes = (
{
closed = 1;
nodes = (
(404,200,l),
(404,0,l),
(440,0,l),
(440,200,l)
);
},
{
ref = "a-part";
}
);
width = 520;
}
);
metricRight = upsilon;
unicode = 97;
userData = {
KernOnName = a;
};
},
{
glyphname = a.cv01;
kernLeft = o;
kernRight = n;
lastChange = "2025-11-12 08:00:40 +0000";
layers = (
{
anchors = (
{
name = bottom;
pos = (280,0);
},
{
name = ogonek;
pos = (452,0);
},
{
name = top;
pos = (280,500);
}
);
layerId = m01;
shapes = (
{
closed = 1;
nodes = (
(450,0,l),
(470,0,l),
(470,500,l),
(450,500,l)
);
},
{
pos = (506,0);
ref = "puzo-b";
scale = (-1,1);
}
);
width = 560;
},
{
anchors = (
{
name = bottom;
pos = (280,0);
},
{
name = ogonek;
pos = (390,0);
},
{
name = top;
pos = (280,500);
}
);
layerId = "CCD41F9B-A064-4484-B59C-AEE566599C6A";
shapes = (
{
closed = 1;
nodes = (
(354,0,l),
(504,0,l),
(504,500,l),
(354,500,l)
);
},
{
pos = (456,0);
ref = "puzo-b";
scale = (-1,1);
}
);
width = 560;
},
{
anchors = (
{
name = bottom;
pos = (280,0);
},
{
name = ogonek;
pos = (389,0);
},
{
name = top;
pos = (280,500);
}
);
layerId = m003;
shapes = (
{
closed = 1;
nodes = (
(337,0,l),
(520,0,l),
(520,500,l),
(337,500,l)
);
},
{
pos = (433,0);
ref = "puzo-b";
scale = (-1,1);
}
);
width = 560;
},
{
anchors = (
{
name = bottom;
pos = (280,0);
},
{
name = ogonek;
pos = (417,0);
},
{
name = top;
pos = (280,500);
}
);
layerId = m004;
shapes = (
{
closed = 1;
nodes = (
(394,0,l),
(488,0,l),
(488,500,l),
(394,500,l)
);
},
{
pos = (478,0);
ref = "puzo-b";
scale = (-1,1);
}
);
width = 560;
},
{
anchors = (
{
name = bottom;
pos = (280,0);
},
{
name = ogonek;
pos = (388,0);
},
{
name = top;
pos = (280,500);
}
);
layerId = m006;
shapes = (
{
closed = 1;
nodes = (
(328,0,l),
(528,0,l),
(528,500,l),
(328,500,l)
);
},
{
pos = (422,0);
ref = "puzo-b";
scale = (-1,1);
}
);
width = 560;
},
{
anchors = (
{
name = bottom;
pos = (280,0);
},
{
name = ogonek;
pos = (443,0);
},
{
name = top;
pos = (280,500);
}
);
layerId = m007;
shapes = (
{
closed = 1;
nodes = (
(436,0,l),
(476,0,l),
(476,500,l),
(436,500,l)
);
},
{
pos = (499,0);
ref = "puzo-b";
scale = (-1,1);
}
);
width = 560;
}
);
metricLeft = o;
metricRight = u;
},
{
glyphname = ae;
kernLeft = a;
kernRight = o;
lastChange = "2025-11-12 08:00:40 +0000";
layers = (
{
anchors = (
{
name = bottom;
pos = (410,0);
},
{
name = ogonek;
pos = (600,0);
},
{
name = top;
pos = (410,500);
}
);
layerId = m01;
shapes = (
{
closed = 1;
nodes = (
(254,-12,o),
(336,26,o),
(384,106,o),
(394,144,q),
(406,144,l),
(406,338,ls),
(406,402,o),
(366,474,o),
(294,512,o),
(242,512,qs),
(190,512,o),
(114,478,o),
(74,414,o),
(74,370,q),
(94,370,l),
(94,408,o),
(130,464,o),
(194,492,o),
(242,492,qs),
(290,492,o),
(350,460,o),
(386,398,o),
(386,338,qs),
(386,220,ls),
(386,162,o),
(338,56,o),
(260,8,o),
(210,8,qs),
(168,8,o),
(110,28,o),
(72,86,o),
(72,120,qs),
(72,170,o),
(120,222,o),
(198,240,o),
(288,240,qs),
(396,240,l),
(396,260,l),
(288,260,ls),
(194,260,o),
(106,238,o),
(52,176,o),
(52,120,qs),
(52,80,o),
(94,14,o),
(162,-12,o),
(210,-12,qs)
);
},
{
closed = 1;
nodes = (
(632,-12,o),
(702,26,o),
(746,96,o),
(748,130,q),
(728,130,l),
(724,98,o),
(688,42,o),
(626,8,o),
(572,8,qs),
(514,8,o),
(438,64,o),
(406,164,o),
(406,244,qs),
(406,256,ls),
(406,338,o),
(440,438,o),
(520,492,o),
(570,492,qs),
(626,492,o),
(702,442,o),
(740,344,o),
(740,260,q),
(398,260,l),
(398,240,l),
(760,240,l),
(760,254,ls),
(760,346,o),
(718,456,o),
(632,512,o),
(570,512,qs),
(514,512,o),
(424,452,o),
(386,344,o),
(386,250,qs),
(386,158,o),
(422,50,o),
(508,-12,o),
(572,-12,qs)
);
}
);
width = 820;
},
{
anchors = (
{
name = bottom;
pos = (410,0);
},
{
name = ogonek;
pos = (532,0);
},
{
name = top;
pos = (410,500);
}
);
layerId = "CCD41F9B-A064-4484-B59C-AEE566599C6A";
shapes = (
{
closed = 1;
nodes = (
(256,-12,o),
(324,20,o),
(378,76,o),
(392,132,q),
(460,132,l),
(460,300,ls),
(460,388,o),
(410,472,o),
(328,512,o),
(260,512,qs),
(196,512,o),
(102,468,o),
(52,388,o),
(52,340,q),
(186,340,l),
(186,360,o),
(204,388,o),
(236,400,o),
(262,400,qs),
(286,400,o),
(316,384,o),
(326,352,o),
(326,320,qs),
(326,200,ls),
(326,168,o),
(300,124,o),
(260,102,o),
(232,102,qs),
(210,102,o),
(186,114,o),
(176,134,o),
(176,148,qs),
(176,166,o),
(194,188,o),
(230,200,o),
(298,200,qs),
(356,200,l),
(356,300,l),
(278,300,ls),
(180,300,o),
(84,268,o),
(30,198,o),
(30,138,qs),
(30,90,o),
(76,22,o),
(152,-12,o),
(200,-12,qs)
);
},
{
closed = 1;
nodes = (
(632,-12,o),
(728,38,o),
(780,124,o),
(782,160,q),
(636,160,l),
(634,144,o),
(618,120,o),
(586,104,o),
(558,104,qs),
(526,104,o),
(484,138,o),
(472,190,o),
(472,240,qs),
(472,260,ls),
(472,312,o),
(484,364,o),
(522,396,o),
(558,396,qs),
(584,396,o),
(618,374,o),
(638,330,o),
(638,300,q),
(410,300,l),
(410,200,l),
(784,200,l),
(784,258,ls),
(784,340,o),
(734,446,o),
(634,512,o),
(554,512,qs),
(476,512,o),
(372,442,o),
(326,330,o),
(326,250,qs),
(326,170,o),
(376,54,o),
(482,-12,o),
(560,-12,qs)
);
}
);
width = 820;
},
{
anchors = (
{
name = bottom;
pos = (410,0);
},
{
name = ogonek;
pos = (519,0);
},
{
name = top;
pos = (410,500);
}
);
layerId = m003;
shapes = (
{
closed = 1;
nodes = (
(245,-12,o),
(316,17.333,o),
(370,78,o),
(379,139,q),
(473,139,l),
(473,307,ls),
(473,384,o),
(424.667,470.667,o),
(329,512,o),
(259,512,qs),
(189,512,o),
(88.667,462.667,o),
(37,379,o),
(37,333,q),
(198,333,l),
(199,351,o),
(212,373.333,o),
(236,384,o),
(255,384,qs),
(274,384,o),
(297.333,372,o),
(309,348,o),
(309,320,qs),
(309,196,ls),
(309,169,o),
(292,134.667,o),
(261,117,o),
(237,117,qs),
(218,117,o),
(199.333,126,o),
(189,142,o),
(189,156,qs),
(189,170,o),
(203.333,186.667,o),
(227,195,o),
(262,195,qs),
(365,195,l),
(365,305,l),
(243,305,ls),
(173,305,o),
(78.667,274.667,o),
(21,199,o),
(21,142,qs),
(21,89,o),
(66.667,20.667,o),
(143,-12,o),
(195,-12,qs)
);
},
{
closed = 1;
nodes = (
(635,-12,o),
(734.667,38,o),
(792,124,o),
(795,167,q),
(628,167,l),
(626,152,o),
(611.333,130.667,o),
(586,117,o),
(562,117,qs),
(535,117,o),
(500,142,o),
(481,189,o),
(481,241,qs),
(481,261,ls),
(481,313,o),
(496,358.667,o),
(530,385,o),
(558,385,qs),
(581,385,o),
(610,366,o),
(626,331,o),
(626,305,q),
(410,305,l),
(410,195,l),
(797,195,l),
(797,251,ls),
(797,333,o),
(744.667,444.667,o),
(637,512,o),
(555,512,qs),
(475,512,o),
(364,444.667,o),
(306,331,o),
(306,250,qs),
(306,169,o),
(365.333,52.667,o),
(478,-12,o),
(561,-12,qs)
);
}
);
width = 820;
},
{
anchors = (
{
name = bottom;
pos = (410,0);
},
{
name = ogonek;
pos = (561,0);
},
{
name = top;
pos = (410,500);
}
);
layerId = m004;
shapes = (
{
closed = 1;
nodes = (
(255,-12,o),
(329.143,22.571,o),
(381,90,o),
(393,137,q),
(437,137,l),
(437,316,ls),
(437,394,o),
(391.143,472.857,o),
(313,512,o),
(252,512,qs),
(193,512,o),
(107.143,472.286,o),
(61,399,o),
(61,353,q),
(147,353,l),
(147,381,o),
(172.286,420.571,o),
(218,439,o),
(253,439,qs),
(288,439,o),
(330.571,416.571,o),
(352,372,o),
(352,328,qs),
(352,209,ls),
(352,165,o),
(316.286,94.857,o),
(260,62,o),
(223,62,qs),
(192,62,o),
(153.429,77.143,o),
(131,113,o),
(131,136,qs),
(131,168,o),
(162.286,202.571,o),
(216,217,o),
(294,217,qs),
(373,217,l),
(373,283,l),
(282,283,ls),
(186,283,o),
(93.429,255.143,o),
(39,189,o),
(39,130,qs),
(39,86,o),
(83.714,18.571,o),
(156,-12,o),
(204,-12,qs)
);
},
{
closed = 1;
nodes = (
(632,-12,o),
(716.857,32.857,o),
(765,112,o),
(767,147,q),
(675,147,l),
(672,123,o),
(648,86.571,o),
(603,63,o),
(564,63,qs),
(521,63,o),
(464.286,106.286,o),
(444,179,o),
(444,242,qs),
(444,258,ls),
(444,323,o),
(465.143,395.714,o),
(521,437,o),
(563,437,qs),
(602,437,o),
(654,403.143,o),
(684,336,o),
(684,284,q),
(405,283,l),
(405,217,l),
(776,218,l),
(776,256,ls),
(776,344,o),
(727.143,450.286,o),
(633,512,o),
(561,512,qs),
(492,512,o),
(394.286,446.286,o),
(352,336,o),
(352,250,qs),
(352,165,o),
(395.714,52.286,o),
(493,-12,o),
(565,-12,qs)
);
}
);
width = 820;
},
{
anchors = (
{
name = bottom;
pos = (410,0);
},
{
name = ogonek;
pos = (512,0);
},
{
name = top;
pos = (410,500);
}
);
layerId = m006;
shapes = (
{
closed = 1;
nodes = (
(240,-12,o),
(312,16,o),
(366,80,o),
(372,142,q),
(480,142,l),
(480,310,ls),
(480,382,o),
(432,470,o),
(330,512,o),
(258,512,qs),
(186,512,o),
(82,460,o),
(30,374,o),
(30,330,q),
(204,330,l),
(206,348,o),
(216,366,o),
(236,376,o),
(252,376,qs),
(268,376,o),
(288,366,o),
(300,346,o),
(300,320,qs),
(300,194,ls),
(300,170,o),
(288,140,o),
(262,124,o),
(240,124,qs),
(222,124,o),
(206,132,o),
(196,146,o),
(196,160,qs),
(196,172,o),
(208,186,o),
(226,192,o),
(244,192,qs),
(370,192,l),
(370,308,l),
(226,308,ls),
(170,308,o),
(76,278,o),
(16,200,o),
(16,144,qs),
(16,88,o),
(62,20,o),
(138,-12,o),
(192,-12,qs)
);
},
{
closed = 1;
nodes = (
(636,-12,o),
(738,38,o),
(798,124,o),
(802,170,q),
(624,170,l),
(622,156,o),
(608,136,o),
(586,124,o),
(564,124,qs),
(540,124,o),
(508,144,o),
(486,188,o),
(486,242,qs),
(486,262,ls),
(486,314,o),
(502,356,o),
(534,380,o),
(558,380,qs),
(580,380,o),
(606,362,o),
(620,332,o),
(620,308,q),
(410,308,l),
(410,192,l),
(804,192,l),
(804,248,ls),
(804,330,o),
(750,444,o),
(638,512,o),
(556,512,qs),
(474,512,o),
(360,446,o),
(296,332,o),
(296,250,qs),
(296,168,o),
(360,52,o),
(476,-12,o),
(562,-12,qs)
);
}
);
width = 820;
},
{
anchors = (
{
name = bottom;
pos = (410,0);
},
{
name = ogonek;
pos = (590,0);
},
{
name = top;
pos = (410,500);
}
);
layerId = m007;
shapes = (
{
closed = 1;
nodes = (
(254,-12,o),
(334.286,25.143,o),
(383,101,o),
(394,142,q),
(414,142,l),
(414,334,ls),
(414,400,o),
(372.286,473.714,o),
(299,512,o),
(246,512,qs),
(191,512,o),
(112.286,476.572,o),
(71,410,o),
(72,366,q),
(108,366,l),
(107,401,o),
(140.572,453.143,o),
(200,479,o),
(246,480,qs),
(290,479,o),
(345.143,449.143,o),
(378,392,o),
(378,336,qs),
(378,218,ls),
(378,163,o),
(332.572,65.714,o),
(260,22,o),
(214,22,qs),
(174,22,o),
(120.857,40.286,o),
(87,93,o),
(88,124,qs),
(87,170,o),
(130.572,217.143,o),
(203,234,o),
(290,234,qs),
(390,234,l),
(390,266,l),
(288,266,ls),
(192,266,o),
(102.857,242.286,o),
(49,179,o),
(50,124,qs),
(49,82,o),
(91.428,15.143,o),
(161,-12,o),
(210,-12,qs)
);
},
{
closed = 1;
nodes = (
(632,-12,o),
(705.714,27.714,o),
(751,100,o),
(754,134,q),
(716,134,l),
(711,103,o),
(678,53.143,o),
(620,22,o),
(570,22,qs),
(516,22,o),
(444.572,74.572,o),
(416,168,o),
(416,244,qs),
(416,258,ls),
(416,334,o),
(446.286,427.428,o),
(520,478,o),
(568,478,qs),
(620,478,o),
(690,432.286,o),
(726,342,o),
(726,266,q),
(400,266,l),
(400,234,l),
(764,236,l),
(764,256,ls),
(764,346,o),
(720.286,454.572,o),
(632,512,o),
(568,512,qs),
(509,512,o),
(416.572,450.572,o),
(378,342,o),
(378,250,qs),
(378,160,o),
(415.428,50.572,o),
(504,-12,o),
(570,-12,qs)
);
}
);
width = 820;
}
);
metricLeft = a;
metricRight = o;
unicode = 230;
},
{
glyphname = b;
kernLeft = I;
kernRight = o;
lastChange = "2025-11-12 08:00:40 +0000";
layers = (
{
anchors = (
{
name = bottom;
pos = (280,0);
},
{
name = top;
pos = (98,700);
}
);
layerId = m01;
shapes = (
{
closed = 1;
nodes = (
(110,700,l),
(90,700,l),
(90,0,l),
(110,0,l)
);
},
{
pos = (54,0);
ref = "puzo-b";
}
);
width = 560;
},
{
anchors = (
{
name = bottom;
pos = (280,0);
},
{
name = top;
pos = (122,700);
}
);
layerId = "CCD41F9B-A064-4484-B59C-AEE566599C6A";
shapes = (
{
closed = 1;
nodes = (
(206,700,l),
(56,700,l),
(56,0,l),
(206,0,l)
);
},
{
pos = (104,0);
ref = "puzo-b";
}
);
width = 560;
},
{
anchors = (
{
name = bottom;
pos = (280,0);
},
{
name = top;
pos = (127,700);
}
);
layerId = m003;
shapes = (
{
closed = 1;
nodes = (
(223,700,l),
(40,700,l),
(40,0,l),
(223,0,l)
);
},
{
pos = (127,0);
ref = "puzo-b";
}
);
width = 560;
},
{
anchors = (
{
name = bottom;
pos = (280,0);
},
{
name = top;
pos = (112,700);
}
);
layerId = m004;
shapes = (
{
closed = 1;
nodes = (
(166,700,l),
(72,700,l),
(72,0,l),
(166,0,l)
);
},
{
pos = (82,0);
ref = "puzo-b";
}
);
width = 560;
},
{
anchors = (
{
name = bottom;
pos = (280,0);
},
{
name = top;
pos = (130,700);
}
);
layerId = m006;
shapes = (
{
closed = 1;
nodes = (
(232,700,l),
(32,700,l),
(32,0,l),
(232,0,l)
);
},
{
pos = (138,0);
ref = "puzo-b";
}
);
width = 560;
},
{
anchors = (
{
name = bottom;
pos = (280,0);
},
{
name = top;
pos = (102,700);
}
);
layerId = m007;
shapes = (
{
closed = 1;
nodes = (
(124,700,l),
(86,700,l),
(86,0,l),
(124,0,l)
);
},
{
pos = (61,0);
ref = "puzo-b";
}
);
width = 560;
}
);
metricLeft = n;
metricRight = o;
unicode = 98;
},
{
glyphname = c;
kernLeft = o;
kernRight = c;
lastChange = "2025-11-12 08:00:40 +0000";
layers = (
{
anchors = (
{
name = bottom;
pos = (270,0);
},
{
name = top;
pos = (270,500);
}
);
layerId = m01;
shapes = (
{
closed = 1;
nodes = (
(334,-12,o),
(412,30,o),
(454,98,o),
(456,130,q),
(436,130,l),
(434,104,o),
(396,44,o),
(328,8,o),
(274,8,qs),
(220,8,o),
(130,64,o),
(80,170,o),
(80,250,qs),
(80,330,o),
(130,436,o),
(220,492,o),
(274,492,qs),
(328,492,o),
(396,456,o),
(434,396,o),
(436,370,q),
(456,370,l),
(454,402,o),
(412,470,o),
(334,512,o),
(274,512,qs),
(214,512,o),
(114,450,o),
(60,336,o),
(60,250,qs),
(60,164,o),
(114,50,o),
(214,-12,o),
(274,-12,qs)
);
}
);
width = 500;
},
{
anchors = (
{
name = bottom;
pos = (270,0);
},
{
name = top;
pos = (270,500);
}
);
layerId = "CCD41F9B-A064-4484-B59C-AEE566599C6A";
shapes = (
{
closed = 1;
nodes = (
(336,-12,o),
(426,34,o),
(474,112,o),
(476,160,q),
(336,160,l),
(334,144,o),
(316,120,o),
(292,108,o),
(270,108,qs),
(240,108,o),
(206,140,o),
(186,204,o),
(186,250,qs),
(186,296,o),
(206,360,o),
(240,392,o),
(270,392,qs),
(292,392,o),
(316,380,o),
(334,356,o),
(336,340,q),
(476,340,l),
(474,388,o),
(426,466,o),
(336,512,o),
(270,512,qs),
(194,512,o),
(86,440,o),
(36,322,o),
(36,250,qs),
(36,178,o),
(86,60,o),
(194,-12,o),
(270,-12,qs)
);
}
);
width = 500;
},
{
anchors = (
{
name = bottom;
pos = (270,0);
},
{
name = top;
pos = (270,500);
}
);
layerId = m003;
shapes = (
{
closed = 1;
nodes = (
(344,-12,o),
(435.333,39.333,o),
(482,118,o),
(484,167,q),
(313,167,l),
(313,155,o),
(301.333,137.333,o),
(284,128,o),
(267,128,qs),
(247,128,o),
(220.667,152,o),
(206,209,o),
(206,251,qs),
(206,293,o),
(220.667,348,o),
(247,372,o),
(267,372,qs),
(284,372,o),
(301.333,362.667,o),
(313,345,o),
(313,333,q),
(484,333,l),
(482,382,o),
(435.333,460.667,o),
(344,512,o),
(267,512,qs),
(190,512,o),
(82,449.333,o),
(23,335,o),
(23,251,qs),
(23,167,o),
(82,50.667,o),
(190,-12,o),
(267,-12,qs)
);
}
);
width = 500;
},
{
anchors = (
{
name = bottom;
pos = (270,0);
},
{
name = top;
pos = (270,500);
}
);
layerId = m004;
shapes = (
{
closed = 1;
nodes = (
(335,-12,o),
(420,32.286,o),
(465,106,o),
(467,147,q),
(379,147,l),
(377,127,o),
(350.286,87.429,o),
(307,65,o),
(272,65,qs),
(231,65,o),
(173.429,107.429,o),
(140,190,o),
(140,250,qs),
(140,312,o),
(173.429,392.571,o),
(231,435,o),
(272,435,qs),
(307,435,o),
(350.286,412.571,o),
(377,373,o),
(379,353,q),
(467,353,l),
(465,394,o),
(420,467.714,o),
(335,512,o),
(272,512,qs),
(203,512,o),
(98,444.286,o),
(44,328,o),
(44,250,qs),
(44,172,o),
(98,55.714,o),
(203,-12,o),
(272,-12,qs)
);
}
);
width = 500;
},
{
anchors = (
{
name = bottom;
pos = (270,0);
},
{
name = top;
pos = (270,500);
}
);
layerId = m006;
shapes = (
{
closed = 1;
nodes = (
(348,-12,o),
(440,42,o),
(486,120,o),
(488,170,q),
(302,170,l),
(302,160,o),
(294,146,o),
(280,138,o),
(266,138,qs),
(250,138,o),
(228,158,o),
(216,212,o),
(216,252,qs),
(216,292,o),
(228,342,o),
(250,362,o),
(266,362,qs),
(280,362,o),
(294,354,o),
(302,340,o),
(302,330,q),
(488,330,l),
(486,380,o),
(440,458,o),
(348,512,o),
(266,512,qs),
(188,512,o),
(80,454,o),
(16,342,o),
(16,252,qs),
(16,162,o),
(80,46,o),
(188,-12,o),
(266,-12,qs)
);
}
);
width = 500;
},
{
anchors = (
{
name = bottom;
pos = (270,0);
},
{
name = top;
pos = (270,500);
}
);
layerId = m007;
shapes = (
{
closed = 1;
nodes = (
(334,-12,o),
(414,30.572,o),
(457,100,o),
(460,134,q),
(422,134,l),
(420,110,o),
(384.572,54.857,o),
(323,22,o),
(274,22,qs),
(223,22,o),
(140.857,74.857,o),
(95,175,o),
(95,250,qs),
(95,326,o),
(140.857,425.143,o),
(223,478,o),
(274,478,qs),
(323,478,o),
(384.572,445.143,o),
(420,390,o),
(422,366,q),
(460,366,l),
(457,400,o),
(414,469.428,o),
(334,512,o),
(274,512,qs),
(211,512,o),
(110,448.572,o),
(56,334,o),
(56,250,qs),
(56,166,o),
(110,51.428,o),
(211,-12,o),
(274,-12,qs)
);
}
);
width = 500;
}
);
metricLeft = o;
unicode = 99;
userData = {
KernOnName = c;
};
},
{
glyphname = eth;
kernLeft = delta;
kernRight = delta;
lastChange = "2025-11-12 08:00:40 +0000";
layers = (
{
layerId = m01;
shapes = (
{
closed = 1;
nodes = (
(218,540,l),
(416,746,l),
(388,746,l),
(190,540,l)
);
},
{
ref = partialdiff;
}
);
width = 560;
},
{
layerId = "CCD41F9B-A064-4484-B59C-AEE566599C6A";
shapes = (
{
closed = 1;
nodes = (
(265,541,l),
(464,746,l),
(351,746,l),
(152,541,l)
);
},
{
ref = partialdiff;
}
);
width = 560;
},
{
layerId = m003;
shapes = (
{
closed = 1;
nodes = (
(264,514,l),
(477,749,l),
(358,749,l),
(145,514,l)
);
},
{
ref = partialdiff;
}
);
width = 560;
},
{
layerId = m004;
shapes = (
{
closed = 1;
nodes = (
(245,541,l),
(443,746,l),
(367,746,l),
(168,541,l)
);
},
{
ref = partialdiff;
}
);
width = 560;
},
{
layerId = m006;
shapes = (
{
closed = 1;
nodes = (
(264,500,l),
(484,750,l),
(362,750,l),
(142,500,l)
);
},
{
ref = partialdiff;
}
);
width = 560;
},
{
layerId = m007;
shapes = (
{
closed = 1;
nodes = (
(226,540,l),
(424,746,l),
(384,746,l),
(186,540,l)
);
},
{
ref = partialdiff;
}
);
width = 560;
}
);
metricLeft = o;
metricRight = upsilon;
unicode = 240;
},
{
glyphname = e;
kernLeft = o;
kernRight = o;
lastChange = "2025-11-12 08:00:40 +0000";
layers = (
{
anchors = (
{
name = bottom;
pos = (276,0);
},
{
name = ogonek;
pos = (320,0);
},
{
name = top;
pos = (276,500);
}
);
layerId = m01;
shapes = (
{
closed = 1;
nodes = (
(332,-12,o),
(412,26,o),
(466,96,o),
(468,130,q),
(448,130,l),
(444,98,o),
(400,42,o),
(326,8,o),
(278,8,qs),
(218,8,o),
(128,64,o),
(80,164,o),
(80,244,qs),
(80,256,ls),
(80,338,o),
(132,438,o),
(216,492,o),
(276,492,qs),
(332,492,o),
(412,440,o),
(460,344,o),
(460,260,q),
(72,260,l),
(72,240,l),
(480,240,l),
(480,254,ls),
(480,346,o),
(428,454,o),
(338,512,o),
(276,512,qs),
(210,512,o),
(116,452,o),
(60,344,o),
(60,250,qs),
(60,158,o),
(112,50,o),
(212,-12,o),
(278,-12,qs)
);
}
);
width = 540;
},
{
anchors = (
{
name = bottom;
pos = (276,0);
},
{
name = ogonek;
pos = (252,0);
},
{
name = top;
pos = (276,500);
}
);
layerId = "CCD41F9B-A064-4484-B59C-AEE566599C6A";
shapes = (
{
closed = 1;
nodes = (
(352,-12,o),
(448,38,o),
(500,124,o),
(502,160,q),
(356,160,l),
(354,144,o),
(336,120,o),
(306,104,o),
(278,104,qs),
(246,104,o),
(202,138,o),
(182,190,o),
(182,240,qs),
(182,260,ls),
(182,312,o),
(202,364,o),
(242,396,o),
(278,396,qs),
(304,396,o),
(338,374,o),
(358,330,o),
(358,300,q),
(130,300,l),
(130,200,l),
(504,200,l),
(504,258,ls),
(504,332,o),
(458,444,o),
(354,512,o),
(274,512,qs),
(196,512,o),
(92,444,o),
(36,330,o),
(36,250,qs),
(36,170,o),
(94,54,o),
(202,-12,o),
(280,-12,qs)
);
}
);
width = 540;
},
{
anchors = (
{
name = bottom;
pos = (276,0);
},
{
name = ogonek;
pos = (239,0);
},
{
name = top;
pos = (276,500);
}
);
layerId = m003;
shapes = (
{
closed = 1;
nodes = (
(355,-12,o),
(454.667,38,o),
(512,124,o),
(515,167,q),
(348,167,l),
(346,152,o),
(330.667,130.667,o),
(306,117,o),
(282,117,qs),
(255,117,o),
(219.333,142,o),
(198,189,o),
(198,241,qs),
(198,261,ls),
(198,313,o),
(215.333,358.667,o),
(250,385,o),
(278,385,qs),
(301,385,o),
(330,366,o),
(346,331,o),
(346,305,q),
(130,305,l),
(130,195,l),
(517,195,l),
(517,251,ls),
(517,331,o),
(466,444,o),
(357,512,o),
(275,512,qs),
(195,512,o),
(84,445.333,o),
(23,331,o),
(23,250,qs),
(23,169,o),
(84.667,52.667,o),
(198,-12,o),
(281,-12,qs)
);
}
);
width = 540;
},
{
anchors = (
{
name = bottom;
pos = (276,0);
},
{
name = ogonek;
pos = (281,0);
},
{
name = top;
pos = (276,500);
}
);
layerId = m004;
shapes = (
{
closed = 1;
nodes = (
(343,-12,o),
(434,32,o),
(488,112,o),
(490,148,q),
(395,147,l),
(392,123,o),
(363.429,86.571,o),
(315,63,o),
(278,63,qs),
(234,63,o),
(170.286,106.286,o),
(136,180,o),
(136,242,qs),
(136,258,ls),
(136,324,o),
(172,395.714,o),
(231,437,o),
(277,437,qs),
(316,437,o),
(369.714,402.286,o),
(404,336,o),
(404,284,q),
(104,284,l),
(104,218,l),
(496,218,l),
(496,256,ls),
(496,338,o),
(445.143,448.286,o),
(347,512,o),
(275,512,qs),
(202,512,o),
(102.286,447.429,o),
(44,336,o),
(44,250,qs),
(44,166,o),
(101.714,52.286,o),
(206,-12,o),
(279,-12,qs)
);
}
);
width = 540;
},
{
anchors = (
{
name = bottom;
pos = (276,0);
},
{
name = ogonek;
pos = (232,0);
},
{
name = top;
pos = (276,500);
}
);
layerId = m006;
shapes = (
{
closed = 1;
nodes = (
(356,-12,o),
(458,38,o),
(518,124,o),
(522,170,q),
(344,170,l),
(342,156,o),
(328,136,o),
(306,124,o),
(284,124,qs),
(260,124,o),
(228,144,o),
(206,188,o),
(206,242,qs),
(206,262,ls),
(206,314,o),
(222,356,o),
(254,380,o),
(278,380,qs),
(300,380,o),
(326,362,o),
(340,332,o),
(340,308,q),
(130,308,l),
(130,192,l),
(524,192,l),
(524,248,ls),
(524,330,o),
(470,444,o),
(358,512,o),
(276,512,qs),
(194,512,o),
(80,446,o),
(16,332,o),
(16,250,qs),
(16,168,o),
(80,52,o),
(196,-12,o),
(282,-12,qs)
);
}
);
width = 540;
},
{
anchors = (
{
name = bottom;
pos = (276,0);
},
{
name = ogonek;
pos = (310,0);
},
{
name = top;
pos = (276,500);
}
);
layerId = m007;
shapes = (
{
closed = 1;
nodes = (
(335,-12,o),
(417.5,27.5,o),
(472,100,o),
(474,136,q),
(436,134,l),
(431,103,o),
(390.857,53.143,o),
(323,22,o),
(278,22,qs),
(222,22,o),
(138.572,74.572,o),
(94,168,o),
(94,244,qs),
(94,258,ls),
(94,335,o),
(142,427.428,o),
(220,478,o),
(276,478,qs),
(328,478,o),
(401.428,430.572,o),
(446,342,o),
(446,266,q),
(80,266,l),
(80,236,l),
(484,236,l),
(484,256,ls),
(484,344,o),
(432.286,452.572,o),
(340,512,o),
(276,512,qs),
(208,512,o),
(112.572,450.857,o),
(56,342,o),
(56,250,qs),
(56,160,o),
(109.428,50.572,o),
(211,-12,o),
(278,-12,qs)
);
}
);
width = 540;
}
);
metricLeft = o;
metricRight = o;
unicode = 101;
userData = {
KernOnName = e;
};
},
{
glyphname = ezh;
kernLeft = tau;
kernRight = "n-des";
lastChange = "2025-11-12 08:00:40 +0000";
layers = (
{
anchors = (
{
name = bottom;
pos = (250,-200);
},
{
name = top;
pos = (250,500);
}
);
layerId = m01;
shapes = (
{
closed = 1;
nodes = (
(324,-212,o),
(414,-164,o),
(460,-68,o),
(460,0,q),
(460,68,o),
(404,160,o),
(300,210,o),
(216,210,q),
(460,480,l),
(460,500,l),
(40,500,l),
(40,480,l),
(434,480,l),
(190,210,l),
(190,190,l),
(212,190,ls),
(294,190,o),
(388,146,o),
(440,60,o),
(440,0,qs),
(440,-60,o),
(400,-148,o),
(318,-192,o),
(252,-192,qs),
(188,-192,o),
(112,-158,o),
(62,-80,o),
(60,0,q),
(40,0,l),
(42,-86,o),
(96,-172,o),
(180,-212,o),
(252,-212,qs)
);
}
);
width = 520;
},
{
anchors = (
{
name = bottom;
pos = (250,-200);
},
{
name = top;
pos = (250,500);
}
);
layerId = "CCD41F9B-A064-4484-B59C-AEE566599C6A";
shapes = (
{
closed = 1;
nodes = (
(338,-212,o),
(444,-158,o),
(496,-64,o),
(496,0,qs),
(496,74,o),
(450,170,o),
(362,224,o),
(304,230,q),
(486,410,l),
(486,500,l),
(26,500,l),
(26,382,l),
(302,382,l),
(120,200,l),
(120,120,l),
(206,120,ls),
(272,120,o),
(320,96,o),
(346,48,o),
(346,0,qs),
(346,-28,o),
(324,-70,o),
(288,-88,o),
(260,-88,qs),
(228,-88,o),
(198,-80,o),
(174,-60,o),
(172,-40,q),
(20,-40,l),
(24,-104,o),
(90,-180,o),
(180,-212,o),
(256,-212,qs)
);
}
);
width = 520;
},
{
anchors = (
{
name = bottom;
pos = (250,-200);
},
{
name = top;
pos = (250,500);
}
);
layerId = m003;
shapes = (
{
closed = 1;
nodes = (
(334,-212,o),
(442.667,-162,o),
(501,-63,o),
(501,7,qs),
(501,74,o),
(460.667,168.667,o),
(372,225,o),
(312,230,q),
(485,389,l),
(485,500,l),
(22,500,l),
(22,361,l),
(277,361,l),
(100,195,l),
(100,107,l),
(206,107,ls),
(257,107,o),
(298.667,85.333,o),
(318,45,o),
(318,9,qs),
(318,-17,o),
(305.333,-55.333,o),
(276,-75,o),
(253,-75,qs),
(229,-75,o),
(204.667,-64,o),
(189,-44,o),
(187,-27,q),
(11,-27,l),
(13,-82,o),
(74,-170.667,o),
(173,-212,o),
(252,-212,qs)
);
}
);
width = 520;
},
{
anchors = (
{
name = bottom;
pos = (250,-200);
},
{
name = top;
pos = (250,500);
}
);
layerId = m004;
shapes = (
{
closed = 1;
nodes = (
(332,-212,o),
(431.143,-160.571,o),
(481,-66,o),
(481,0,q),
(481,71,o),
(430.286,165.714,o),
(335,218,o),
(266,221,q),
(475,440,l),
(475,500,l),
(32,500,l),
(32,424,l),
(359,424,l),
(150,204,l),
(150,150,l),
(209,150,ls),
(281,150,o),
(349.143,117.429,o),
(386,53,o),
(386,0,qs),
(386,-42,o),
(356.571,-103.429,o),
(301,-133,o),
(257,-133,qs),
(211,-133,o),
(161.143,-113.429,o),
(126,-69,o),
(124,-23,q),
(29,-23,l),
(32,-95,o),
(92.571,-176.571,o),
(180,-212,o),
(254,-212,qs)
);
}
);
width = 520;
},
{
anchors = (
{
name = bottom;
pos = (250,-200);
},
{
name = top;
pos = (250,500);
}
);
layerId = m006;
shapes = (
{
closed = 1;
nodes = (
(332,-212,o),
(442,-164,o),
(504,-62,o),
(504,10,qs),
(504,74,o),
(466,168,o),
(376,226,o),
(316,230,q),
(484,378,l),
(484,500,l),
(20,500,l),
(20,350,l),
(264,350,l),
(90,192,l),
(90,100,l),
(206,100,ls),
(250,100,o),
(288,80,o),
(304,44,o),
(304,14,qs),
(304,-12,o),
(296,-48,o),
(270,-68,o),
(250,-68,qs),
(230,-68,o),
(208,-56,o),
(196,-36,o),
(194,-20,q),
(6,-20,l),
(8,-72,o),
(66,-166,o),
(170,-212,o),
(250,-212,qs)
);
}
);
width = 520;
},
{
anchors = (
{
name = bottom;
pos = (250,-200);
},
{
name = top;
pos = (250,500);
}
);
layerId = m007;
shapes = (
{
closed = 1;
nodes = (
(326,-212,o),
(418.286,-163.143,o),
(465,-67,o),
(466,0,q),
(465,69,o),
(410.572,161.428,o),
(310,212,o),
(230,214,q),
(464,470,l),
(464,500,l),
(38,500,l),
(38,466,l),
(416,466,l),
(180,210,l),
(180,180,l),
(212,180,ls),
(291,180,o),
(378.286,138.857,o),
(427,58,o),
(428,0,qs),
(427,-55,o),
(389.143,-136.857,o),
(314,-177,o),
(254,-176,qs),
(194,-177,o),
(124.286,-146.857,o),
(78,-77,o),
(76,-6,q),
(38,-6,l),
(39,-87,o),
(95.143,-173.143,o),
(180,-212,o),
(254,-212,qs)
);
}
);
width = 520;
}
);
unicode = 658;
},
{
glyphname = f;
kernLeft = t;
kernRight = f;
lastChange = "2025-11-12 08:00:37 +0000";
layers = (
{
anchors = (
{
name = top;
pos = (240,700);
}
);
layerId = m01;
shapes = (
{
closed = 1;
nodes = (
(360,480,l),
(360,500,l),
(40,500,l),
(40,480,l)
);
},
{
closed = 1;
nodes = (
(180,0,l),
(180,574,ls),
(180,632,o),
(232,680,o),
(294,680,qs),
(400,680,l),
(400,700,l),
(294,700,ls),
(224,700,o),
(160,644,o),
(160,580,qs),
(160,0,l)
);
}
);
width = 420;
},
{
anchors = (
{
name = top;
pos = (240,700);
}
);
layerId = "CCD41F9B-A064-4484-B59C-AEE566599C6A";
shapes = (
{
closed = 1;
nodes = (
(380,374,l),
(380,500,l),
(20,500,l),
(20,374,l)
);
},
{
closed = 1;
nodes = (
(256,0,l),
(256,534,ls),
(256,554,o),
(276,574,o),
(296,574,qs),
(420,574,l),
(420,700,l),
(246,700,ls),
(176,700,o),
(106,630,o),
(106,560,qs),
(106,0,l)
);
}
);
width = 420;
},
{
anchors = (
{
name = top;
pos = (240,700);
}
);
layerId = m003;
shapes = (
{
closed = 1;
nodes = (
(393,358,l),
(393,500,l),
(13,500,l),
(13,358,l)
);
},
{
closed = 1;
nodes = (
(279,0,l),
(279,535,ls),
(279,550,o),
(293,565,o),
(308,565,qs),
(420,565,l),
(420,700,l),
(229,700,ls),
(163,700,o),
(95,633,o),
(95,567,qs),
(95,0,l)
);
}
);
width = 420;
},
{
anchors = (
{
name = top;
pos = (240,700);
}
);
layerId = m004;
shapes = (
{
closed = 1;
nodes = (
(371,419,l),
(371,500,l),
(29,500,l),
(29,419,l)
);
},
{
closed = 1;
nodes = (
(223,0,l),
(223,551,ls),
(223,587,o),
(257,619,o),
(295,619,qs),
(411,619,l),
(411,700,l),
(267,700,ls),
(197,700,o),
(129,636,o),
(129,569,qs),
(129,0,l)
);
}
);
width = 420;
},
{
anchors = (
{
name = top;
pos = (240,700);
}
);
layerId = m006;
shapes = (
{
closed = 1;
nodes = (
(400,350,l),
(400,500,l),
(10,500,l),
(10,350,l)
);
},
{
closed = 1;
nodes = (
(290,0,l),
(290,536,ls),
(290,548,o),
(302,560,o),
(314,560,qs),
(420,560,l),
(420,700,l),
(220,700,ls),
(156,700,o),
(90,634,o),
(90,570,qs),
(90,0,l)
);
}
);
width = 420;
},
{
anchors = (
{
name = top;
pos = (240,700);
}
);
layerId = m007;
shapes = (
{
closed = 1;
nodes = (
(363,465,l),
(363,500,l),
(37,500,l),
(37,465,l)
);
},
{
closed = 1;
nodes = (
(191,0,l),
(191,568,ls),
(191,621,o),
(238,665,o),
(294,665,qs),
(403,665,l),
(403,700,l),
(287,700,ls),
(217,700,o),
(152,642,o),
(152,577,qs),
(152,0,l)
);
}
);
width = 420;
}
);
metricLeft = tau;
unicode = 102;
userData = {
KernOnName = f;
};
},
{
glyphname = g;
kernLeft = o;
kernRight = "n-des";
lastChange = "2025-11-12 08:00:40 +0000";
layers = (
{
anchors = (
{
name = bottom;
pos = (280,-200);
},
{
name = top;
pos = (280,500);
}
);
layerId = m01;
shapes = (
{
closed = 1;
nodes = (
(334,-212,o),
(418,-172,o),
(470,-78,o),
(470,0,qs),
(470,500,l),
(450,500,l),
(450,0,ls),
(450,-72,o),
(404,-156,o),
(328,-192,o),
(266,-192,qs),
(210,-192,o),
(138,-166,o),
(92,-110,o),
(88,-60,q),
(68,-60,l),
(72,-116,o),
(124,-182,o),
(204,-212,o),
(266,-212,qs)
);
},
{
pos = (506,0);
ref = "puzo-g";
scale = (-1,1);
}
);
width = 560;
},
{
anchors = (
{
name = bottom;
pos = (280,-200);
},
{
name = top;
pos = (280,500);
}
);
layerId = "CCD41F9B-A064-4484-B59C-AEE566599C6A";
shapes = (
{
closed = 1;
nodes = (
(344,-212,o),
(448,-168,o),
(504,-64,o),
(504,40,qs),
(504,500,l),
(354,500,l),
(354,20,ls),
(354,-28,o),
(334,-74,o),
(294,-96,o),
(262,-96,qs),
(236,-96,o),
(206,-80,o),
(192,-56,o),
(190,-40,q),
(42,-40,l),
(44,-80,o),
(94,-164,o),
(188,-212,o),
(266,-212,qs)
);
},
{
pos = (456,0);
ref = "puzo-g";
scale = (-1,1);
}
);
width = 560;
},
{
anchors = (
{
name = bottom;
pos = (280,-200);
},
{
name = top;
pos = (280,500);
}
);
layerId = m003;
shapes = (
{
closed = 1;
nodes = (
(344,-212,o),
(456,-168,o),
(520,-67,o),
(520,27,qs),
(520,500,l),
(337,500,l),
(337,20,ls),
(337,-28,o),
(322,-62,o),
(291,-80,o),
(266,-80,qs),
(244,-80,o),
(218,-69.333,o),
(200,-48,o),
(198,-27,q),
(25,-27,l),
(28,-80,o),
(87.333,-166.667,o),
(188,-212,o),
(267,-212,qs)
);
},
{
pos = (433,0);
ref = "puzo-g";
scale = (-1,1);
}
);
width = 560;
},
{
anchors = (
{
name = bottom;
pos = (280,-200);
},
{
name = top;
pos = (280,500);
}
);
layerId = m004;
shapes = (
{
closed = 1;
nodes = (
(338,-212,o),
(434,-170,o),
(488,-70,o),
(488,24,qs),
(488,500,l),
(394,500,l),
(394,12,ls),
(394,-46,o),
(362,-110,o),
(308,-136,o),
(262,-136,qs),
(224,-136,o),
(174,-116,o),
(148,-80,o),
(144,-48,q),
(52,-48,l),
(54,-96,o),
(104,-172,o),
(194,-212,o),
(264,-212,qs)
);
},
{
pos = (476,0);
ref = "puzo-g";
scale = (-1,1);
}
);
width = 560;
},
{
anchors = (
{
name = bottom;
pos = (280,-200);
},
{
name = top;
pos = (280,500);
}
);
layerId = m006;
shapes = (
{
closed = 1;
nodes = (
(344,-212,o),
(460,-168,o),
(528,-68,o),
(528,20,qs),
(528,500,l),
(328,500,l),
(328,20,ls),
(328,-28,o),
(316,-56,o),
(290,-72,o),
(268,-72,qs),
(248,-72,o),
(224,-64,o),
(204,-44,o),
(202,-20,q),
(16,-20,l),
(20,-80,o),
(84,-168,o),
(188,-212,o),
(268,-212,qs)
);
},
{
pos = (422,0);
ref = "puzo-g";
scale = (-1,1);
}
);
width = 560;
},
{
anchors = (
{
name = bottom;
pos = (280,-200);
},
{
name = top;
pos = (280,500);
}
);
layerId = m007;
shapes = (
{
closed = 1;
nodes = (
(335,-212,o),
(422,-171.5,o),
(475,-76,o),
(476,6,qs),
(476,500,l),
(436,500,l),
(436,3,ls),
(436,-65,o),
(393.5,-144.5,o),
(323,-178,o),
(265,-178,qs),
(214,-178,o),
(147,-153.5,o),
(106,-102,o),
(102,-57,q),
(64,-57,l),
(68,-112,o),
(119,-179.5,o),
(202,-212,o),
(266,-212,qs)
);
},
{
pos = (499,0);
ref = "puzo-g";
scale = (-1,1);
}
);
width = 560;
}
);
metricLeft = o;
metricRight = u;
unicode = 103;
userData = {
KernOnName = g;
};
},
{
glyphname = g.cv02;
kernLeft = o;
kernRight = t;
lastChange = "2025-11-12 08:00:40 +0000";
layers = (
{
anchors = (
{
name = bottom;
pos = (280,-200);
},
{
name = top;
pos = (270,500);
}
);
layerId = m01;
shapes = (
{
closed = 1;
nodes = (
(362,-200,o),
(434,-174,o),
(482,-112,o),
(482,-60,qs),
(482,-8,o),
(434,54,o),
(362,78,o),
(304,78,qs),
(174,78,ls),
(142,78,o),
(112,104,o),
(112,124,qs),
(112,144,o),
(142,168,o),
(174,168,qs),
(266,168,ls),
(330,168,o),
(412,208,o),
(462,282,o),
(462,334,qs),
(462,382,o),
(412,464,o),
(370,480,q),
(520,480,l),
(520,500,l),
(351,500,ls),
(322,500,o),
(266,500,qs),
(202,500,o),
(122,460,o),
(74,386,o),
(74,334,qs),
(74,292,o),
(104,232,o),
(146,194,o),
(166,188,q),
(142,186,o),
(108,168,o),
(92,140,o),
(92,124,qs),
(92,100,o),
(114,74,o),
(144,62,o),
(174,62,qs),
(304,62,l),
(304,58,l),
(354,58,o),
(420,38,o),
(462,-16,o),
(462,-60,qs),
(462,-104,o),
(420,-158,o),
(356,-180,o),
(304,-180,qs),
(228,-180,qs),
(178,-180,o),
(112,-158,o),
(72,-104,o),
(72,-60,qs),
(72,-16,o),
(112,38,o),
(176,58,o),
(228,58,qs),
(304,58,q),
(304,78,l),
(198,78,o),
(98,54,o),
(52,-8,o),
(52,-60,qs),
(52,-112,o),
(98,-174,o),
(170,-200,o),
(228,-200,qs),
(304,-200,qs)
);
},
{
closed = 1;
nodes = (
(210,188,o),
(134,226,o),
(94,290,o),
(94,334,qs),
(94,378,o),
(134,444,o),
(210,480,o),
(266,480,qs),
(322,480,o),
(398,448,o),
(442,378,o),
(442,334,qs),
(442,290,o),
(400,226,o),
(322,188,o),
(266,188,qs)
);
}
);
width = 560;
},
{
anchors = (
{
name = bottom;
pos = (280,-200);
},
{
name = top;
pos = (270,500);
}
);
layerId = "CCD41F9B-A064-4484-B59C-AEE566599C6A";
shapes = (
{
closed = 1;
nodes = (
(398,-200,o),
(484,-168,o),
(530,-98,o),
(530,-46,qs),
(530,6,o),
(484,76,o),
(398,108,o),
(318,108,qs),
(230,108,ls),
(210,108,o),
(192,122,o),
(192,134,qs),
(192,146,o),
(210,160,o),
(230,160,qs),
(272,160,ls),
(354,160,o),
(446,200,o),
(492,268,o),
(492,314,qs),
(492,342,o),
(480,380,o),
(470,394,q),
(540,394,l),
(540,500,l),
(364,500,l),
(322,500,o),
(270,500,qs),
(194,500,o),
(98,462,o),
(42,386,o),
(42,330,qs),
(42,292,o),
(66,240,o),
(102,206,o),
(116,198,q),
(102,192,o),
(80,172,o),
(66,144,o),
(66,124,qs),
(66,92,o),
(106,50,o),
(182,32,o),
(236,32,qs),
(338,32,l),
(338,-10,l),
(358,-10,o),
(382,-16,o),
(396,-34,o),
(396,-46,qs),
(396,-58,o),
(382,-76,o),
(356,-82,o),
(338,-82,qs),
(218,-82,qs),
(198,-82,o),
(172,-76,o),
(158,-58,o),
(158,-46,qs),
(158,-34,o),
(172,-16,o),
(196,-10,o),
(218,-10,qs),
(338,-10,q),
(338,88,l),
(238,88,o),
(86,74,o),
(24,6,o),
(24,-46,qs),
(24,-98,o),
(70,-168,o),
(158,-200,o),
(238,-200,qs),
(318,-200,qs)
);
},
{
closed = 1;
nodes = (
(250,268,o),
(216,278,o),
(192,306,o),
(192,330,qs),
(192,354,o),
(216,382,o),
(250,392,o),
(270,392,qs),
(290,392,o),
(324,382,o),
(348,354,o),
(348,330,qs),
(348,306,o),
(324,278,o),
(290,268,o),
(270,268,qs)
);
}
);
width = 560;
},
{
anchors = (
{
name = bottom;
pos = (280,-200);
},
{
name = top;
pos = (270,500);
}
);
layerId = m003;
shapes = (
{
closed = 1;
nodes = (
(411,-200,o),
(490.667,-168,o),
(539,-98,o),
(539,-41,qs),
(539,17,o),
(490.667,86.667,o),
(411,119,o),
(331,119,qs),
(253,119,ls),
(237,119,o),
(220,131,o),
(220,143,qs),
(220,155,o),
(237,168,o),
(253,168,qs),
(271,168,ls),
(355,168,o),
(451.333,204,o),
(501,271,o),
(501,317,qs),
(501,339,o),
(492,372,o),
(485,385,q),
(547,385,l),
(547,500,l),
(364,500,l),
(322,500,o),
(270,500,qs),
(185,500,o),
(88.667,462,o),
(33,387,o),
(33,334,qs),
(33,299,o),
(59.333,241.333,o),
(99,208,o),
(112,203,q),
(98,197,o),
(74.667,177.333,o),
(61,151,o),
(61,131,qs),
(61,101,o),
(99.333,58,o),
(186,41,o),
(253,41,qs),
(347,41,l),
(347,-11,l),
(362,-11,o),
(379.333,-16,o),
(391,-30,o),
(391,-41,qs),
(391,-51,o),
(379.333,-65.333,o),
(361,-70,o),
(347,-70,qs),
(225,-70,qs),
(210,-70,o),
(192,-65.333,o),
(181,-51,o),
(181,-41,qs),
(181,-30,o),
(192,-16,o),
(209,-11,o),
(225,-11,qs),
(347,-11,q),
(347,88,l),
(250,88,o),
(98,83.333,o),
(32,14,o),
(32,-41,qs),
(32,-98,o),
(80.667,-168,o),
(162,-200,o),
(242,-200,qs),
(331,-200,qs)
);
},
{
closed = 1;
nodes = (
(253,285,o),
(228,295.333,o),
(213,318,o),
(213,334,qs),
(213,350,o),
(228,372.667,o),
(253,383,o),
(270,383,qs),
(287,383,o),
(312,372.667,o),
(327,350,o),
(327,334,qs),
(327,318,o),
(312,295.333,o),
(287,285,o),
(270,285,qs)
);
}
);
width = 568;
},
{
anchors = (
{
name = bottom;
pos = (280,-200);
},
{
name = top;
pos = (270,500);
}
);
layerId = m004;
shapes = (
{
closed = 1;
nodes = (
(384,-200,o),
(462,-170,o),
(510,-104,o),
(510,-52,qs),
(510,0,o),
(462,66,o),
(384,96,o),
(312,96,qs),
(206,96,ls),
(182,96,o),
(158,114,o),
(158,130,qs),
(158,146,o),
(182,164,o),
(206,164,qs),
(270,164,ls),
(344,164,o),
(432,204,o),
(480,274,o),
(480,324,qs),
(480,360,o),
(452,416,o),
(428,432,q),
(520,432,l),
(520,500,l),
(358,500,ls),
(322,500,o),
(268,500,qs),
(198,500,o),
(108,462,o),
(56,386,o),
(56,332,qs),
(56,292,o),
(82,236,o),
(122,202,o),
(138,194,q),
(120,190,o),
(92,170,o),
(78,142,o),
(78,124,qs),
(78,96,o),
(110,60,o),
(166,46,o),
(210,46,qs),
(324,46,l),
(324,20,l),
(356,20,o),
(398,8,o),
(424,-26,o),
(424,-52,qs),
(424,-78,o),
(398,-112,o),
(356,-124,o),
(324,-124,qs),
(222,-124,qs),
(190,-124,o),
(146,-112,o),
(122,-78,o),
(122,-52,qs),
(122,-26,o),
(146,8,o),
(188,20,o),
(222,20,qs),
(324,20,q),
(324,84,l),
(222,84,o),
(92,66,o),
(36,0,o),
(36,-52,qs),
(36,-104,o),
(82,-170,o),
(164,-200,o),
(234,-200,qs),
(312,-200,qs)
);
},
{
closed = 1;
nodes = (
(234,234,o),
(180,256,o),
(150,300,o),
(150,332,qs),
(150,364,o),
(180,408,o),
(234,430,o),
(268,430,qs),
(304,430,o),
(356,410,o),
(388,364,o),
(388,332,qs),
(388,300,o),
(356,256,o),
(304,234,o),
(268,234,qs)
);
}
);
width = 560;
},
{
anchors = (
{
name = bottom;
pos = (280,-200);
},
{
name = top;
pos = (270,500);
}
);
layerId = m006;
shapes = (
{
closed = 1;
nodes = (
(418,-200,o),
(494,-168,o),
(544,-98,o),
(544,-38,qs),
(544,22,o),
(494,92,o),
(418,124,o),
(338,124,qs),
(264,124,ls),
(250,124,o),
(234,136,o),
(234,148,qs),
(234,160,o),
(250,172,o),
(264,172,qs),
(270,172,ls),
(356,172,o),
(454,206,o),
(506,272,o),
(506,318,qs),
(506,338,o),
(498,368,o),
(492,380,q),
(550,380,l),
(550,500,l),
(364,500,l),
(322,500,o),
(270,500,qs),
(180,500,o),
(84,462,o),
(28,388,o),
(28,336,qs),
(28,302,o),
(56,242,o),
(96,210,o),
(110,206,q),
(96,200,o),
(72,180,o),
(58,154,o),
(58,134,qs),
(58,106,o),
(96,62,o),
(188,46,o),
(262,46,qs),
(352,46,l),
(352,-12,l),
(364,-12,o),
(378,-16,o),
(388,-28,o),
(388,-38,qs),
(388,-48,o),
(378,-60,o),
(364,-64,o),
(352,-64,qs),
(228,-64,qs),
(216,-64,o),
(202,-60,o),
(192,-48,o),
(192,-38,qs),
(192,-28,o),
(202,-16,o),
(216,-12,o),
(228,-12,qs),
(352,-12,q),
(352,88,l),
(256,88,o),
(104,88,o),
(36,18,o),
(36,-38,qs),
(36,-98,o),
(86,-168,o),
(164,-200,o),
(244,-200,qs),
(338,-200,qs)
);
},
{
closed = 1;
nodes = (
(254,294,o),
(234,304,o),
(224,324,o),
(224,336,qs),
(224,348,o),
(234,368,o),
(254,378,o),
(270,378,qs),
(286,378,o),
(306,368,o),
(316,348,o),
(316,336,qs),
(316,324,o),
(306,304,o),
(286,294,o),
(270,294,qs)
);
}
);
width = 570;
},
{
anchors = (
{
name = bottom;
pos = (280,-200);
},
{
name = top;
pos = (270,500);
}
);
layerId = m007;
shapes = (
{
closed = 1;
nodes = (
(368,-200,o),
(441,-173,o),
(489,-110,o),
(489,-58,qs),
(489,-6,o),
(441,57,o),
(368,83,o),
(306,84,qs),
(182,84,ls),
(152,83,o),
(124,107,o),
(124,126,qs),
(124,145,o),
(152,167,o),
(182,167,qs),
(267,167,ls),
(334,167,o),
(417,207,o),
(467,280,o),
(468,332,qs),
(467,377,o),
(422,452,o),
(386,468,q),
(520,468,l),
(520,500,l),
(354,500,ls),
(322,500,o),
(268,500,qs),
(201,500,o),
(118.5,460.5,o),
(70,386,o),
(70,334,qs),
(70,292,o),
(98.5,233,o),
(140,196,o),
(160,190,q),
(136,187,o),
(104,168.5,o),
(89,141,o),
(90,124,qs),
(89,99,o),
(113,70.5,o),
(150,58,o),
(183,58,qs),
(309,58,l),
(310,50,l),
(355,49,o),
(414.5,30.5,o),
(453,-18,o),
(454,-58,qs),
(453,-97,o),
(414.5,-146.5,o),
(356,-166,o),
(309,-166,qs),
(228,-166,qs),
(181,-166,o),
(120.5,-146.5,o),
(85,-97,o),
(86,-58,qs),
(85,-18,o),
(120.5,30.5,o),
(179,49,o),
(228,50,qs),
(310,50,q),
(310,80,l),
(204,80,o),
(96.5,57,o),
(48,-6,o),
(48,-58,qs),
(48,-110,o),
(94,-173,o),
(169,-200,o),
(230,-200,qs),
(306,-200,qs)
);
},
{
closed = 1;
nodes = (
(216,200,o),
(145.5,233.5,o),
(108,293,o),
(108,334,qs),
(108,375,o),
(145.5,435,o),
(216,468,o),
(268,468,qs),
(318,468,o),
(387.5,438.5,o),
(429,375,o),
(430,334,qs),
(429,293,o),
(389,233.5,o),
(318,200,o),
(268,200,qs)
);
}
);
width = 560;
}
);
userData = {
KernOnName = g;
};
},
{
glyphname = g.ss05;
kernLeft = o;
kernRight = "a-des";
lastChange = "2025-11-12 08:00:40 +0000";
layers = (
{
anchors = (
{
name = bottom;
pos = (280,-200);
},
{
name = top;
pos = (280,500);
}
);
layerId = m01;
shapes = (
{
pos = (560,0);
ref = "puzo-full-small";
scale = (-1,1);
},
{
closed = 1;
nodes = (
(338,-212,o),
(422,-172,o),
(474,-78,o),
(474,0,qs),
(474,244,l),
(454,244,l),
(454,0,ls),
(454,-72,o),
(408,-156,o),
(332,-192,o),
(270,-192,qs),
(214,-192,o),
(142,-166,o),
(96,-110,o),
(92,-60,q),
(72,-60,l),
(76,-116,o),
(128,-182,o),
(208,-212,o),
(270,-212,qs)
);
}
);
width = 560;
},
{
anchors = (
{
name = bottom;
pos = (280,-200);
},
{
name = top;
pos = (280,500);
}
);
layerId = "CCD41F9B-A064-4484-B59C-AEE566599C6A";
shapes = (
{
pos = (560,0);
ref = "puzo-full-small";
scale = (-1,1);
},
{
closed = 1;
nodes = (
(356,-212,o),
(460,-168,o),
(516,-64,o),
(516,40,qs),
(516,242,l),
(366,242,l),
(366,20,ls),
(366,-28,o),
(346,-74,o),
(306,-92,o),
(274,-92,qs),
(248,-92,o),
(218,-80,o),
(204,-56,o),
(202,-40,q),
(54,-40,l),
(56,-80,o),
(106,-164,o),
(200,-212,o),
(278,-212,qs)
);
}
);
width = 560;
},
{
anchors = (
{
name = bottom;
pos = (280,-200);
},
{
name = top;
pos = (280,500);
}
);
layerId = m003;
shapes = (
{
pos = (560,0);
ref = "puzo-full-small";
scale = (-1,1);
},
{
closed = 1;
nodes = (
(353,-212,o),
(465.333,-168,o),
(529,-67,o),
(529,27,qs),
(529,222,l),
(346,222,l),
(346,20,ls),
(346,-28,o),
(331.333,-62,o),
(301,-79,o),
(275,-79,qs),
(253,-79,o),
(227.333,-69.333,o),
(209,-48,o),
(207,-27,q),
(34,-27,l),
(37,-79,o),
(96.667,-166.667,o),
(197,-212,o),
(277,-212,qs)
);
}
);
width = 560;
},
{
anchors = (
{
name = bottom;
pos = (280,-200);
},
{
name = top;
pos = (280,500);
}
);
layerId = m004;
shapes = (
{
pos = (560,0);
ref = "puzo-full-small";
scale = (-1,1);
},
{
closed = 1;
nodes = (
(348,-212,o),
(443.714,-169.714,o),
(498,-70,o),
(498,23,qs),
(498,243,l),
(404,243,l),
(404,11,ls),
(404,-47,o),
(372.571,-109.143,o),
(317,-135,o),
(272,-135,qs),
(233,-135,o),
(185.429,-116.857,o),
(158,-80,o),
(155,-49,q),
(62,-49,l),
(65,-96,o),
(115.429,-171.714,o),
(203,-212,o),
(275,-212,qs)
);
}
);
width = 560;
},
{
anchors = (
{
name = bottom;
pos = (280,-200);
},
{
name = top;
pos = (280,500);
}
);
layerId = m006;
shapes = (
{
pos = (560,0);
ref = "puzo-full-small";
scale = (-1,1);
},
{
closed = 1;
nodes = (
(352,-212,o),
(468,-168,o),
(536,-68,o),
(536,20,qs),
(536,212,l),
(336,212,l),
(336,20,ls),
(336,-28,o),
(324,-56,o),
(298,-72,o),
(276,-72,qs),
(256,-72,o),
(232,-64,o),
(212,-44,o),
(210,-20,q),
(24,-20,l),
(28,-80,o),
(92,-168,o),
(196,-212,o),
(276,-212,qs)
);
}
);
width = 560;
},
{
anchors = (
{
name = bottom;
pos = (280,-200);
},
{
name = top;
pos = (280,500);
}
);
layerId = m007;
shapes = (
{
pos = (560,0);
ref = "puzo-full-small";
scale = (-1,1);
},
{
closed = 1;
nodes = (
(341,-212,o),
(427.428,-171.428,o),
(480,-76,o),
(480,6,qs),
(480,244,l),
(442,244,l),
(442,4,ls),
(442,-66,o),
(399.143,-144.286,o),
(328,-178,o),
(272,-178,qs),
(219,-178,o),
(152.857,-153.714,o),
(112,-103,o),
(108,-56,q),
(70,-56,l),
(73,-110,o),
(124.857,-179.428,o),
(207,-212,o),
(272,-212,qs)
);
}
);
width = 560;
}
);
metricLeft = o;
metricRight = a;
userData = {
KernOnName = g;
};
},
{
glyphname = gstroke.cv02;
kernLeft = o;
kernRight = t;
lastChange = "2025-11-12 08:00:40 +0000";
layers = (
{
layerId = m01;
shapes = (
{
ref = g.cv02;
},
{
closed = 1;
nodes = (
(520,320,l),
(520,340,l),
(250,340,l),
(250,320,l)
);
}
);
width = 560;
},
{
layerId = "CCD41F9B-A064-4484-B59C-AEE566599C6A";
shapes = (
{
ref = g.cv02;
},
{
closed = 1;
nodes = (
(540,300,l),
(540,360,l),
(250,360,l),
(250,300,l)
);
}
);
width = 560;
},
{
layerId = m003;
shapes = (
{
ref = g.cv02;
},
{
closed = 1;
nodes = (
(547,299,l),
(547,359,l),
(250,359,l),
(250,299,l)
);
}
);
width = 560;
},
{
layerId = m004;
shapes = (
{
ref = g.cv02;
},
{
closed = 1;
nodes = (
(531,309,l),
(531,351,l),
(250,351,l),
(250,309,l)
);
}
);
width = 560;
},
{
layerId = m006;
shapes = (
{
ref = g.cv02;
},
{
closed = 1;
nodes = (
(550,298,l),
(550,358,l),
(250,358,l),
(250,298,l)
);
}
);
width = 560;
},
{
layerId = m007;
shapes = (
{
ref = g.cv02;
},
{
closed = 1;
nodes = (
(524,318,l),
(524,344,l),
(250,344,l),
(250,318,l)
);
}
);
width = 560;
}
);
},
{
glyphname = h;
kernLeft = I;
kernRight = n;
lastChange = "2025-11-12 08:00:40 +0000";
layers = (
{
anchors = (
{
name = bottom;
pos = (280,0);
},
{
name = top;
pos = (100,700);
}
);
hints = (
{
horizontal = 1;
place = (0,21);
target = up;
type = BottomGhost;
},
{
horizontal = 1;
place = (512,20);
type = Stem;
},
{
horizontal = 1;
place = (720,-20);
target = down;
type = TopGhost;
},
{
place = (97,20);
type = Stem;
},
{
place = (455,20);
type = Stem;
}
);
layerId = m01;
shapes = (
{
closed = 1;
nodes = (
(110,0,l),
(110,700,l),
(90,700,l),
(90,0,l)
);
},
{
pos = (42,0);
ref = "puzo-n";
}
);
width = 560;
},
{
anchors = (
{
name = bottom;
pos = (286,0);
},
{
name = top;
pos = (134,700);
}
);
hints = (
{
place = (52,142);
type = Stem;
}
);
layerId = "CCD41F9B-A064-4484-B59C-AEE566599C6A";
shapes = (
{
closed = 1;
nodes = (
(206,0,l),
(206,700,l),
(56,700,l),
(56,0,l)
);
},
{
pos = (102,0);
ref = "puzo-n";
}
);
width = 560;
},
{
anchors = (
{
name = bottom;
pos = (283,0);
},
{
name = top;
pos = (134,700);
}
);
hints = (
{
horizontal = 1;
place = (0,21);
target = up;
type = BottomGhost;
},
{
horizontal = 1;
place = (52,142);
type = Stem;
},
{
horizontal = 1;
place = (0,-20);
target = down;
type = TopGhost;
},
{
place = (0,0);
type = Stem;
},
{
place = (0,0);
type = Stem;
}
);
layerId = m003;
shapes = (
{
closed = 1;
nodes = (
(223,0,l),
(223,700,l),
(40,700,l),
(40,0,l)
);
},
{
pos = (122,0);
ref = "puzo-n";
}
);
width = 560;
},
{
anchors = (
{
name = bottom;
pos = (283,0);
},
{
name = top;
pos = (119,700);
}
);
hints = (
{
horizontal = 1;
place = (0,21);
target = up;
type = BottomGhost;
},
{
horizontal = 1;
place = (249,90);
type = Stem;
},
{
horizontal = 1;
place = (309,-20);
target = down;
type = TopGhost;
},
{
place = (42,9);
type = Stem;
},
{
place = (195,9);
type = Stem;
}
);
layerId = m004;
shapes = (
{
closed = 1;
nodes = (
(165,0,l),
(165,700,l),
(71,700,l),
(71,0,l)
);
},
{
pos = (76,0);
ref = "puzo-n";
}
);
width = 560;
},
{
anchors = (
{
name = bottom;
pos = (282,0);
},
{
name = top;
pos = (134,700);
}
);
hints = (
{
place = (52,142);
type = Stem;
}
);
layerId = m006;
shapes = (
{
closed = 1;
nodes = (
(232,0,l),
(232,700,l),
(32,700,l),
(32,0,l)
);
},
{
pos = (132,0);
ref = "puzo-n";
}
);
width = 560;
},
{
anchors = (
{
name = bottom;
pos = (281,0);
},
{
name = top;
pos = (105,700);
}
);
hints = (
{
horizontal = 1;
place = (0,21);
target = up;
type = BottomGhost;
},
{
horizontal = 1;
place = (446,38);
type = Stem;
},
{
horizontal = 1;
place = (617,-20);
target = down;
type = TopGhost;
},
{
place = (83,17);
type = Stem;
},
{
place = (390,17);
type = Stem;
}
);
layerId = m007;
shapes = (
{
closed = 1;
nodes = (
(124,0,l),
(124,700,l),
(86,700,l),
(86,0,l)
);
},
{
pos = (51,0);
ref = "puzo-n";
}
);
width = 560;
}
);
metricLeft = n;
metricRight = n;
unicode = 104;
},
{
glyphname = idotless;
kernLeft = n;
kernRight = n;
lastChange = "2025-11-12 08:00:40 +0000";
layers = (
{
anchors = (
{
name = bottom;
pos = (130,0);
},
{
name = ogonek;
pos = (122,0);
},
{
name = top;
pos = (130,500);
}
);
layerId = m01;
shapes = (
{
closed = 1;
nodes = (
(140,0,l),
(140,500,l),
(120,500,l),
(120,0,l)
);
}
);
width = 260;
},
{
anchors = (
{
name = bottom;
pos = (130,0);
},
{
name = ogonek;
pos = (92,0);
},
{
name = top;
pos = (130,500);
}
);
layerId = "CCD41F9B-A064-4484-B59C-AEE566599C6A";
shapes = (
{
closed = 1;
nodes = (
(206,0,l),
(206,500,l),
(54,500,l),
(54,0,l)
);
}
);
width = 260;
},
{
anchors = (
{
name = bottom;
pos = (130,0);
},
{
name = ogonek;
pos = (91,0);
},
{
name = top;
pos = (130,500);
}
);
layerId = m003;
shapes = (
{
closed = 1;
nodes = (
(222,0,l),
(222,500,l),
(38,500,l),
(38,0,l)
);
}
);
width = 260;
},
{
anchors = (
{
name = bottom;
pos = (130,0);
},
{
name = ogonek;
pos = (105,0);
},
{
name = top;
pos = (130,500);
}
);
layerId = m004;
shapes = (
{
closed = 1;
nodes = (
(178,0,l),
(178,500,l),
(82,500,l),
(82,0,l)
);
}
);
width = 260;
},
{
anchors = (
{
name = bottom;
pos = (130,0);
},
{
name = ogonek;
pos = (90,0);
},
{
name = top;
pos = (130,500);
}
);
layerId = m006;
shapes = (
{
closed = 1;
nodes = (
(230,0,l),
(230,500,l),
(30,500,l),
(30,0,l)
);
}
);
width = 260;
},
{
anchors = (
{
name = bottom;
pos = (130,0);
},
{
name = ogonek;
pos = (118,0);
},
{
name = top;
pos = (130,500);
}
);
layerId = m007;
shapes = (
{
closed = 1;
nodes = (
(150,0,l),
(150,500,l),
(112,500,l),
(112,0,l)
);
}
);
width = 260;
}
);
unicode = 305;
},
{
glyphname = jdotless;
kernLeft = "j-n";
kernRight = "n-des";
lastChange = "2025-11-12 08:00:40 +0000";
layers = (
{
anchors = (
{
name = bottom;
pos = (80,-200);
},
{
name = top;
pos = (130,500);
}
);
layerId = m01;
shapes = (
{
closed = 1;
nodes = (
(120,500,l),
(120,-80,ls),
(120,-130,o),
(70,-180,o),
(20,-180,qs),
(-60,-180,l),
(-60,-200,l),
(20,-200,ls),
(80,-200,o),
(140,-140,o),
(140,-80,qs),
(140,500,l)
);
}
);
width = 260;
},
{
anchors = (
{
name = bottom;
pos = (80,-200);
},
{
name = top;
pos = (130,500);
}
);
layerId = "CCD41F9B-A064-4484-B59C-AEE566599C6A";
shapes = (
{
closed = 1;
nodes = (
(56,500,l),
(56,-34,ls),
(56,-54,o),
(36,-74,o),
(16,-74,qs),
(-60,-74,l),
(-60,-200,l),
(66,-200,ls),
(136,-200,o),
(206,-130,o),
(206,-60,qs),
(206,500,l)
);
}
);
width = 260;
},
{
anchors = (
{
name = bottom;
pos = (80,-200);
},
{
name = top;
pos = (130,500);
}
);
layerId = m003;
shapes = (
{
closed = 1;
nodes = (
(39,500,l),
(39,-29,ls),
(39,-43,o),
(24,-58,o),
(9,-58,qs),
(-60,-58,l),
(-60,-200,l),
(89,-200,ls),
(155,-200,o),
(222,-133,o),
(222,-67,qs),
(222,500,l)
);
}
);
width = 260;
},
{
anchors = (
{
name = bottom;
pos = (80,-200);
},
{
name = top;
pos = (130,500);
}
);
layerId = m004;
shapes = (
{
closed = 1;
nodes = (
(83,500,l),
(83,-54,ls),
(83,-87,o),
(51,-119,o),
(18,-119,qs),
(-60,-119,l),
(-60,-200,l),
(46,-200,ls),
(112,-200,o),
(178,-134,o),
(178,-69,qs),
(178,500,l)
);
}
);
width = 260;
},
{
anchors = (
{
name = bottom;
pos = (80,-200);
},
{
name = top;
pos = (130,500);
}
);
layerId = m006;
shapes = (
{
closed = 1;
nodes = (
(30,500,l),
(30,-26,ls),
(30,-38,o),
(18,-50,o),
(6,-50,qs),
(-60,-50,l),
(-60,-200,l),
(100,-200,ls),
(164,-200,o),
(230,-134,o),
(230,-70,qs),
(230,500,l)
);
}
);
width = 260;
},
{
anchors = (
{
name = bottom;
pos = (80,-200);
},
{
name = top;
pos = (130,500);
}
);
layerId = m007;
shapes = (
{
closed = 1;
nodes = (
(112,500,l),
(112,-72,ls),
(111,-119,o),
(65,-165,o),
(20,-164,qs),
(-60,-164,l),
(-60,-200,l),
(28,-200,ls),
(88,-200,o),
(150,-138,o),
(150,-76,qs),
(150,500,l)
);
}
);
width = 260;
}
);
metricRight = idotless;
unicode = 567;
},
{
glyphname = jdotless.ss03;
kernLeft = n;
kernRight = "n-des";
lastChange = "2025-11-12 08:00:40 +0000";
layers = (
{
anchors = (
{
name = bottom;
pos = (130,-200);
},
{
name = top;
pos = (130,500);
}
);
layerId = m01;
shapes = (
{
closed = 1;
nodes = (
(140,-200,l),
(140,500,l),
(120,500,l),
(120,-200,l)
);
}
);
width = 260;
},
{
anchors = (
{
name = bottom;
pos = (130,-200);
},
{
name = top;
pos = (130,500);
}
);
layerId = "CCD41F9B-A064-4484-B59C-AEE566599C6A";
shapes = (
{
closed = 1;
nodes = (
(206,-200,l),
(206,500,l),
(54,500,l),
(54,-200,l)
);
}
);
width = 260;
},
{
anchors = (
{
name = bottom;
pos = (130,-200);
},
{
name = top;
pos = (130,500);
}
);
layerId = m003;
shapes = (
{
closed = 1;
nodes = (
(222,-200,l),
(222,500,l),
(38,500,l),
(38,-200,l)
);
}
);
width = 260;
},
{
anchors = (
{
name = bottom;
pos = (130,-200);
},
{
name = top;
pos = (130,500);
}
);
layerId = m004;
shapes = (
{
closed = 1;
nodes = (
(178,-200,l),
(178,500,l),
(82,500,l),
(82,-200,l)
);
}
);
width = 260;
},
{
anchors = (
{
name = bottom;
pos = (130,-200);
},
{
name = top;
pos = (130,500);
}
);
layerId = m006;
shapes = (
{
closed = 1;
nodes = (
(230,-200,l),
(230,500,l),
(30,500,l),
(30,-200,l)
);
}
);
width = 260;
},
{
anchors = (
{
name = bottom;
pos = (130,-200);
},
{
name = top;
pos = (130,500);
}
);
layerId = m007;
shapes = (
{
closed = 1;
nodes = (
(150,-200,l),
(150,500,l),
(112,500,l),
(112,-200,l)
);
}
);
width = 260;
}
);
metricLeft = idotless;
metricRight = idotless;
},
{
glyphname = k;
kernLeft = I;
kernRight = x;
lastChange = "2025-11-12 08:00:40 +0000";
layers = (
{
anchors = (
{
name = bottom;
pos = (280,0);
},
{
name = top;
pos = (100,700);
}
);
layerId = m01;
shapes = (
{
closed = 1;
nodes = (
(110,0,l),
(110,700,l),
(90,700,l),
(90,0,l)
);
},
{
ref = kgreenlandic;
}
);
width = 580;
},
{
anchors = (
{
name = bottom;
pos = (280,0);
},
{
name = top;
pos = (136,700);
}
);
layerId = "CCD41F9B-A064-4484-B59C-AEE566599C6A";
shapes = (
{
closed = 1;
nodes = (
(206,0,l),
(206,700,l),
(56,700,l),
(56,0,l)
);
},
{
ref = kgreenlandic;
}
);
width = 580;
},
{
anchors = (
{
name = bottom;
pos = (280,0);
},
{
name = top;
pos = (135,700);
}
);
layerId = m003;
shapes = (
{
closed = 1;
nodes = (
(223,0,l),
(223,700,l),
(40,700,l),
(40,0,l)
);
},
{
ref = kgreenlandic;
}
);
width = 580;
},
{
anchors = (
{
name = bottom;
pos = (280,0);
},
{
name = top;
pos = (121,700);
}
);
layerId = m004;
shapes = (
{
closed = 1;
nodes = (
(165,0,l),
(165,700,l),
(71,700,l),
(71,0,l)
);
},
{
ref = kgreenlandic;
}
);
width = 580;
},
{
anchors = (
{
name = bottom;
pos = (280,0);
},
{
name = top;
pos = (134,700);
}
);
layerId = m006;
shapes = (
{
closed = 1;
nodes = (
(232,0,l),
(232,700,l),
(32,700,l),
(32,0,l)
);
},
{
ref = kgreenlandic;
}
);
width = 580;
},
{
anchors = (
{
name = bottom;
pos = (280,0);
},
{
name = top;
pos = (105,700);
}
);
layerId = m007;
shapes = (
{
closed = 1;
nodes = (
(124,0,l),
(124,700,l),
(86,700,l),
(86,0,l)
);
},
{
ref = kgreenlandic;
}
);
width = 580;
}
);
metricLeft = n;
unicode = 107;
userData = {
KernOnName = k;
};
},
{
glyphname = k.cv07;
kernLeft = I;
kernRight = x;
lastChange = "2025-11-12 08:00:40 +0000";
layers = (
{
anchors = (
{
name = bottom;
pos = (280,0);
},
{
name = top;
pos = (100,700);
}
);
layerId = m01;
shapes = (
{
closed = 1;
nodes = (
(110,0,l),
(110,700,l),
(90,700,l),
(90,0,l)
);
},
{
ref = kappa.cv07;
}
);
width = 580;
},
{
anchors = (
{
name = bottom;
pos = (280,0);
},
{
name = top;
pos = (136,700);
}
);
layerId = "CCD41F9B-A064-4484-B59C-AEE566599C6A";
shapes = (
{
closed = 1;
nodes = (
(206,0,l),
(206,700,l),
(56,700,l),
(56,0,l)
);
},
{
ref = kappa.cv07;
}
);
width = 580;
},
{
anchors = (
{
name = bottom;
pos = (280,0);
},
{
name = top;
pos = (135,700);
}
);
layerId = m003;
shapes = (
{
closed = 1;
nodes = (
(223,0,l),
(223,700,l),
(40,700,l),
(40,0,l)
);
},
{
ref = kappa.cv07;
}
);
width = 580;
},
{
anchors = (
{
name = bottom;
pos = (280,0);
},
{
name = top;
pos = (121,700);
}
);
layerId = m004;
shapes = (
{
closed = 1;
nodes = (
(165,0,l),
(165,700,l),
(71,700,l),
(71,0,l)
);
},
{
ref = kappa.cv07;
}
);
width = 580;
},
{
anchors = (
{
name = bottom;
pos = (280,0);
},
{
name = top;
pos = (134,700);
}
);
layerId = m006;
shapes = (
{
closed = 1;
nodes = (
(232,0,l),
(232,700,l),
(32,700,l),
(32,0,l)
);
},
{
ref = kappa.cv07;
}
);
width = 580;
},
{
anchors = (
{
name = bottom;
pos = (280,0);
},
{
name = top;
pos = (105,700);
}
);
layerId = m007;
shapes = (
{
closed = 1;
nodes = (
(124,0,l),
(124,700,l),
(86,700,l),
(86,0,l)
);
},
{
ref = kappa.cv07;
}
);
width = 580;
}
);
metricLeft = n;
userData = {
KernOnName = k;
};
},
{
glyphname = kgreenlandic;
kernLeft = n;
kernRight = x;
lastChange = "2025-11-12 08:00:40 +0000";
layers = (
{
layerId = m01;
shapes = (
{
closed = 1;
nodes = (
(110,0,l),
(110,166,l),
(288,304,l),
(512,0,l),
(538,0,l),
(304,316,l),
(540,500,l),
(510,500,l),
(110,188,l),
(110,500,l),
(90,500,l),
(90,0,l)
);
}
);
width = 580;
},
{
layerId = "CCD41F9B-A064-4484-B59C-AEE566599C6A";
shapes = (
{
closed = 1;
nodes = (
(206,0,l),
(206,142,l),
(268,212,l),
(394,0,l),
(564,0,l),
(380,302,l),
(564,500,l),
(402,500,l),
(206,296,l),
(206,500,l),
(56,500,l),
(56,0,l)
);
}
);
width = 580;
},
{
layerId = m003;
shapes = (
{
closed = 1;
nodes = (
(223,0,l),
(223,143,l),
(261,192,l),
(359,0,l),
(568,0,l),
(407,303,l),
(568,500,l),
(379,500,l),
(223,317,l),
(223,500,l),
(40,500,l),
(40,0,l)
);
}
);
width = 580;
},
{
layerId = m004;
shapes = (
{
closed = 1;
nodes = (
(165,0,l),
(165,152,l),
(277,251,l),
(445,0,l),
(553,0,l),
(347,308,l),
(554,500,l),
(448,500,l),
(165,250,l),
(165,500,l),
(71,500,l),
(71,0,l)
);
}
);
width = 580;
},
{
layerId = m006;
shapes = (
{
closed = 1;
nodes = (
(232,0,l),
(232,144,l),
(258,182,l),
(342,0,l),
(570,0,l),
(420,304,l),
(570,500,l),
(368,500,l),
(232,328,l),
(232,500,l),
(32,500,l),
(32,0,l)
);
}
);
width = 580;
},
{
layerId = m007;
shapes = (
{
closed = 1;
nodes = (
(124,0,l),
(124,164,l),
(286,292,l),
(496,0,l),
(542,0,l),
(316,314,l),
(544,500,l),
(496,500,l),
(124,204,l),
(124,500,l),
(86,500,l),
(86,0,l)
);
}
);
width = 580;
}
);
metricLeft = n;
metricRight = x;
unicode = 312;
},
{
glyphname = l;
kernLeft = I;
kernRight = I;
lastChange = "2025-11-12 08:00:40 +0000";
layers = (
{
anchors = (
{
name = bottom;
pos = (130,0);
},
{
name = top;
pos = (130,700);
}
);
layerId = m01;
shapes = (
{
closed = 1;
nodes = (
(140,0,l),
(140,700,l),
(120,700,l),
(120,0,l)
);
}
);
width = 260;
},
{
anchors = (
{
name = bottom;
pos = (130,0);
},
{
name = top;
pos = (130,700);
}
);
layerId = "CCD41F9B-A064-4484-B59C-AEE566599C6A";
shapes = (
{
closed = 1;
nodes = (
(206,0,l),
(206,700,l),
(54,700,l),
(54,0,l)
);
}
);
width = 260;
},
{
anchors = (
{
name = bottom;
pos = (130,0);
},
{
name = top;
pos = (130,700);
}
);
layerId = m003;
shapes = (
{
closed = 1;
nodes = (
(222,0,l),
(222,700,l),
(38,700,l),
(38,0,l)
);
}
);
width = 260;
},
{
anchors = (
{
name = bottom;
pos = (130,0);
},
{
name = top;
pos = (130,700);
}
);
layerId = m004;
shapes = (
{
closed = 1;
nodes = (
(178,0,l),
(178,700,l),
(82,700,l),
(82,0,l)
);
}
);
width = 260;
},
{
anchors = (
{
name = bottom;
pos = (130,0);
},
{
name = top;
pos = (130,700);
}
);
layerId = m006;
shapes = (
{
closed = 1;
nodes = (
(230,0,l),
(230,700,l),
(30,700,l),
(30,0,l)
);
}
);
width = 260;
},
{
anchors = (
{
name = bottom;
pos = (130,0);
},
{
name = top;
pos = (130,700);
}
);
layerId = m007;
shapes = (
{
closed = 1;
nodes = (
(150,0,l),
(150,700,l),
(112,700,l),
(112,0,l)
);
}
);
width = 260;
}
);
metricLeft = idotless;
metricRight = idotless;
unicode = 108;
},
{
glyphname = l.ss02;
kernLeft = I;
kernRight = "l-tail";
lastChange = "2025-11-12 08:00:40 +0000";
layers = (
{
anchors = (
{
name = bottom;
pos = (194,0);
},
{
name = top;
pos = (110,700);
}
);
layerId = m01;
shapes = (
{
closed = 1;
nodes = (
(100,120,ls),
(100,60,o),
(160,0,o),
(220,0,qs),
(260,0,l),
(260,20,l),
(220,20,ls),
(170,20,o),
(120,70,o),
(120,120,qs),
(120,700,l),
(100,700,l)
);
}
);
width = 300;
},
{
anchors = (
{
name = bottom;
pos = (188,0);
},
{
name = top;
pos = (130,700);
}
);
layerId = "CCD41F9B-A064-4484-B59C-AEE566599C6A";
shapes = (
{
closed = 1;
nodes = (
(54,140,ls),
(54,70,o),
(124,0,o),
(194,0,qs),
(280,0,l),
(280,126,l),
(244,126,ls),
(224,126,o),
(204,146,o),
(204,166,qs),
(204,700,l),
(54,700,l)
);
}
);
width = 300;
},
{
anchors = (
{
name = bottom;
pos = (183,0);
},
{
name = top;
pos = (130,700);
}
);
layerId = m003;
shapes = (
{
closed = 1;
nodes = (
(38,133,ls),
(38,67,o),
(105,0,o),
(171,0,qs),
(287,0,l),
(287,149,l),
(251,149,ls),
(236,149,o),
(221,163,o),
(221,178,qs),
(221,700,l),
(38,700,l)
);
}
);
width = 300;
},
{
anchors = (
{
name = bottom;
pos = (191,0);
},
{
name = top;
pos = (121,700);
}
);
layerId = m004;
shapes = (
{
closed = 1;
nodes = (
(74,131,ls),
(74,66,o),
(139,0,o),
(205,0,qs),
(271,0,l),
(271,81,l),
(234,81,ls),
(201,81,o),
(168,113,o),
(168,146,qs),
(168,700,l),
(74,700,l)
);
}
);
width = 300;
},
{
anchors = (
{
name = bottom;
pos = (180,0);
},
{
name = top;
pos = (130,700);
}
);
layerId = m006;
shapes = (
{
closed = 1;
nodes = (
(30,130,ls),
(30,66,o),
(96,0,o),
(160,0,qs),
(290,0,l),
(290,160,l),
(254,160,ls),
(242,160,o),
(230,172,o),
(230,184,qs),
(230,700,l),
(30,700,l)
);
}
);
width = 300;
},
{
anchors = (
{
name = bottom;
pos = (193,0);
},
{
name = top;
pos = (113,700);
}
);
layerId = m007;
shapes = (
{
closed = 1;
nodes = (
(94,124,ls),
(94,62,o),
(155,0,o),
(216,0,qs),
(264,0,l),
(264,36,l),
(224,36,ls),
(178,35,o),
(132,81,o),
(132,128,qs),
(132,700,l),
(94,700,l)
);
}
);
width = 300;
}
);
metricRight = tau;
},
{
glyphname = ldot;
kernLeft = I;
kernRight = O;
lastChange = "2025-11-12 08:00:40 +0000";
layers = (
{
layerId = m01;
shapes = (
{
alignment = -1;
ref = l;
},
{
closed = 1;
nodes = (
(202,346,o),
(218,330,o),
(230,330,qs),
(234,330,ls),
(246,330,o),
(262,346,o),
(262,360,qs),
(262,374,o),
(246,390,o),
(234,390,qs),
(230,390,ls),
(218,390,o),
(202,374,o),
(202,360,qs)
);
}
);
width = 400;
},
{
layerId = "CCD41F9B-A064-4484-B59C-AEE566599C6A";
shapes = (
{
alignment = -1;
ref = l;
},
{
closed = 1;
nodes = (
(222,319,o),
(260,268,o),
(296,268,qs),
(304,268,ls),
(340,268,o),
(376,321,o),
(376,361,qs),
(376,401,o),
(337,452,o),
(301,452,qs),
(293,452,ls),
(257,452,o),
(222,399,o),
(222,359,qs)
);
}
);
width = 400;
},
{
layerId = m003;
shapes = (
{
alignment = -1;
ref = l;
},
{
closed = 1;
nodes = (
(242,313,o),
(279,255,o),
(312,255,qs),
(320,255,ls),
(353,255,o),
(387,315,o),
(387,362,qs),
(387,408,o),
(350,465,o),
(316,465,qs),
(308,465,ls),
(275,465,o),
(242,406,o),
(242,360,qs)
);
}
);
width = 400;
},
{
layerId = m004;
shapes = (
{
alignment = -1;
ref = l;
},
{
closed = 1;
nodes = (
(213,331,o),
(242,295,o),
(268,295,qs),
(274,295,ls),
(300,295,o),
(327,332,o),
(327,361,qs),
(327,389,o),
(298,425,o),
(272,425,qs),
(266,425,ls),
(240,425,o),
(213,388,o),
(213,359,qs)
);
}
);
width = 400;
},
{
layerId = m006;
shapes = (
{
alignment = -1;
ref = l;
},
{
closed = 1;
nodes = (
(252,310,o),
(288,248,o),
(320,248,qs),
(328,248,ls),
(360,248,o),
(392,312,o),
(392,362,qs),
(392,412,o),
(356,472,o),
(324,472,qs),
(316,472,ls),
(284,472,o),
(252,410,o),
(252,360,qs)
);
}
);
width = 400;
},
{
layerId = m007;
shapes = (
{
alignment = -1;
ref = l;
},
{
closed = 1;
nodes = (
(205,342,o),
(224,321,o),
(240,322,qs),
(244,322,ls),
(260,321,o),
(278,343,o),
(278,360,qs),
(278,378,o),
(259,399,o),
(244,400,qs),
(240,400,ls),
(224,399,o),
(205,378,o),
(206,360,qs)
);
}
);
width = 400;
}
);
metricLeft = l;
unicode = 320;
},
{
glyphname = ldot.ss02;
kernLeft = I;
kernRight = O;
lastChange = "2025-11-12 08:00:40 +0000";
layers = (
{
layerId = m01;
shapes = (
{
alignment = -1;
pos = (20,0);
ref = l.ss02;
},
{
closed = 1;
nodes = (
(202,346,o),
(218,330,o),
(230,330,qs),
(234,330,ls),
(246,330,o),
(262,346,o),
(262,360,qs),
(262,374,o),
(246,390,o),
(234,390,qs),
(230,390,ls),
(218,390,o),
(202,374,o),
(202,360,qs)
);
}
);
width = 400;
},
{
layerId = "CCD41F9B-A064-4484-B59C-AEE566599C6A";
shapes = (
{
alignment = -1;
ref = l.ss02;
},
{
closed = 1;
nodes = (
(222,319,o),
(260,268,o),
(296,268,qs),
(304,268,ls),
(340,268,o),
(376,321,o),
(376,361,qs),
(376,401,o),
(337,452,o),
(301,452,qs),
(293,452,ls),
(257,452,o),
(222,399,o),
(222,359,qs)
);
}
);
width = 400;
},
{
layerId = m003;
shapes = (
{
alignment = -1;
ref = l.ss02;
},
{
closed = 1;
nodes = (
(242,313,o),
(279,255,o),
(312,255,qs),
(320,255,ls),
(353,255,o),
(387,315,o),
(387,362,qs),
(387,408,o),
(350,465,o),
(316,465,qs),
(308,465,ls),
(275,465,o),
(242,406,o),
(242,360,qs)
);
}
);
width = 400;
},
{
layerId = m004;
shapes = (
{
alignment = -1;
pos = (8,0);
ref = l.ss02;
},
{
closed = 1;
nodes = (
(213,331,o),
(242,295,o),
(268,295,qs),
(274,295,ls),
(300,295,o),
(327,332,o),
(327,361,qs),
(327,389,o),
(298,425,o),
(272,425,qs),
(266,425,ls),
(240,425,o),
(213,388,o),
(213,359,qs)
);
}
);
width = 400;
},
{
layerId = m006;
shapes = (
{
alignment = -1;
ref = l.ss02;
},
{
closed = 1;
nodes = (
(252,310,o),
(288,248,o),
(320,248,qs),
(328,248,ls),
(360,248,o),
(392,312,o),
(392,362,qs),
(392,412,o),
(356,472,o),
(324,472,qs),
(316,472,ls),
(284,472,o),
(252,410,o),
(252,360,qs)
);
}
);
width = 400;
},
{
layerId = m007;
shapes = (
{
alignment = -1;
pos = (17,0);
ref = l.ss02;
},
{
closed = 1;
nodes = (
(205,342,o),
(224,321,o),
(240,322,qs),
(244,322,ls),
(260,321,o),
(278,343,o),
(278,360,qs),
(278,378,o),
(259,399,o),
(244,400,qs),
(240,400,ls),
(224,399,o),
(205,378,o),
(206,360,qs)
);
}
);
width = 400;
}
);
metricLeft = l;
},
{
glyphname = lslash;
kernLeft = I;
kernRight = I;
lastChange = "2025-11-12 08:00:40 +0000";
layers = (
{
layerId = m01;
shapes = (
{
closed = 1;
nodes = (
(280,388,l),
(280,410,l),
(20,312,l),
(20,290,l)
);
},
{
alignment = -1;
pos = (22,0);
ref = l;
}
);
width = 300;
},
{
layerId = "CCD41F9B-A064-4484-B59C-AEE566599C6A";
shapes = (
{
closed = 1;
nodes = (
(300,356,l),
(300,470,l),
(0,344,l),
(0,230,l)
);
},
{
alignment = -1;
pos = (21,0);
ref = l;
}
);
width = 300;
},
{
layerId = m003;
shapes = (
{
closed = 1;
nodes = (
(300,349,l),
(300,477,l),
(0,351,l),
(0,223,l)
);
},
{
alignment = -1;
pos = (21,0);
ref = l;
}
);
width = 300;
},
{
layerId = m004;
shapes = (
{
closed = 1;
nodes = (
(291,370,l),
(291,444,l),
(9,330,l),
(9,256,l)
);
},
{
alignment = -1;
pos = (21,0);
ref = l;
}
);
width = 300;
},
{
layerId = m006;
shapes = (
{
closed = 1;
nodes = (
(300,346,l),
(300,480,l),
(0,354,l),
(0,220,l)
);
},
{
alignment = -1;
pos = (21,0);
ref = l;
}
);
width = 300;
},
{
layerId = m007;
shapes = (
{
closed = 1;
nodes = (
(284,384,l),
(284,420,l),
(18,318,l),
(18,282,l)
);
},
{
alignment = -1;
pos = (22,0);
ref = l;
}
);
width = 300;
}
);
unicode = 322;
},
{
glyphname = lslash.ss02;
kernLeft = I;
kernRight = "l-tail";
lastChange = "2025-11-12 08:00:40 +0000";
layers = (
{
layerId = m01;
shapes = (
{
closed = 1;
nodes = (
(280,388,l),
(280,410,l),
(20,312,l),
(20,290,l)
);
},
{
alignment = -1;
pos = (20,0);
ref = l.ss02;
}
);
width = 320;
},
{
layerId = "CCD41F9B-A064-4484-B59C-AEE566599C6A";
shapes = (
{
closed = 1;
nodes = (
(300,356,l),
(300,470,l),
(0,344,l),
(0,230,l)
);
},
{
alignment = -1;
pos = (20,0);
ref = l.ss02;
}
);
width = 320;
},
{
layerId = m003;
shapes = (
{
closed = 1;
nodes = (
(307,349,l),
(307,477,l),
(0,351,l),
(0,223,l)
);
},
{
alignment = -1;
pos = (20,0);
ref = l.ss02;
}
);
width = 320;
},
{
layerId = m004;
shapes = (
{
closed = 1;
nodes = (
(291,370,l),
(291,444,l),
(9,330,l),
(9,256,l)
);
},
{
alignment = -1;
pos = (20,0);
ref = l.ss02;
}
);
width = 320;
},
{
layerId = m006;
shapes = (
{
closed = 1;
nodes = (
(310,346,l),
(310,480,l),
(0,354,l),
(0,220,l)
);
},
{
alignment = -1;
pos = (20,0);
ref = l.ss02;
}
);
width = 320;
},
{
layerId = m007;
shapes = (
{
closed = 1;
nodes = (
(284,384,l),
(284,420,l),
(18,318,l),
(18,282,l)
);
},
{
alignment = -1;
pos = (20,0);
ref = l.ss02;
}
);
width = 320;
}
);
metricRight = tau;
},
{
glyphname = m;
kernLeft = n;
kernRight = n;
lastChange = "2025-11-12 08:00:40 +0000";
layers = (
{
anchors = (
{
name = bottom;
pos = (422,0);
},
{
name = top;
pos = (422,500);
}
);
layerId = m01;
shapes = (
{
closed = 1;
nodes = (
(110,0,l),
(110,500,l),
(90,500,l),
(90,0,l)
);
},
{
pos = (82,0);
ref = "puzo-m";
}
);
width = 840;
},
{
anchors = (
{
name = bottom;
pos = (424,0);
},
{
name = top;
pos = (424,500);
}
);
layerId = "CCD41F9B-A064-4484-B59C-AEE566599C6A";
shapes = (
{
closed = 1;
nodes = (
(206,0,l),
(206,500,l),
(56,500,l),
(56,0,l)
);
},
{
pos = (140,0);
ref = "puzo-m";
}
);
width = 840;
},
{
anchors = (
{
name = bottom;
pos = (433,0);
},
{
name = top;
pos = (433,500);
}
);
layerId = m003;
shapes = (
{
closed = 1;
nodes = (
(223,0,l),
(223,500,l),
(40,500,l),
(40,0,l)
);
},
{
pos = (155,0);
ref = "puzo-m";
}
);
width = 840;
},
{
anchors = (
{
name = bottom;
pos = (423,0);
},
{
name = top;
pos = (423,500);
}
);
layerId = m004;
shapes = (
{
closed = 1;
nodes = (
(166,0,l),
(166,500,l),
(72,500,l),
(72,0,l)
);
},
{
pos = (116,0);
ref = "puzo-m";
}
);
width = 840;
},
{
anchors = (
{
name = bottom;
pos = (438,0);
},
{
name = top;
pos = (438,500);
}
);
layerId = m006;
shapes = (
{
closed = 1;
nodes = (
(232,0,l),
(232,500,l),
(32,500,l),
(32,0,l)
);
},
{
pos = (162,0);
ref = "puzo-m";
}
);
width = 840;
},
{
anchors = (
{
name = bottom;
pos = (422,0);
},
{
name = top;
pos = (422,500);
}
);
layerId = m007;
shapes = (
{
closed = 1;
nodes = (
(124,0,l),
(124,500,l),
(86,500,l),
(86,0,l)
);
},
{
pos = (91,0);
ref = "puzo-m";
}
);
width = 840;
}
);
metricLeft = n;
metricRight = n;
unicode = 109;
},
{
glyphname = m.ss05;
kernLeft = rho;
kernRight = a;
lastChange = "2025-11-12 08:00:40 +0000";
layers = (
{
anchors = (
{
name = bottom;
pos = (410,0);
},
{
name = top;
pos = (410,500);
}
);
layerId = m01;
shapes = (
{
closed = 1;
nodes = (
(106,0,l),
(106,342,ls),
(106,400,o),
(148,464,o),
(214,492,o),
(254,492,qs),
(294,492,o),
(360,464,o),
(400,400,o),
(400,342,qs),
(400,0,l),
(420,0,l),
(420,342,ls),
(420,400,o),
(460,464,o),
(526,492,o),
(566,492,qs),
(606,492,o),
(676,464,o),
(714,400,o),
(714,342,qs),
(714,0,l),
(734,0,l),
(734,342,ls),
(734,406,o),
(692,478,o),
(614,512,o),
(566,512,qs),
(518,512,o),
(452,482,o),
(416,436,o),
(410,414,q),
(404,436,o),
(368,482,o),
(302,512,o),
(254,512,qs),
(206,512,o),
(132,478,o),
(86,406,o),
(86,342,qs),
(86,0,l)
);
}
);
width = 820;
},
{
anchors = (
{
name = bottom;
pos = (412,0);
},
{
name = top;
pos = (410,500);
}
);
layerId = "CCD41F9B-A064-4484-B59C-AEE566599C6A";
shapes = (
{
closed = 1;
nodes = (
(194,0,l),
(194,306,ls),
(194,334,o),
(208,368,o),
(238,388,o),
(264,388,qs),
(290,388,o),
(322,368,o),
(336,334,o),
(336,306,qs),
(336,0,l),
(484,0,l),
(484,306,ls),
(484,334,o),
(498,368,o),
(530,388,o),
(556,388,qs),
(582,388,o),
(612,368,o),
(626,334,o),
(626,306,qs),
(626,0,l),
(776,0,l),
(776,314,ls),
(776,382,o),
(722,468,o),
(634,512,o),
(574,512,qs),
(526,512,o),
(460,484,o),
(422,450,o),
(410,430,q),
(398,450,o),
(364,484,o),
(294,512,o),
(246,512,qs),
(186,512,o),
(98,468,o),
(44,382,o),
(44,314,qs),
(44,0,l)
);
}
);
width = 820;
},
{
anchors = (
{
name = bottom;
pos = (420,0);
},
{
name = top;
pos = (411,500);
}
);
layerId = m003;
shapes = (
{
closed = 1;
nodes = (
(214,0,l),
(214,299,ls),
(214,318,o),
(225.333,342.667,o),
(249,357,o),
(267,357,qs),
(285,357,o),
(308.667,342.667,o),
(320,318,o),
(320,299,qs),
(320,0,l),
(503,0,l),
(503,299,ls),
(503,318,o),
(514,342.667,o),
(538,357,o),
(556,357,qs),
(574,357,o),
(597.333,342.667,o),
(609,318,o),
(609,299,qs),
(609,0,l),
(792,0,l),
(792,303,ls),
(792,378,o),
(739.333,464,o),
(647,512,o),
(583,512,qs),
(543,512,o),
(480,492,o),
(430,455,o),
(413,427,q),
(395,456,o),
(346.667,492,o),
(279,512,o),
(239,512,qs),
(175,512,o),
(83.333,464,o),
(31,378,o),
(31,303,qs),
(31,0,l)
);
}
);
width = 824;
},
{
anchors = (
{
name = bottom;
pos = (411,0);
},
{
name = top;
pos = (410,500);
}
);
layerId = m004;
shapes = (
{
closed = 1;
nodes = (
(156,0,l),
(156,321,ls),
(156,362,o),
(182.286,409.143,o),
(228,433,o),
(260,433,qs),
(292,433,o),
(338.286,409.143,o),
(363,362,o),
(363,321,qs),
(363,0,l),
(457,0,l),
(457,321,ls),
(457,362,o),
(481.714,409.143,o),
(528,433,o),
(560,433,qs),
(592,433,o),
(639.429,409.143,o),
(664,362,o),
(664,321,qs),
(664,0,l),
(758,0,l),
(758,326,ls),
(758,392,o),
(709.143,472.286,o),
(625,512,o),
(571,512,qs),
(523,512,o),
(456.571,483.143,o),
(419,443,o),
(410,423,q),
(401,443,o),
(365.714,483.143,o),
(297,512,o),
(249,512,qs),
(195,512,o),
(112.571,472.286,o),
(62,392,o),
(62,326,qs),
(62,0,l)
);
}
);
width = 820;
},
{
anchors = (
{
name = bottom;
pos = (424,0);
},
{
name = top;
pos = (412,500);
}
);
layerId = m006;
shapes = (
{
closed = 1;
nodes = (
(224,0,l),
(224,296,ls),
(224,310,o),
(234,330,o),
(254,342,o),
(268,342,qs),
(282,342,o),
(302,330,o),
(312,310,o),
(312,296,qs),
(312,0,l),
(512,0,l),
(512,296,ls),
(512,310,o),
(522,330,o),
(542,342,o),
(556,342,qs),
(570,342,o),
(590,330,o),
(600,310,o),
(600,296,qs),
(600,0,l),
(800,0,l),
(800,298,ls),
(800,376,o),
(748,462,o),
(654,512,o),
(588,512,qs),
(552,512,o),
(490,496,o),
(434,458,o),
(414,426,q),
(394,458,o),
(338,496,o),
(272,512,o),
(236,512,qs),
(170,512,o),
(76,462,o),
(24,376,o),
(24,298,qs),
(24,0,l)
);
}
);
width = 824;
},
{
anchors = (
{
name = bottom;
pos = (410,0);
},
{
name = top;
pos = (410,500);
}
);
layerId = m007;
shapes = (
{
closed = 1;
nodes = (
(120,0,l),
(120,338,ls),
(119,391,o),
(156.572,450.286,o),
(218,477,o),
(256,478,qs),
(294,477,o),
(354.572,450.286,o),
(391,391,o),
(392,338,qs),
(392,0,l),
(430,0,l),
(430,338,ls),
(429,391,o),
(465.428,450.286,o),
(527,477,o),
(566,478,qs),
(603,477,o),
(666.857,450.286,o),
(702,391,o),
(702,338,qs),
(702,0,l),
(740,0,l),
(740,338,ls),
(740,403,o),
(696.286,476.572,o),
(617,512,o),
(568,512,qs),
(519,512,o),
(453.143,482.286,o),
(417,438,o),
(410,416,q),
(403,438,o),
(367.428,482.286,o),
(301,512,o),
(254,512,qs),
(203,512,o),
(127.143,476.572,o),
(80,403,o),
(80,338,qs),
(80,0,l)
);
}
);
width = 820;
}
);
metricLeft = upsilon;
metricRight = upsilon;
},
{
glyphname = n;
kernLeft = n;
kernRight = n;
lastChange = "2025-11-12 08:00:40 +0000";
layers = (
{
anchors = (
{
name = bottom;
pos = (280,0);
},
{
name = top;
pos = (280,500);
}
);
hints = (
{
origin = (0,2);
target = (0,1);
type = Stem;
},
{
place = (440,20);
type = Stem;
},
{
horizontal = 1;
origin = (0,1);
target = (0,1);
type = Stem;
}
);
layerId = m01;
shapes = (
{
closed = 1;
nodes = (
(110,0,l),
(110,500,l),
(90,500,l),
(90,0,l)
);
},
{
pos = (42,0);
ref = "puzo-n";
}
);
width = 560;
},
{
anchors = (
{
name = bottom;
pos = (280,0);
},
{
name = top;
pos = (280,500);
}
);
layerId = "CCD41F9B-A064-4484-B59C-AEE566599C6A";
shapes = (
{
closed = 1;
nodes = (
(206,0,l),
(206,500,l),
(56,500,l),
(56,0,l)
);
},
{
pos = (102,0);
ref = "puzo-n";
}
);
width = 560;
},
{
anchors = (
{
name = bottom;
pos = (280,0);
},
{
name = top;
pos = (280,500);
}
);
hints = (
{
origin = (0,2);
target = (0,1);
type = Stem;
},
{
place = (0,0);
type = Stem;
},
{
horizontal = 1;
origin = (0,1);
target = (0,1);
type = Stem;
}
);
layerId = m003;
shapes = (
{
closed = 1;
nodes = (
(223,0,l),
(223,500,l),
(40,500,l),
(40,0,l)
);
},
{
pos = (122,0);
ref = "puzo-n";
}
);
width = 560;
},
{
anchors = (
{
name = bottom;
pos = (280,0);
},
{
name = top;
pos = (280,500);
}
);
hints = (
{
origin = (0,2);
target = (0,1);
type = Stem;
},
{
place = (189,9);
type = Stem;
},
{
horizontal = 1;
origin = (0,1);
target = (0,1);
type = Stem;
}
);
layerId = m004;
shapes = (
{
closed = 1;
nodes = (
(166,0,l),
(166,500,l),
(72,500,l),
(72,0,l)
);
},
{
pos = (76,0);
ref = "puzo-n";
}
);
width = 560;
},
{
anchors = (
{
name = bottom;
pos = (280,0);
},
{
name = top;
pos = (280,500);
}
);
layerId = m006;
shapes = (
{
closed = 1;
nodes = (
(232,0,l),
(232,500,l),
(32,500,l),
(32,0,l)
);
},
{
pos = (132,0);
ref = "puzo-n";
}
);
width = 560;
},
{
anchors = (
{
name = bottom;
pos = (280,0);
},
{
name = top;
pos = (280,500);
}
);
hints = (
{
origin = (0,2);
target = (0,1);
type = Stem;
},
{
place = (377,17);
type = Stem;
},
{
horizontal = 1;
origin = (0,1);
target = (0,1);
type = Stem;
}
);
layerId = m007;
shapes = (
{
closed = 1;
nodes = (
(124,0,l),
(124,500,l),
(86,500,l),
(86,0,l)
);
},
{
pos = (51,0);
ref = "puzo-n";
}
);
width = 560;
}
);
unicode = 110;
userData = {
KernOnName = n;
};
},
{
glyphname = o;
kernLeft = o;
kernRight = o;
lastChange = "2025-11-12 08:00:40 +0000";
layers = (
{
anchors = (
{
name = bottom;
pos = (280,0);
},
{
name = top;
pos = (280,500);
}
);
layerId = m01;
shapes = (
{
closed = 1;
nodes = (
(346,-12,o),
(446,50,o),
(500,164,o),
(500,250,qs),
(500,336,o),
(446,450,o),
(346,512,o),
(280,512,qs),
(214,512,o),
(114,450,o),
(60,336,o),
(60,250,qs),
(60,164,o),
(114,50,o),
(214,-12,o),
(280,-12,qs)
);
},
{
closed = 1;
nodes = (
(220,8,o),
(130,64,o),
(80,170,o),
(80,250,qs),
(80,330,o),
(130,436,o),
(220,492,o),
(280,492,qs),
(340,492,o),
(430,436,o),
(480,330,o),
(480,250,qs),
(480,170,o),
(430,64,o),
(340,8,o),
(280,8,qs)
);
}
);
width = 560;
},
{
anchors = (
{
name = bottom;
pos = (280,0);
},
{
name = top;
pos = (280,500);
}
);
layerId = "CCD41F9B-A064-4484-B59C-AEE566599C6A";
shapes = (
{
closed = 1;
nodes = (
(360,-12,o),
(472,58,o),
(524,172,o),
(524,250,qs),
(524,328,o),
(472,442,o),
(364,512,o),
(280,512,qs),
(196,512,o),
(88,442,o),
(36,328,o),
(36,250,qs),
(36,172,o),
(88,58,o),
(196,-12,o),
(280,-12,qs)
);
},
{
closed = 1;
nodes = (
(246,118,o),
(206,148,o),
(186,202,o),
(186,250,qs),
(186,298,o),
(206,352,o),
(246,382,o),
(280,382,qs),
(314,382,o),
(354,352,o),
(374,298,o),
(374,250,qs),
(374,202,o),
(354,148,o),
(314,118,o),
(280,118,qs)
);
}
);
width = 560;
},
{
anchors = (
{
name = bottom;
pos = (280,0);
},
{
name = top;
pos = (280,500);
}
);
layerId = m003;
shapes = (
{
closed = 1;
nodes = (
(360,-12,o),
(474.667,51.333,o),
(537,167,o),
(537,250,qs),
(537,333,o),
(474.667,448.667,o),
(361,512,o),
(280,512,qs),
(199,512,o),
(85.333,448.667,o),
(23,333,o),
(23,250,qs),
(23,167,o),
(85.333,51.333,o),
(199,-12,o),
(280,-12,qs)
);
},
{
closed = 1;
nodes = (
(254,138,o),
(223.333,162.667,o),
(206,210,o),
(206,250,qs),
(206,290,o),
(223.333,337.333,o),
(254,362,o),
(280,362,qs),
(306,362,o),
(336.667,337.333,o),
(354,290,o),
(354,250,qs),
(354,210,o),
(336.667,162.667,o),
(306,138,o),
(280,138,qs)
);
}
);
width = 560;
},
{
anchors = (
{
name = bottom;
pos = (280,0);
},
{
name = top;
pos = (280,500);
}
);
layerId = m004;
shapes = (
{
closed = 1;
nodes = (
(354,-12,o),
(460,54,o),
(516,170,o),
(516,250,qs),
(516,332,o),
(460,446,o),
(356,512,o),
(280,512,qs),
(204,512,o),
(100,446,o),
(44,332,o),
(44,250,qs),
(44,170,o),
(100,54,o),
(204,-12,o),
(280,-12,qs)
);
},
{
closed = 1;
nodes = (
(236,70,o),
(174,112,o),
(138,188,o),
(138,250,qs),
(138,312,o),
(174,388,o),
(236,430,o),
(280,430,qs),
(326,430,o),
(386,388,o),
(422,312,o),
(422,250,qs),
(422,188,o),
(386,112,o),
(326,70,o),
(280,70,qs)
);
}
);
width = 560;
},
{
anchors = (
{
name = bottom;
pos = (280,0);
},
{
name = top;
pos = (280,500);
}
);
layerId = m006;
shapes = (
{
closed = 1;
nodes = (
(360,-12,o),
(476,48,o),
(544,164,o),
(544,250,qs),
(544,336,o),
(476,452,o),
(360,512,o),
(280,512,qs),
(200,512,o),
(84,452,o),
(16,336,o),
(16,250,qs),
(16,164,o),
(84,48,o),
(200,-12,o),
(280,-12,qs)
);
},
{
closed = 1;
nodes = (
(258,148,o),
(232,170,o),
(216,214,o),
(216,250,qs),
(216,286,o),
(232,330,o),
(258,352,o),
(280,352,qs),
(302,352,o),
(328,330,o),
(344,286,o),
(344,250,qs),
(344,214,o),
(328,170,o),
(302,148,o),
(280,148,qs)
);
}
);
width = 560;
},
{
anchors = (
{
name = bottom;
pos = (280,0);
},
{
name = top;
pos = (280,500);
}
);
layerId = m007;
shapes = (
{
closed = 1;
nodes = (
(348,-12,o),
(449.5,51,o),
(504,166,o),
(504,250,qs),
(504,335,o),
(449.5,449,o),
(349,512,o),
(280,512,qs),
(212,512,o),
(110.5,449,o),
(56,335,o),
(56,250,qs),
(56,166,o),
(110.5,51,o),
(212,-12,o),
(280,-12,qs)
);
},
{
closed = 1;
nodes = (
(224,24,o),
(141,76,o),
(95,175,o),
(96,250,qs),
(95,326,o),
(141,424,o),
(224,477,o),
(280,478,qs),
(337,477,o),
(419,424,o),
(466,326,o),
(466,250,qs),
(466,175,o),
(419,76,o),
(337,24,o),
(280,24,qs)
);
}
);
width = 560;
}
);
unicode = 111;
userData = {
KernOnName = o;
};
},
{
glyphname = ohorn;
kernLeft = o;
kernRight = "o-horn";
lastChange = "2025-11-12 08:00:40 +0000";
layers = (
{
anchors = (
{
name = top;
pos = (280,500);
}
);
layerId = m01;
shapes = (
{
alignment = -1;
ref = o;
},
{
pos = (440,-200);
ref = horncomb;
},
{
closed = 1;
nodes = (
(354,500,l),
(354,480,l),
(462,480,l),
(462,500,l)
);
}
);
width = 640;
},
{
anchors = (
{
name = top;
pos = (280,500);
}
);
layerId = "CCD41F9B-A064-4484-B59C-AEE566599C6A";
shapes = (
{
alignment = -1;
ref = o;
},
{
pos = (360,-200);
ref = horncomb;
},
{
closed = 1;
nodes = (
(252,500,l),
(252,400,l),
(362,400,l),
(362,500,l)
);
}
);
width = 640;
},
{
anchors = (
{
name = top;
pos = (280,500);
}
);
layerId = m003;
shapes = (
{
alignment = -1;
ref = o;
},
{
pos = (340,-200);
ref = horncomb;
},
{
closed = 1;
nodes = (
(272,500,l),
(272,387,l),
(355,387,l),
(355,500,l)
);
}
);
width = 640;
},
{
anchors = (
{
name = top;
pos = (280,500);
}
);
layerId = m004;
shapes = (
{
alignment = -1;
ref = o;
},
{
pos = (394,-200);
ref = horncomb;
},
{
closed = 1;
nodes = (
(296,500,l),
(296,434,l),
(405,434,l),
(405,500,l)
);
}
);
width = 640;
},
{
anchors = (
{
name = top;
pos = (280,500);
}
);
layerId = m006;
shapes = (
{
alignment = -1;
ref = o;
},
{
pos = (330,-200);
ref = horncomb;
},
{
closed = 1;
nodes = (
(282,500,l),
(282,380,l),
(352,380,l),
(352,500,l)
);
}
);
width = 640;
},
{
anchors = (
{
name = top;
pos = (280,500);
}
);
layerId = m007;
shapes = (
{
alignment = -1;
ref = o;
},
{
pos = (429,-200);
ref = horncomb;
},
{
closed = 1;
nodes = (
(340,500,l),
(340,470,l),
(448,470,l),
(448,500,l)
);
}
);
width = 640;
}
);
metricLeft = o;
metricRight = tau;
unicode = 417;
},
{
glyphname = oslash;
kernLeft = o;
kernRight = o;
lastChange = "2025-11-12 08:00:40 +0000";
layers = (
{
anchors = (
{
name = top;
pos = (280,500);
}
);
layerId = m01;
shapes = (
{
closed = 1;
nodes = (
(86,0,l),
(500,500,l),
(476,500,l),
(60,0,l)
);
},
{
ref = o;
}
);
width = 560;
},
{
anchors = (
{
name = top;
pos = (280,500);
}
);
layerId = "CCD41F9B-A064-4484-B59C-AEE566599C6A";
shapes = (
{
closed = 1;
nodes = (
(138,0,l),
(520,500,l),
(432,500,l),
(50,0,l)
);
},
{
ref = o;
}
);
width = 560;
},
{
anchors = (
{
name = top;
pos = (280,500);
}
);
layerId = m003;
shapes = (
{
closed = 1;
nodes = (
(135,0,l),
(536,500,l),
(428,500,l),
(27,0,l)
);
},
{
ref = o;
}
);
width = 560;
},
{
anchors = (
{
name = top;
pos = (280,500);
}
);
layerId = m004;
shapes = (
{
closed = 1;
nodes = (
(116,0,l),
(511,500,l),
(451,500,l),
(54,0,l)
);
},
{
ref = o;
}
);
width = 560;
},
{
anchors = (
{
name = top;
pos = (280,500);
}
);
layerId = m006;
shapes = (
{
closed = 1;
nodes = (
(134,0,l),
(544,500,l),
(426,500,l),
(16,0,l)
);
},
{
ref = o;
}
);
width = 560;
},
{
anchors = (
{
name = top;
pos = (280,500);
}
);
layerId = m007;
shapes = (
{
closed = 1;
nodes = (
(94,0,l),
(504,500,l),
(470,500,l),
(60,0,l)
);
},
{
ref = o;
}
);
width = 560;
}
);
metricLeft = o;
metricRight = o;
unicode = 248;
},
